Medium-Italic.sfdir
StartChar: exclam
Encoding: 33 33 1
Width: 307
Flags: MW
LayerCount: 2
Fore
SplineSet
112 43 m 0
 112 79 146 106 176 106 c 0
 202 106 220 86 220 63 c 0
 220 30 188 0 156 0 c 0
 132 0 112 18 112 43 c 0
188 201 m 0
 188 205 188 208 189 211 c 2
 264 652 l 2
 274 711 314 716 329 716 c 0
 352 716 373 701 373 676 c 0
 373 666 370 655 366 646 c 2
 222 207 l 2
 219 198 215 187 202 187 c 0
 193 187 188 192 188 201 c 0
EndSplineSet
EndChar
StartChar: quotedbl
Encoding: 34 34 2
Width: 511
Flags: MW
LayerCount: 2
Fore
SplineSet
254 352 m 0
 254 356 301 663 306 675 c 0
 314 692 331 705 351 705 c 0
 363 705 385 698 385 672 c 0
 385 669 381 656 375 636 c 0
 348 552 278 353 278 353 c 2
 276 347 272 338 264 338 c 0
 260 338 254 341 254 352 c 0
409 353 m 0
 409 358 456 664 461 675 c 0
 471 700 494 705 505 705 c 0
 518 705 539 698 539 670 c 0
 539 666 539 662 530 636 c 4
 518 601 492 526 434 357 c 0
 432 351 428 338 419 338 c 0
 414 338 409 342 409 353 c 0
EndSplineSet
EndChar
StartChar: numbersign
Encoding: 35 35 3
Width: 818
Flags: MW
LayerCount: 2
Fore
SplineSet
116 153 m 0
 116 164 130 164 141 164 c 2
 305 164 l 1
 391 336 l 1
 191 336 l 2
 180 336 165 336 165 347 c 0
 165 358 177 358 188 358 c 2
 403 358 l 1
 404 361 409 369 414 380 c 0
 450 453 559 670 564 679 c 1
 566 685 571 692 578 692 c 0
 584 692 588 689 588 682 c 0
 588 679 586 674 584 669 c 2
 428 358 l 1
 622 358 l 1
 624 361 628 370 634 382 c 0
 671 457 778 670 782 679 c 0
 785 685 790 692 797 692 c 0
 803 692 806 689 806 683 c 0
 806 679 805 675 802 669 c 2
 647 358 l 1
 801 358 l 2
 812 358 824 357 824 347 c 0
 824 336 810 336 800 336 c 2
 635 336 l 1
 549 164 l 1
 750 164 l 2
 761 164 776 164 776 153 c 0
 776 142 763 142 752 142 c 2
 537 142 l 1
 388 -157 l 2
 380 -172 373 -192 362 -192 c 0
 356 -192 353 -189 353 -184 c 0
 353 -178 356 -169 362 -157 c 4
 368 -144 377 -128 386 -110 c 2
 512 142 l 1
 319 142 l 1
 170 -157 l 2
 162 -172 154 -192 144 -192 c 0
 137 -192 135 -189 135 -184 c 0
 135 -178 138 -169 143 -158 c 0
 149 -145 158 -128 167 -110 c 2
 294 142 l 1
 139 142 l 2
 128 142 116 143 116 153 c 0
331 164 m 1
 524 164 l 1
 610 336 l 1
 416 336 l 1
 331 164 l 1
EndSplineSet
EndChar
StartChar: dollar
Encoding: 36 36 4
Width: 511
Flags: MW
LayerCount: 2
Fore
SplineSet
113 123 m 0
 113 170 124 222 169 222 c 0
 187 222 203 210 203 191 c 0
 203 168 185 143 151 143 c 2
 145 143 l 1
 145 127 l 2
 145 41 203 24 244 20 c 1
 320 324 l 1
 295 331 199 352 199 468 c 0
 199 565 279 690 415 705 c 1
 422 734 424 749 439 749 c 0
 450 749 453 745 453 737 c 0
 453 729 450 718 446 705 c 1
 520 699 571 657 571 578 c 0
 571 499 539 486 517 486 c 0
 499 486 483 497 483 518 c 0
 483 538 498 565 534 565 c 2
 540 565 l 1
 540 597 538 665 439 674 c 1
 370 398 l 1
 398 390 488 368 488 248 c 0
 488 131 395 5 267 -11 c 1
 261 -40 258 -55 243 -55 c 0
 233 -55 230 -50 230 -42 c 0
 230 -35 233 -24 236 -10 c 1
 156 -4 113 46 113 123 c 0
255 506 m 0
 255 423 330 409 340 407 c 1
 407 673 l 1
 310 656 255 573 255 506 c 0
276 21 m 1
 362 36 432 126 432 211 c 0
 432 299 361 312 349 315 c 1
 276 21 l 1
EndSplineSet
EndChar
StartChar: percent
Encoding: 37 37 5
Width: 817
Flags: MW
LayerCount: 2
Fore
SplineSet
145 -36 m 0
 145 -28 149 -24 156 -16 c 2
 729 649 l 1
 729 650 l 1
 681 628 639 621 607 621 c 0
 546 621 499 645 476 663 c 1
 479 649 479 637 479 624 c 0
 479 495 388 347 300 347 c 0
 245 347 205 398 205 480 c 0
 205 610 304 750 395 750 c 0
 431 750 447 729 455 718 c 0
 469 699 511 643 608 643 c 0
 684 643 759 682 802 732 c 0
 813 745 817 750 827 750 c 0
 837 750 846 741 846 730 c 0
 846 722 842 718 835 709 c 2
 186 -43 l 2
 176 -55 171 -56 165 -56 c 0
 155 -56 145 -47 145 -36 c 0
256 449 m 0
 256 421 262 369 302 369 c 0
 366 369 449 507 449 629 c 0
 449 675 435 728 395 728 c 0
 342 728 302 651 279 574 c 0
 264 526 256 477 256 449 c 0
513 77 m 0
 513 204 610 347 704 347 c 0
 770 347 788 269 788 221 c 0
 788 100 701 -56 608 -56 c 0
 550 -56 513 1 513 77 c 0
564 46 m 0
 564 31 566 -34 610 -34 c 0
 625 -34 640 -27 656 -14 c 4
 708 28 757 130 757 226 c 0
 757 282 739 325 704 325 c 0
 663 325 631 281 607 226 c 0
 579 161 564 82 564 46 c 0
EndSplineSet
EndChar
StartChar: ampersand
Encoding: 38 38 6
Width: 766
Flags: MW
LayerCount: 2
Fore
SplineSet
126 176 m 0
 126 213 147 305 219 383 c 0
 220 385 222 387 222 389 c 0
 222 390 222 391 220 396 c 0
 211 424 211 443 211 456 c 0
 211 582 317 716 424 716 c 0
 493 716 530 662 530 601 c 0
 530 583 527 522 477 522 c 0
 451 522 442 541 442 554 c 0
 442 555 442 603 499 603 c 1
 498 676 454 694 424 694 c 0
 399 694 377 682 357 663 c 0
 303 610 271 502 269 427 c 1
 302 449 337 461 367 461 c 0
 403 461 430 439 430 401 c 0
 430 355 386 310 334 310 c 0
 287 310 256 339 253 342 c 1
 230 301 202 212 202 156 c 0
 202 35 304 0 383 0 c 0
 587 0 667 138 692 237 c 0
 699 265 702 290 702 308 c 0
 702 350 692 394 650 448 c 1
 558 391 521 368 521 310 c 0
 521 302 521 296 524 288 c 1
 531 306 548 320 569 320 c 0
 584 320 601 312 601 289 c 0
 601 265 582 242 553 242 c 0
 518 242 490 269 490 313 c 0
 490 383 557 425 606 455 c 0
 627 468 651 484 675 504 c 4
 707 531 738 567 758 616 c 1
 736 617 724 628 724 647 c 0
 724 677 750 694 771 694 c 0
 787 694 804 684 804 663 c 0
 804 646 773 536 677 467 c 1
 712 421 734 371 734 311 c 0
 734 251 707 143 626 66 c 0
 572 15 493 -22 382 -22 c 0
 217 -22 126 72 126 176 c 0
276 379 m 1
 286 352 306 332 336 332 c 0
 373 332 400 370 400 406 c 0
 400 431 383 439 367 439 c 0
 324 439 286 392 276 379 c 1
EndSplineSet
EndChar
StartChar: quotesingle
Encoding: 39 39 7
Width: 307
Flags: MW
LayerCount: 2
Fore
SplineSet
229 353 m 0
 229 356 276 663 281 675 c 0
 285 683 299 705 325 705 c 0
 339 705 360 698 360 671 c 0
 360 666 360 662 348 628 c 4
 335 590 308 514 254 357 c 0
 252 351 249 338 239 338 c 0
 235 338 229 341 229 353 c 0
EndSplineSet
EndChar
StartChar: parenleft
Encoding: 40 40 8
Width: 408
Flags: MW
LayerCount: 2
Fore
SplineSet
152 47 m 0
 152 154 183 346 293 527 c 0
 365 645 457 721 492 743 c 4
 499 748 504 750 506 750 c 0
 512 750 516 747 516 740 c 0
 516 737 515 736 501 722 c 1
 452 680 411 632 376 580 c 0
 240 377 202 119 202 11 c 0
 202 -59 210 -144 264 -226 c 0
 271 -236 271 -238 271 -240 c 0
 271 -246 267 -250 261 -250 c 0
 247 -250 204 -192 179 -125 c 0
 161 -75 152 -12 152 47 c 0
EndSplineSet
EndChar
StartChar: parenright
Encoding: 41 41 9
Width: 408
Flags: MW
LayerCount: 2
Fore
SplineSet
18 -240 m 0
 18 -237 19 -236 33 -222 c 1
 65 -194 95 -164 121 -131 c 0
 288 78 332 371 332 489 c 0
 332 559 324 644 270 726 c 0
 263 736 263 738 263 740 c 0
 263 746 267 750 273 750 c 0
 287 750 330 692 355 625 c 0
 373 575 382 512 382 453 c 0
 382 346 351 154 241 -27 c 0
 171 -141 82 -216 45 -241 c 4
 36 -247 30 -250 28 -250 c 0
 22 -250 18 -247 18 -240 c 0
EndSplineSet
EndChar
StartChar: asterisk
Encoding: 42 42 10
Width: 511
Flags: MW
LayerCount: 2
Fore
SplineSet
195 435 m 0
 195 444 198 455 219 465 c 2
 369 535 l 1
 256 604 l 2
 245 611 242 613 242 622 c 0
 242 637 257 654 274 654 c 0
 282 654 284 652 293 643 c 2
 383 555 l 1
 410 716 l 2
 411 720 412 728 417 736 c 4
 422 743 430 750 443 750 c 0
 453 750 463 743 463 732 c 0
 463 728 460 720 459 716 c 2
 406 555 l 1
 546 648 l 2
 549 650 555 654 563 654 c 0
 582 654 583 637 583 634 c 0
 583 617 569 608 559 604 c 2
 409 534 l 1
 522 466 l 2
 530 461 537 457 537 447 c 0
 537 431 520 415 505 415 c 0
 498 415 495 416 485 426 c 2
 395 514 l 1
 368 353 l 2
 368 350 367 343 364 337 c 0
 360 328 351 319 336 319 c 0
 323 319 315 327 315 337 c 0
 315 342 318 349 319 353 c 2
 373 514 l 1
 232 421 l 2
 227 418 223 415 215 415 c 0
 203 415 195 423 195 435 c 0
EndSplineSet
EndChar
StartChar: plus
Encoding: 43 43 11
Width: 766
Flags: MW
LayerCount: 2
Fore
SplineSet
141 250 m 0
 141 260 153 262 164 262 c 0
 168 262 173 261 176 261 c 2
 437 261 l 1
 437 261 503 528 507 542 c 0
 509 547 513 554 519 554 c 0
 527 554 529 549 529 542 c 0
 529 533 525 522 524 517 c 2
 460 261 l 1
 715 261 l 2
 719 261 723 262 727 262 c 0
 738 262 750 260 750 250 c 0
 750 239 737 239 715 239 c 2
 454 239 l 1
 389 -22 l 2
 384 -41 382 -54 372 -54 c 0
 364 -54 362 -49 362 -42 c 0
 362 -39 364 -26 369 -7 c 4
 383 51 414 167 431 239 c 1
 176 239 l 2
 172 239 168 238 163 238 c 0
 152 238 141 240 141 250 c 0
EndSplineSet
EndChar
StartChar: comma
Encoding: 44 44 12
Width: 306
Flags: MW
LayerCount: 2
Fore
SplineSet
73 -183 m 0
 73 -179 74 -178 86 -166 c 1
 133 -126 183 -62 198 15 c 1
 193 11 177 0 157 0 c 0
 136 0 113 10 113 42 c 0
 113 71 138 106 178 106 c 0
 210 106 224 80 224 47 c 0
 224 -52 139 -152 100 -183 c 4
 92 -189 86 -193 83 -193 c 0
 76 -193 73 -186 73 -183 c 0
EndSplineSet
EndChar
StartChar: hyphen
Encoding: 45 45 13
Width: 358
Flags: MW
LayerCount: 2
Fore
SplineSet
86 201 m 0
 86 204 90 237 103 241 c 0
 107 243 111 243 116 243 c 2
 315 243 l 2
 327 243 337 242 337 229 c 0
 337 227 334 196 323 190 c 0
 318 187 313 187 308 187 c 2
 108 187 l 2
 97 187 86 188 86 201 c 0
EndSplineSet
EndChar
StartChar: period
Encoding: 46 46 14
Width: 307
Flags: MW
LayerCount: 2
Fore
SplineSet
112 43 m 0
 112 73 142 106 176 106 c 0
 202 106 219 86 219 63 c 0
 219 33 189 0 155 0 c 0
 131 0 112 17 112 43 c 0
EndSplineSet
EndChar
StartChar: slash
Encoding: 47 47 15
Width: 511
Flags: MW
LayerCount: 2
Fore
SplineSet
18 -238 m 0
 18 -231 23 -223 27 -217 c 2
 570 700 l 2
 585 725 595 748 606 748 c 0
 612 748 616 743 616 737 c 0
 616 732 612 726 609 721 c 2
 66 -196 l 2
 35 -247 35 -248 27 -248 c 0
 22 -248 18 -244 18 -238 c 0
EndSplineSet
EndChar
StartChar: zero
Encoding: 48 48 16
Width: 511
Flags: MW
LayerCount: 2
Fore
SplineSet
117 148 m 0
 117 237 160 412 209 505 c 0
 231 548 257 581 283 606 c 0
 328 648 376 666 421 666 c 0
 550 666 555 536 555 496 c 0
 555 415 517 257 476 164 c 0
 464 138 452 116 439 96 c 4
 379 5 305 -22 251 -22 c 0
 117 -22 117 117 117 148 c 0
181 98 m 0
 181 20 224 0 256 0 c 0
 308 0 358 51 380 98 c 0
 423 193 493 476 493 550 c 0
 493 614 457 644 416 644 c 0
 382 644 328 622 291 547 c 0
 256 475 181 180 181 98 c 0
EndSplineSet
EndChar
StartChar: one
Encoding: 49 49 17
Width: 511
Flags: MW
LayerCount: 2
Fore
SplineSet
117 12 m 0
 117 31 128 31 145 31 c 2
 153 31 l 2
 231 31 239 41 247 73 c 2
 365 547 l 1
 318 512 269 506 254 506 c 0
 250 506 238 506 238 518 c 0
 238 535 249 536 254 537 c 0
 263 538 275 539 290 543 c 4
 325 553 376 578 430 650 c 0
 442 665 443 666 449 666 c 0
 455 666 461 662 461 654 c 0
 461 652 459 644 458 641 c 2
 315 70 l 2
 314 66 312 57 312 51 c 0
 312 37 318 36 340 33 c 0
 353 32 370 31 383 31 c 2
 391 31 l 2
 407 31 417 31 417 19 c 0
 417 0 404 0 397 0 c 0
 353 0 307 3 263 3 c 0
 220 3 175 0 132 0 c 0
 128 0 117 0 117 12 c 0
EndSplineSet
EndChar
StartChar: two
Encoding: 50 50 18
Width: 511
Flags: MW
LayerCount: 2
Fore
SplineSet
84 -12 m 0
 84 -12 85 -5 89 7 c 0
 97 34 117 85 165 143 c 1
 207 195 249 219 294 246 c 0
 378 296 453 364 474 473 c 0
 478 492 480 512 480 534 c 0
 480 617 433 644 392 644 c 0
 270 644 195 456 195 391 c 0
 195 363 205 358 217 358 c 0
 278 358 315 464 315 493 c 0
 315 505 311 518 305 530 c 0
 304 532 304 534 304 536 c 0
 304 542 309 547 315 547 c 0
 328 547 337 512 337 494 c 0
 337 456 295 336 216 336 c 0
 171 336 165 379 165 399 c 0
 165 464 247 666 395 666 c 0
 473 666 551 612 551 497 c 0
 551 368 460 306 306 219 c 0
 275 201 202 160 152 74 c 1
 154 75 163 77 174 77 c 0
 205 77 244 68 280 60 c 0
 296 56 335 48 363 48 c 0
 430 48 469 115 483 156 c 1
 487 172 488 173 500 173 c 0
 507 173 515 173 515 163 c 0
 515 152 469 -22 354 -22 c 0
 314 -22 283 0 257 18 c 0
 232 35 204 55 172 55 c 0
 158 55 147 48 138 37 c 4
 127 24 120 6 116 -9 c 0
 113 -20 111 -22 99 -22 c 0
 97 -22 95 -22 93 -22 c 0
 89 -21 84 -19 84 -12 c 0
EndSplineSet
EndChar
StartChar: three
Encoding: 51 51 19
Width: 511
Flags: MW
LayerCount: 2
Fore
SplineSet
95 106 m 0
 95 124 97 184 148 184 c 0
 171 184 182 168 182 152 c 0
 182 137 169 100 126 104 c 1
 128 30 178 0 228 0 c 0
 273 0 319 25 347 59 c 1
 399 119 408 218 408 236 c 0
 408 317 350 319 331 319 c 2
 303 319 l 2
 286 319 278 319 278 329 c 0
 278 350 287 350 304 350 c 2
 327 350 l 2
 358 350 384 357 405 368 c 4
 495 415 502 541 502 554 c 0
 502 626 454 644 417 644 c 0
 320 644 229 550 229 471 c 0
 229 453 235 434 255 434 c 0
 284 434 316 462 316 496 c 0
 316 511 309 524 308 525 c 0
 305 531 304 533 304 536 c 0
 304 542 309 547 315 547 c 0
 327 547 338 516 338 497 c 0
 338 447 292 412 255 412 c 0
 218 412 199 441 199 476 c 0
 199 561 300 666 419 666 c 0
 497 666 562 617 562 532 c 0
 562 461 512 377 421 338 c 0
 414 335 407 332 400 330 c 1
 476 295 480 222 480 203 c 0
 480 83 354 -22 228 -22 c 0
 143 -22 95 38 95 106 c 0
EndSplineSet
EndChar
StartChar: four
Encoding: 52 52 20
Width: 511
Flags: MW
LayerCount: 2
Fore
SplineSet
44 18 m 0
 44 34 76 51 83 54 c 1
 85 56 119 82 163 131 c 0
 191 163 224 204 255 255 c 0
 326 371 370 491 403 616 c 0
 410 643 416 666 445 666 c 0
 455 666 472 661 472 640 c 0
 472 640 462 585 432 503 c 0
 389 386 303 213 144 66 c 1
 157 67 159 67 171 67 c 0
 193 67 210 67 247 56 c 1
 276 46 235 59 308 33 c 1
 309 39 347 189 350 199 c 0
 353 211 357 227 369 236 c 4
 374 240 381 242 390 242 c 0
 393 242 417 241 417 215 c 0
 417 212 417 210 413 195 c 2
 369 17 l 1
 374 16 378 16 385 16 c 0
 402 16 427 20 445 27 c 0
 455 31 457 31 459 31 c 0
 468 31 474 19 474 14 c 0
 474 -2 409 -15 381 -15 c 0
 375 -15 367 -15 361 -14 c 1
 324 -160 l 2
 321 -170 317 -178 312 -184 c 0
 305 -191 297 -194 286 -194 c 0
 276 -194 259 -189 259 -168 c 0
 259 -164 259 -162 263 -147 c 2
 300 2 l 1
 278 10 254 20 241 25 c 0
 206 36 186 36 168 36 c 0
 109 36 100 29 91 21 c 1
 80 13 65 1 59 1 c 0
 51 1 44 14 44 18 c 0
EndSplineSet
EndChar
StartChar: five
Encoding: 53 53 21
Width: 511
Flags: MW
LayerCount: 2
Fore
SplineSet
107 117 m 0
 107 149 113 208 165 208 c 0
 188 208 201 194 201 174 c 0
 201 151 182 122 148 122 c 0
 143 122 141 122 138 123 c 1
 139 26 200 6 236 6 c 0
 263 6 300 18 336 54 c 0
 350 68 364 86 376 109 c 0
 397 149 426 254 426 309 c 0
 426 363 406 398 365 398 c 0
 336 398 281 389 230 329 c 0
 223 322 221 319 214 319 c 0
 208 319 201 321 201 331 c 0
 201 333 202 341 203 344 c 2
 279 648 l 2
 282 659 284 665 291 665 c 0
 295 665 299 663 305 660 c 0
 334 644 373 634 417 634 c 0
 456 634 501 642 546 662 c 0
 551 664 555 665 558 665 c 0
 561 665 567 663 567 656 c 0
 567 652 562 645 552 635 c 4
 522 605 452 558 369 558 c 0
 349 558 326 560 307 567 c 0
 297 570 295 570 294 570 c 0
 293 570 292 569 289 558 c 2
 243 374 l 1
 280 403 321 420 367 420 c 0
 454 420 498 344 498 265 c 0
 498 113 364 -22 236 -22 c 0
 150 -22 107 44 107 117 c 0
EndSplineSet
EndChar
StartChar: six
Encoding: 54 54 22
Width: 511
Flags: MW
LayerCount: 2
Fore
SplineSet
120 158 m 0
 120 204 129 288 160 375 c 0
 176 420 198 466 227 507 c 0
 299 609 389 666 471 666 c 0
 531 666 568 637 568 587 c 0
 568 549 550 521 516 521 c 0
 490 521 482 539 482 553 c 0
 482 560 487 601 535 601 c 1
 525 637 492 641 470 641 c 0
 409 641 356 593 325 554 c 0
 279 495 255 429 232 339 c 1
 262 383 306 426 367 426 c 0
 480 426 507 320 507 270 c 0
 507 220 493 170 469 127 c 4
 440 74 397 29 348 3 c 0
 318 -13 286 -22 254 -22 c 0
 120 -22 120 131 120 158 c 0
185 97 m 0
 185 68 197 6 256 6 c 0
 312 6 354 49 380 96 c 1
 391 117 406 167 418 215 c 0
 428 256 435 296 435 317 c 0
 435 348 426 368 417 380 c 0
 400 404 378 404 364 404 c 0
 231 404 185 176 185 97 c 0
EndSplineSet
EndChar
StartChar: seven
Encoding: 55 55 23
Width: 511
Flags: MW
LayerCount: 2
Fore
SplineSet
144 432 m 0
 144 433 144 435 150 447 c 2
 246 651 l 2
 252 663 253 665 260 666 c 0
 261 666 263 666 265 666 c 0
 270 666 280 666 280 656 c 0
 280 655 280 653 257 603 c 1
 315 658 364 666 391 666 c 0
 432 666 436 636 440 598 c 0
 443 564 446 549 468 549 c 0
 509 549 546 589 583 643 c 1
 598 663 l 1
 602 666 606 666 611 666 c 0
 614 666 617 666 620 665 c 0
 623 664 625 661 625 656 c 0
 625 654 625 652 616 639 c 0
 588 596 542 527 490 415 c 0
 432 291 390 164 359 44 c 0
 351 10 342 -22 303 -22 c 0
 286 -22 268 -11 268 11 c 0
 268 13 273 42 290 93 c 0
 306 143 333 214 378 304 c 0
 411 370 412 372 513 538 c 1
 499 531 484 527 468 527 c 0
 451 527 435 532 419 561 c 1
 402 589 397 596 378 596 c 0
 342 596 250 575 175 430 c 0
 171 423 170 422 159 422 c 0
 157 422 154 422 152 422 c 4
 148 423 144 425 144 432 c 0
EndSplineSet
EndChar
StartChar: eight
Encoding: 56 56 24
Width: 511
Flags: MW
LayerCount: 2
Fore
SplineSet
97 115 m 0
 97 160 116 258 286 337 c 1
 241 377 240 378 234 386 c 0
 224 399 210 427 210 463 c 0
 210 563 310 666 420 666 c 0
 490 666 554 624 554 548 c 0
 554 474 496 408 397 360 c 9
 397 360 l 21
 420 340 460 306 465 299 c 0
 485 272 494 240 494 208 c 0
 494 93 378 -22 252 -22 c 0
 167 -22 97 31 97 115 c 0
147 113 m 0
 147 49 191 6 255 6 c 0
 347 6 435 86 435 166 c 0
 435 211 412 230 387 252 c 2
 305 321 l 1
 206 274 147 186 147 113 c 0
265 509 m 0
 265 485 275 463 293 448 c 2
 369 384 l 2
 376 377 377 377 378 377 c 0
 384 377 509 445 509 550 c 0
 509 608 470 641 417 641 c 0
 340 641 265 575 265 509 c 0
EndSplineSet
EndChar
StartChar: nine
Encoding: 57 57 25
Width: 511
Flags: MW
LayerCount: 2
Fore
SplineSet
104 58 m 0
 104 94 122 123 156 123 c 0
 182 123 190 105 190 91 c 0
 190 86 187 46 139 42 c 1
 152 13 186 6 214 6 c 0
 276 6 324 58 345 84 c 0
 389 140 414 200 440 306 c 1
 409 259 365 219 305 219 c 0
 190 219 165 331 165 376 c 0
 165 441 190 506 229 557 c 0
 278 622 350 666 423 666 c 0
 553 666 553 515 553 488 c 0
 553 457 546 362 508 259 c 4
 492 214 469 169 439 126 c 0
 392 59 308 -22 212 -22 c 0
 150 -22 104 5 104 58 c 0
237 328 m 0
 237 314 237 241 308 241 c 0
 445 241 488 478 488 550 c 0
 488 593 472 641 421 641 c 0
 350 641 307 573 295 551 c 0
 275 515 253 435 243 379 c 0
 239 357 237 339 237 328 c 0
EndSplineSet
EndChar
StartChar: colon
Encoding: 58 58 26
Width: 306
Flags: MW
LayerCount: 2
Fore
SplineSet
113 43 m 0
 113 76 146 106 178 106 c 0
 206 106 222 85 222 63 c 0
 222 33 191 0 157 0 c 0
 131 0 113 17 113 43 c 0
194 368 m 0
 194 399 225 431 259 431 c 0
 287 431 303 411 303 388 c 0
 303 357 272 325 238 325 c 0
 210 325 194 345 194 368 c 0
EndSplineSet
EndChar
StartChar: semicolon
Encoding: 59 59 27
Width: 307
Flags: MW
LayerCount: 2
Fore
SplineSet
194 368 m 0
 194 398 224 431 258 431 c 0
 284 431 301 411 301 388 c 0
 301 358 271 325 237 325 c 0
 213 325 194 342 194 368 c 0
73 -183 m 0
 73 -179 74 -178 86 -166 c 1
 133 -126 183 -62 198 15 c 1
 193 11 177 0 157 0 c 0
 136 0 113 10 113 42 c 0
 113 71 138 106 178 106 c 0
 210 106 224 80 224 47 c 0
 224 -53 138 -154 99 -184 c 4
 92 -190 86 -193 83 -193 c 0
 76 -193 73 -186 73 -183 c 0
EndSplineSet
EndChar
StartChar: less
Encoding: 60 60 28
Width: 766
Flags: MW
LayerCount: 2
Fore
SplineSet
166 250 m 0
 166 260 183 266 194 271 c 2
 765 524 l 2
 774 528 777 529 780 529 c 0
 786 529 791 524 791 519 c 0
 791 510 778 506 765 499 c 1
 261 276 l 2
 241 267 221 257 201 249 c 1
 201 248 l 1
 211 243 220 237 230 232 c 2
 641 -3 l 2
 652 -9 656 -15 656 -20 c 0
 656 -25 651 -29 646 -29 c 0
 639 -29 632 -23 627 -21 c 2
 590 0 l 5
 192 227 l 2
 178 235 166 241 166 250 c 0
EndSplineSet
EndChar
StartChar: equal
Encoding: 61 61 29
Width: 766
Flags: MW
LayerCount: 2
Fore
SplineSet
116 153 m 0
 116 163 129 164 141 164 c 2
 699 164 l 2
 705 164 713 165 719 162 c 0
 725 159 727 151 722 146 c 0
 719 143 717 142 697 142 c 2
 138 142 l 2
 128 142 116 143 116 153 c 0
165 347 m 0
 165 356 174 358 185 358 c 2
 754 358 l 2
 762 358 773 357 773 347 c 0
 773 336 759 336 748 336 c 2
 214 336 l 2
 207 336 200 335 192 335 c 2
 189 335 l 2
 179 335 165 336 165 347 c 0
EndSplineSet
EndChar
StartChar: greater
Encoding: 62 62 30
Width: 766
Flags: MW
LayerCount: 2
Fore
SplineSet
99 -19 m 0
 99 -10 112 -6 125 1 c 1
 629 224 l 1
 689 251 l 1
 689 252 l 1
 666 264 644 277 621 290 c 2
 249 502 l 2
 238 509 234 515 234 520 c 0
 234 525 240 529 244 529 c 0
 249 529 255 525 259 523 c 2
 698 273 l 2
 712 265 724 259 724 250 c 0
 724 240 706 234 696 229 c 2
 138 -18 l 2
 129 -22 118 -29 110 -29 c 0
 104 -29 99 -25 99 -19 c 0
EndSplineSet
EndChar
StartChar: question
Encoding: 63 63 31
Width: 511
Flags: MW
LayerCount: 2
Fore
SplineSet
194 463 m 0
 194 506 278 716 431 716 c 0
 504 716 551 663 551 592 c 0
 551 496 482 441 441 409 c 2
 363 346 l 1
 299 296 281 282 281 243 c 0
 281 227 288 209 306 209 c 0
 337 209 372 237 386 277 c 0
 389 287 390 291 396 292 c 4
 398 292 400 292 403 292 c 0
 408 292 418 292 418 282 c 0
 418 258 373 187 306 187 c 0
 264 187 246 224 246 257 c 0
 246 320 290 354 315 375 c 1
 436 470 l 2
 465 494 516 535 516 606 c 0
 516 664 477 694 431 694 c 0
 349 694 275 612 239 512 c 1
 269 512 277 494 277 480 c 0
 277 454 254 431 228 431 c 0
 215 431 194 437 194 463 c 0
215 43 m 0
 215 77 248 106 279 106 c 0
 309 106 324 83 324 63 c 0
 324 32 293 0 259 0 c 0
 234 0 215 18 215 43 c 0
EndSplineSet
EndChar
StartChar: at
Encoding: 64 64 32
Width: 766
Flags: MW
LayerCount: 2
Fore
SplineSet
151 248 m 0
 151 359 198 469 269 553 c 0
 346 644 452 705 557 705 c 0
 684 705 789 611 789 445 c 0
 789 354 747 244 746 241 c 0
 731 200 699 128 628 128 c 0
 607 128 556 136 553 193 c 1
 533 174 483 128 417 128 c 0
 341 128 279 188 279 286 c 0
 279 429 403 566 522 566 c 0
 601 566 627 501 635 481 c 1
 649 481 l 29
 661 481 l 2
 677 481 684 481 684 471 c 0
 684 470 683 461 682 458 c 2
 617 195 l 2
 616 189 614 181 614 175 c 0
 614 150 626 150 632 150 c 0
 721 150 759 400 759 448 c 0
 759 581 681 683 556 683 c 0
 377 683 182 470 182 246 c 0
 182 119 251 11 389 11 c 0
 478 11 566 34 647 71 c 0
 663 78 665 78 681 78 c 0
 686 78 691 78 694 78 c 0
 703 77 706 75 706 68 c 0
 706 62 690 54 668 45 c 0
 630 30 575 15 558 11 c 0
 471 -11 402 -11 388 -11 c 0
 230 -11 151 113 151 248 c 0
340 270 m 0
 340 224 357 150 420 150 c 0
 488 150 561 232 570 268 c 2
 610 430 l 2
 610 432 613 443 613 444 c 0
 613 458 596 544 522 544 c 0
 437 544 340 401 340 270 c 0
EndSplineSet
EndChar
StartChar: B
Encoding: 66 66 34
Width: 703
Flags: MW
LayerCount: 2
Fore
SplineSet
65 12 m 0
 65 31 76 31 92 31 c 0
 100 31 107 31 114 31 c 4
 161 33 167 43 174 73 c 2
 309 616 l 2
 313 630 313 632 313 635 c 0
 313 647 300 650 282 651 c 0
 274 652 265 652 255 652 c 0
 236 652 228 652 228 664 c 0
 228 683 239 683 255 683 c 2
 566 683 l 2
 603 683 635 676 660 663 c 0
 708 638 734 594 734 547 c 0
 734 480 677 406 581 370 c 0
 567 365 553 360 538 357 c 1
 610 348 677 302 677 219 c 0
 677 125 584 23 462 3 c 0
 448 1 434 0 420 0 c 2
 90 0 l 2
 74 0 65 0 65 12 c 0
243 41 m 0
 243 34 243 31 274 31 c 2
 398 31 l 2
 435 31 469 43 497 62 c 0
 553 100 588 168 588 232 c 0
 588 258 582 344 489 344 c 2
 317 344 l 1
 247 63 l 2
 246 57 243 47 243 41 c 0
323 366 m 1
 455 366 l 2
 569 366 646 468 646 553 c 0
 646 584 636 652 552 652 c 2
 434 652 l 2
 401 652 394 652 385 616 c 2
 323 366 l 1
EndSplineSet
EndChar
StartChar: D
Encoding: 68 68 36
Width: 755
Flags: MW
LayerCount: 2
Fore
SplineSet
63 12 m 0
 63 31 74 31 90 31 c 0
 100 31 109 32 116 32 c 0
 160 34 165 44 172 73 c 2
 307 616 l 2
 311 630 311 632 311 635 c 0
 311 647 297 651 278 652 c 4
 270 652 262 652 253 652 c 0
 234 652 226 652 226 664 c 0
 226 683 237 683 253 683 c 2
 565 683 l 2
 694 683 775 581 775 438 c 0
 775 213 584 0 395 0 c 2
 88 0 l 2
 72 0 63 0 63 12 c 0
244 41 m 0
 244 34 244 31 275 31 c 2
 378 31 l 2
 458 31 529 73 578 130 c 0
 663 230 692 417 692 476 c 0
 692 607 613 652 532 652 c 2
 435 652 l 2
 402 652 395 651 386 616 c 2
 248 63 l 2
 247 57 244 47 244 41 c 0
EndSplineSet
EndChar
StartChar: F
Encoding: 70 70 38
Width: 652
Flags: MW
LayerCount: 2
Fore
SplineSet
62 12 m 0
 62 25 67 29 75 30 c 0
 79 31 84 31 89 31 c 0
 157 31 163 39 171 73 c 2
 305 609 l 2
 309 624 309 631 309 632 c 0
 309 639 309 646 279 648 c 0
 272 649 262 649 251 649 c 0
 231 649 224 649 224 662 c 0
 224 680 234 680 251 680 c 2
 706 680 l 2
 727 680 733 680 730 654 c 2
 707 477 l 2
 705 459 704 455 690 455 c 0
 686 455 675 455 675 467 c 2
 676 483 l 1
 679 506 682 525 682 549 c 0
 682 618 660 649 553 649 c 2
 436 649 l 2
 403 649 396 648 388 615 c 2
 324 356 l 1
 402 356 l 2
 436 356 459 360 475 370 c 4
 498 384 508 410 519 452 c 0
 524 470 525 473 538 473 c 0
 541 473 553 473 553 462 c 0
 553 457 552 452 551 448 c 2
 496 228 l 2
 491 209 488 208 477 208 c 0
 473 208 462 208 462 220 c 0
 462 223 463 227 465 234 c 0
 469 250 473 266 473 283 c 0
 473 310 464 325 399 325 c 2
 316 325 l 1
 253 73 l 2
 249 58 249 56 249 52 c 0
 249 39 249 31 322 31 c 2
 332 31 l 2
 348 31 357 31 357 19 c 0
 357 0 345 0 336 0 c 0
 291 0 244 3 198 3 c 0
 158 3 116 0 76 0 c 0
 73 0 62 0 62 12 c 0
EndSplineSet
EndChar
StartChar: I
Encoding: 73 73 41
Width: 385
Flags: MW
LayerCount: 2
Fore
SplineSet
57 13 m 0
 57 25 61 29 70 30 c 4
 74 31 80 31 87 31 c 0
 154 31 163 39 171 72 c 2
 307 616 l 2
 308 619 310 632 310 635 c 0
 310 652 281 652 247 652 c 0
 240 652 234 652 230 653 c 0
 223 654 220 657 220 665 c 0
 220 683 232 683 239 683 c 0
 280 683 323 680 364 680 c 0
 405 680 447 683 487 683 c 0
 491 683 501 683 501 671 c 0
 501 659 497 655 488 653 c 0
 483 652 477 652 470 652 c 0
 401 652 395 643 387 611 c 2
 252 71 l 2
 248 56 248 50 248 49 c 0
 248 38 248 31 310 31 c 0
 317 31 322 31 326 31 c 0
 334 30 338 27 338 19 c 0
 338 0 325 0 318 0 c 0
 278 0 235 3 194 3 c 0
 153 3 111 0 71 0 c 0
 64 0 57 2 57 13 c 0
EndSplineSet
EndChar
StartChar: J
Encoding: 74 74 42
Width: 525
Flags: MW
LayerCount: 2
Fore
SplineSet
94 86 m 0
 94 163 153 163 156 163 c 0
 177 163 197 150 197 124 c 0
 197 99 175 65 137 65 c 0
 130 65 128 65 126 66 c 1
 134 25 169 0 210 0 c 0
 265 0 322 70 341 145 c 2
 457 611 l 2
 461 625 461 627 461 631 c 0
 461 646 453 647 431 650 c 0
 413 652 402 652 385 652 c 2
 373 652 l 2
 357 652 348 652 348 664 c 0
 348 683 360 683 369 683 c 0
 413 683 460 680 505 680 c 0
 510 680 514 680 519 680 c 4
 549 681 579 683 608 683 c 0
 616 683 622 680 622 671 c 0
 622 659 617 655 610 653 c 0
 606 652 601 652 596 652 c 0
 551 652 544 644 537 616 c 2
 420 144 l 2
 410 104 388 68 357 39 c 0
 317 2 265 -22 212 -22 c 0
 148 -22 94 18 94 86 c 0
EndSplineSet
EndChar
StartChar: K
Encoding: 75 75 43
Width: 768
Flags: MW
LayerCount: 2
Fore
SplineSet
62 12 m 0
 62 25 67 29 76 30 c 0
 80 31 84 31 89 31 c 0
 157 31 163 39 171 73 c 2
 306 616 l 2
 310 630 310 632 310 635 c 0
 310 648 293 651 271 652 c 0
 265 652 259 652 252 652 c 0
 233 652 225 652 225 664 c 0
 225 683 238 683 244 683 c 0
 283 683 324 680 364 680 c 0
 403 680 444 683 482 683 c 0
 489 683 496 681 496 670 c 0
 496 652 487 652 466 652 c 0
 459 652 453 652 447 652 c 0
 401 650 394 640 387 612 c 2
 308 293 l 1
 660 586 l 2
 676 599 693 614 693 632 c 0
 693 646 681 651 667 652 c 0
 662 652 653 653 653 664 c 0
 653 683 666 683 672 683 c 0
 706 683 744 680 779 680 c 0
 802 680 827 683 848 683 c 0
 855 683 859 678 859 671 c 0
 859 654 849 653 841 652 c 0
 775 646 707 589 684 570 c 2
 500 417 l 1
 631 70 l 2
 643 39 655 32 691 31 c 0
 700 31 709 31 709 19 c 0
 709 4 701 0 692 0 c 0
 663 0 631 3 601 3 c 0
 564 3 525 0 489 0 c 0
 482 0 475 2 475 13 c 0
 475 31 487 31 494 31 c 0
 507 31 545 32 545 64 c 0
 545 67 545 69 539 84 c 2
 435 363 l 1
 296 248 l 1
 261 104 l 2
 256 86 248 54 248 48 c 0
 248 39 248 31 306 31 c 0
 312 31 317 31 321 31 c 4
 330 30 333 27 333 18 c 0
 333 0 321 0 314 0 c 0
 275 0 234 3 194 3 c 0
 155 3 114 0 76 0 c 0
 73 0 62 0 62 12 c 0
EndSplineSet
EndChar
StartChar: M
Encoding: 77 77 45
Width: 896
Flags: MW
LayerCount: 2
Fore
SplineSet
66 12 m 0
 66 30 77 31 85 31 c 0
 112 32 136 37 154 52 c 0
 167 63 176 78 182 101 c 2
 310 616 l 2
 314 630 314 632 314 635 c 0
 314 649 297 651 274 652 c 0
 268 652 262 652 256 652 c 0
 237 652 229 652 229 664 c 0
 229 683 240 683 256 683 c 2
 389 683 l 2
 413 683 415 683 417 661 c 2
 473 100 l 1
 813 665 l 2
 824 683 827 683 849 683 c 2
 977 683 l 2
 994 683 1002 683 1002 670 c 0
 1002 652 993 652 972 652 c 0
 965 652 959 652 954 652 c 0
 930 651 916 647 908 641 c 0
 900 635 896 626 893 612 c 2
 758 71 l 2
 754 56 754 49 754 48 c 0
 754 39 754 31 812 31 c 0
 818 31 822 31 826 31 c 0
 835 30 839 27 839 18 c 0
 839 4 832 1 825 0 c 4
 823 0 821 0 820 0 c 0
 783 0 742 3 704 3 c 0
 666 3 627 0 590 0 c 0
 587 0 576 0 576 12 c 0
 576 25 581 29 590 30 c 0
 594 31 598 31 603 31 c 0
 671 31 677 39 685 73 c 2
 826 639 l 1
 825 639 l 1
 452 18 l 2
 446 7 441 0 428 0 c 0
 413 0 413 7 411 24 c 2
 350 630 l 1
 349 630 l 1
 216 99 l 2
 212 83 212 77 212 74 c 0
 212 59 214 33 271 31 c 0
 283 31 290 30 290 18 c 0
 290 0 278 0 272 0 c 0
 241 0 206 3 174 3 c 0
 143 3 109 0 79 0 c 0
 72 0 66 3 66 12 c 0
EndSplineSet
EndChar
StartChar: O
Encoding: 79 79 47
Width: 766
Flags: MW
LayerCount: 2
Fore
SplineSet
148 236 m 0
 148 468 355 705 560 705 c 0
 686 705 788 608 788 444 c 0
 788 291 704 145 591 58 c 4
 526 8 451 -22 378 -22 c 0
 242 -22 148 85 148 236 c 0
238 205 m 0
 238 86 294 4 385 4 c 0
 436 4 492 31 544 82 c 0
 569 107 593 138 614 174 c 0
 667 265 703 398 703 486 c 0
 703 620 631 680 553 680 c 0
 466 680 375 607 322 513 c 0
 252 391 238 251 238 205 c 0
EndSplineSet
EndChar
StartChar: P
Encoding: 80 80 48
Width: 678
Flags: MW
LayerCount: 2
Fore
SplineSet
63 12 m 0
 63 31 74 31 90 31 c 0
 96 31 101 31 106 31 c 4
 159 32 165 42 172 73 c 2
 307 616 l 2
 311 630 311 632 311 635 c 0
 311 647 297 651 278 652 c 0
 270 652 262 652 253 652 c 0
 234 652 226 652 226 664 c 0
 226 683 237 683 253 683 c 2
 553 683 l 2
 662 683 730 619 730 535 c 0
 730 438 637 352 534 325 c 0
 513 319 491 316 469 316 c 2
 314 316 l 1
 253 68 l 2
 249 54 249 52 249 48 c 0
 249 40 249 34 284 32 c 0
 290 32 298 31 307 31 c 0
 327 31 334 31 334 18 c 0
 334 0 322 0 315 0 c 0
 276 0 235 3 195 3 c 0
 156 3 115 0 77 0 c 0
 74 0 63 0 63 12 c 0
318 342 m 1
 444 342 l 2
 504 342 554 361 589 400 c 0
 608 422 621 458 630 490 c 0
 639 523 642 552 642 562 c 0
 642 626 591 652 521 652 c 2
 435 652 l 2
 402 652 395 652 386 616 c 2
 318 342 l 1
EndSplineSet
EndChar
StartChar: Q
Encoding: 81 81 49
Width: 766
Flags: MW
LayerCount: 2
Fore
SplineSet
148 236 m 0
 148 468 355 705 560 705 c 0
 686 705 788 608 788 444 c 0
 788 288 696 127 564 40 c 4
 544 27 524 15 502 6 c 1
 504 -85 528 -100 562 -100 c 0
 599 -100 649 -72 672 -2 c 0
 674 5 676 11 684 11 c 0
 690 11 695 6 695 -1 c 0
 695 -3 654 -194 538 -194 c 0
 480 -194 459 -157 459 -102 c 0
 459 -88 461 -59 469 -7 c 1
 448 -14 413 -22 378 -22 c 0
 242 -22 148 85 148 236 c 0
233 202 m 0
 233 130 256 48 327 15 c 1
 325 20 322 27 322 43 c 0
 322 91 364 148 419 148 c 0
 491 148 497 74 499 42 c 1
 660 144 704 392 704 480 c 0
 704 599 645 680 553 680 c 0
 479 680 394 625 333 532 c 0
 258 417 233 266 233 202 c 0
344 43 m 0
 344 3 374 3 385 3 c 0
 417 3 449 14 473 26 c 1
 474 34 474 46 474 54 c 0
 474 80 474 126 420 126 c 0
 376 126 344 79 344 43 c 0
EndSplineSet
EndChar
StartChar: T
Encoding: 84 84 52
Width: 715
Flags: MW
LayerCount: 2
Fore
SplineSet
175 463 m 0
 175 465 175 467 180 480 c 2
 239 659 l 2
 245 677 248 677 268 677 c 2
 781 677 l 2
 797 677 806 677 806 665 c 0
 806 661 806 656 805 652 c 2
 775 473 l 2
 772 455 770 452 757 452 c 0
 752 452 742 452 742 465 c 0
 742 467 742 469 744 480 c 0
 754 539 754 558 754 570 c 0
 754 632 731 646 627 646 c 0
 624 646 620 646 616 646 c 0
 600 646 581 646 575 644 c 0
 567 643 559 641 552 611 c 2
 418 73 l 2
 414 59 414 57 414 54 c 0
 414 40 419 36 447 33 c 0
 450 33 481 31 497 31 c 2
 512 31 l 2
 527 31 537 31 537 20 c 0
 537 0 525 0 516 0 c 0
 465 0 411 3 359 3 c 0
 348 3 337 3 326 3 c 4
 285 2 244 0 204 0 c 0
 199 0 187 0 187 12 c 0
 187 31 198 31 215 31 c 2
 231 31 l 2
 319 31 328 41 337 76 c 2
 471 613 l 2
 473 619 475 628 475 635 c 0
 475 642 475 646 452 646 c 2
 418 646 l 2
 289 646 261 625 214 484 c 1
 204 458 203 457 201 455 c 0
 198 452 194 452 190 452 c 0
 187 452 175 452 175 463 c 0
EndSplineSet
EndChar
StartChar: V
Encoding: 86 86 54
Width: 743
Flags: MW
LayerCount: 2
Fore
SplineSet
209 664 m 0
 209 683 222 683 227 683 c 0
 260 683 295 680 329 680 c 0
 367 680 407 683 444 683 c 0
 447 683 458 683 458 671 c 0
 458 652 447 652 433 652 c 0
 431 652 427 652 422 652 c 0
 403 651 370 645 370 621 c 1
 421 97 l 1
 710 580 l 2
 714 587 725 607 725 620 c 0
 725 644 701 651 685 652 c 0
 677 653 669 653 669 664 c 0
 669 683 681 683 687 683 c 0
 716 683 749 680 779 680 c 0
 804 680 831 683 855 683 c 0
 866 683 868 674 868 672 c 0
 868 653 857 653 849 652 c 0
 812 649 777 638 737 571 c 2
 394 -3 l 2
 383 -21 378 -22 366 -22 c 0
 364 -22 362 -22 360 -22 c 4
 350 -21 349 -14 347 2 c 2
 287 618 l 2
 286 630 285 639 278 644 c 0
 272 649 262 651 243 652 c 0
 240 652 237 652 233 652 c 0
 219 652 209 652 209 664 c 0
EndSplineSet
EndChar
StartChar: X
Encoding: 88 88 56
Width: 743
Flags: MW
LayerCount: 2
Fore
SplineSet
51 12 m 0
 51 13 52 30 63 31 c 0
 96 33 152 36 211 104 c 2
 419 341 l 1
 316 620 l 2
 309 638 305 648 273 651 c 0
 267 652 259 652 250 652 c 0
 236 652 226 652 226 664 c 0
 226 683 239 683 245 683 c 0
 278 683 313 680 347 680 c 0
 386 680 426 683 464 683 c 0
 471 683 478 681 478 670 c 0
 478 653 467 652 462 652 c 0
 425 649 405 630 405 623 c 0
 405 622 409 612 409 611 c 2
 482 412 l 1
 630 582 l 2
 648 603 651 614 651 622 c 0
 651 649 622 651 615 652 c 0
 612 652 603 653 603 664 c 0
 603 683 615 683 621 683 c 0
 654 683 691 680 725 680 c 0
 754 680 784 683 812 683 c 0
 818 683 825 680 825 671 c 0
 825 653 815 653 804 652 c 0
 728 647 691 606 667 580 c 1
 655 570 l 1
 492 383 l 1
 611 61 l 2
 618 42 622 31 676 31 c 0
 692 31 700 31 700 18 c 0
 700 0 688 0 682 0 c 0
 649 0 613 3 579 3 c 0
 541 3 501 0 463 0 c 0
 460 0 448 0 448 12 c 0
 448 27 457 30 464 31 c 0
 500 33 521 51 521 61 c 0
 521 64 519 69 518 73 c 2
 430 312 l 1
 238 93 l 5
 237 91 l 2
 236 89 235 87 233 85 c 0
 226 75 225 65 225 61 c 0
 225 51 230 34 260 31 c 0
 262 31 273 30 273 20 c 0
 273 0 259 0 254 0 c 0
 221 0 185 3 151 3 c 0
 122 3 91 0 63 0 c 0
 53 0 51 8 51 12 c 0
EndSplineSet
EndChar
StartChar: Y
Encoding: 89 89 57
Width: 743
Flags: MW
LayerCount: 2
Fore
SplineSet
202 664 m 0
 202 683 215 683 221 683 c 0
 254 683 291 680 325 680 c 0
 364 680 404 683 442 683 c 0
 446 683 456 683 456 671 c 0
 456 652 445 652 434 652 c 0
 431 652 426 652 420 652 c 0
 402 651 378 645 378 628 c 0
 378 627 378 625 382 615 c 2
 477 315 l 1
 696 582 l 2
 698 585 721 612 721 629 c 0
 721 645 707 651 690 652 c 0
 684 652 675 653 675 664 c 0
 675 683 687 683 693 683 c 0
 723 683 755 680 786 680 c 0
 811 680 838 683 862 683 c 0
 874 683 874 673 874 672 c 0
 874 653 864 653 855 652 c 0
 807 648 769 627 722 570 c 2
 486 283 l 2
 479 275 479 273 474 256 c 0
 464 214 455 181 443 133 c 0
 436 104 424 56 424 48 c 0
 424 37 435 33 452 32 c 4
 461 31 471 31 482 31 c 0
 501 31 509 31 509 19 c 0
 509 0 496 0 490 0 c 0
 452 0 410 3 371 3 c 0
 333 3 293 0 255 0 c 0
 252 0 241 0 241 12 c 0
 241 26 247 30 256 31 c 0
 259 31 262 31 266 31 c 0
 340 32 341 35 354 90 c 0
 359 109 400 268 400 273 c 0
 400 277 398 283 396 288 c 2
 290 622 l 2
 283 645 273 652 226 652 c 0
 212 652 202 652 202 664 c 0
EndSplineSet
EndChar
StartChar: Z
Encoding: 90 90 58
Width: 613
Flags: MW
LayerCount: 2
Fore
SplineSet
80 9 m 0
 80 21 86 28 91 34 c 2
 608 652 l 1
 468 652 l 2
 391 652 342 632 309 601 c 0
 274 568 256 523 241 476 c 0
 236 462 235 458 223 458 c 0
 222 458 221 458 219 458 c 4
 214 459 208 461 208 469 c 0
 208 470 210 480 211 482 c 2
 265 663 l 2
 271 682 272 683 294 683 c 2
 681 683 l 2
 698 683 704 683 704 674 c 0
 704 669 703 661 692 648 c 2
 177 34 l 1
 324 34 l 2
 498 34 532 127 569 242 c 0
 577 266 578 267 589 267 c 0
 595 267 605 267 605 255 c 0
 605 254 601 241 600 239 c 2
 532 18 l 2
 526 0 525 0 503 0 c 2
 103 0 l 2
 87 0 80 0 80 9 c 0
EndSplineSet
EndChar
StartChar: bracketleft
Encoding: 91 91 59
Width: 307
Flags: MW
LayerCount: 2
Fore
SplineSet
63 -236 m 0
 63 -232 64 -227 65 -223 c 2
 298 709 l 2
 307 743 306 750 329 750 c 2
 421 750 l 2
 431 750 443 749 443 739 c 0
 443 729 431 727 420 727 c 2
 365 727 l 1
 127 -227 l 1
 174 -227 l 2
 186 -227 198 -228 198 -238 c 0
 198 -249 186 -250 177 -250 c 2
 85 -250 l 2
 72 -250 63 -248 63 -236 c 0
EndSplineSet
EndChar
StartChar: backslash
Encoding: 92 92 60
Width: 511
Flags: MW
LayerCount: 2
Fore
SplineSet
262 722 m 1
 262 732 l 2
 262 739 264 748 272 748 c 0
 283 748 284 735 285 723 c 2
 373 -223 l 1
 373 -233 l 2
 373 -245 367 -248 363 -248 c 0
 352 -248 351 -235 350 -223 c 2
 262 722 l 1
EndSplineSet
EndChar
StartChar: bracketright
Encoding: 93 93 61
Width: 307
Flags: MW
LayerCount: 2
Fore
SplineSet
-11 -239 m 0
 -11 -228 0 -227 21 -227 c 2
 67 -227 l 1
 305 727 l 1
 256 727 l 2
 245 727 233 729 233 738 c 0
 233 749 246 750 255 750 c 2
 347 750 l 2
 360 750 369 748 369 736 c 0
 369 732 367 728 367 724 c 2
 133 -210 l 2
 125 -243 126 -250 103 -250 c 2
 10 -250 l 2
 1 -250 -11 -249 -11 -239 c 0
EndSplineSet
EndChar
StartChar: asciicircum
Encoding: 94 94 62
Width: 613
Flags: MW
LayerCount: 2
Fore
SplineSet
248 476 m 0
 248 485 257 491 269 499 c 0
 450 624 451 626 460 626 c 2
 461 626 l 2
 464 626 467 625 486 607 c 0
 503 590 533 558 589 498 c 0
 595 492 603 485 603 477 c 0
 603 470 595 461 587 461 c 0
 581 461 575 464 560 478 c 4
 542 494 512 523 453 575 c 1
 452 575 l 1
 446 572 338 504 281 469 c 0
 275 466 268 461 262 461 c 0
 253 461 248 470 248 476 c 0
EndSplineSet
EndChar
StartChar: underscore
Encoding: 95 95 63
Width: 766
Flags: MW
LayerCount: 2
Fore
SplineSet
50 -213 m 0
 50 -205 54 -193 79 -193 c 2
 580 -193 l 2
 605 -193 609 -205 609 -213 c 0
 609 -233 584 -233 581 -233 c 2
 79 -233 l 2
 54 -233 50 -221 50 -213 c 0
EndSplineSet
EndChar
StartChar: grave
Encoding: 96 96 64
Width: 511
Flags: MW
LayerCount: 2
Fore
SplineSet
274 614 m 0
 274 632 292 650 310 651 c 1
 323 651 328 650 348 623 c 4
 358 610 371 591 391 563 c 0
 404 544 421 525 421 515 c 0
 421 505 411 499 404 499 c 0
 398 499 393 503 371 521 c 0
 340 546 319 563 304 575 c 0
 280 595 274 603 274 614 c 0
EndSplineSet
EndChar
StartChar: a
Encoding: 97 97 65
Width: 511
Flags: MW
LayerCount: 2
Fore
SplineSet
108 144 m 0
 108 290 226 442 337 442 c 0
 369 442 401 426 420 383 c 1
 421 388 428 422 460 422 c 0
 470 422 487 417 487 396 c 0
 487 391 487 389 483 375 c 2
 415 103 l 2
 408 75 408 59 408 52 c 0
 408 38 408 11 434 11 c 0
 468 11 487 74 501 130 c 0
 507 152 508 153 520 153 c 0
 522 153 524 153 526 153 c 0
 531 152 535 150 535 143 c 0
 535 141 523 83 505 45 c 0
 496 27 485 10 470 0 c 0
 460 -7 447 -11 432 -11 c 0
 397 -11 360 10 349 59 c 1
 309 10 265 -11 229 -11 c 0
 154 -11 108 59 108 144 c 0
176 100 m 0
 176 70 184 11 231 11 c 0
 267 11 305 44 330 77 c 4
 344 95 353 113 356 124 c 2
 403 313 l 2
 405 319 406 324 406 326 c 0
 406 368 381 420 337 420 c 0
 296 420 250 370 225 309 c 0
 207 267 176 150 176 100 c 0
EndSplineSet
EndChar
StartChar: b
Encoding: 98 98 66
Width: 460
Flags: MW
LayerCount: 2
Fore
SplineSet
115 141 m 0
 115 179 125 220 126 223 c 2
 203 532 l 4
 225 618 l 2
 225 619 228 632 228 635 c 0
 228 645 226 652 178 652 c 0
 164 652 154 652 154 663 c 0
 154 682 165 683 177 684 c 2
 276 692 l 2
 279 693 289 694 292 694 c 0
 300 694 306 691 306 682 c 0
 306 680 304 672 303 669 c 2
 233 389 l 1
 267 421 301 442 339 442 c 0
 399 442 459 393 459 286 c 0
 459 139 342 -11 230 -11 c 0
 157 -11 115 57 115 141 c 0
172 107 m 0
 172 32 205 11 230 11 c 0
 281 11 324 81 336 106 c 0
 365 170 392 289 392 331 c 0
 392 363 382 420 337 420 c 0
 299 420 261 386 232 346 c 0
 217 326 217 324 210 300 c 0
 198 252 189 218 183 192 c 0
 175 155 172 133 172 107 c 0
EndSplineSet
EndChar
StartChar: d
Encoding: 100 100 68
Width: 511
Flags: MW
LayerCount: 2
Fore
SplineSet
108 144 m 0
 108 290 226 442 337 442 c 0
 379 442 406 415 421 384 c 1
 479 618 l 2
 479 619 482 632 482 635 c 0
 482 645 480 652 432 652 c 0
 418 652 408 652 408 663 c 0
 408 682 419 683 431 684 c 2
 530 692 l 2
 533 693 543 694 546 694 c 0
 554 694 560 691 560 682 c 0
 560 680 558 672 557 669 c 2
 414 98 l 2
 408 74 408 59 408 52 c 0
 408 38 408 11 434 11 c 0
 468 11 487 74 501 130 c 0
 506 148 507 152 514 153 c 4
 516 153 518 153 520 153 c 0
 527 153 535 153 535 143 c 0
 535 143 535 140 534 136 c 0
 530 119 519 76 505 45 c 0
 490 14 469 -11 432 -11 c 0
 397 -11 360 10 349 59 c 1
 309 10 265 -11 229 -11 c 0
 154 -11 108 59 108 144 c 0
176 100 m 0
 176 70 184 11 231 11 c 0
 269 11 311 50 335 84 c 0
 345 99 353 113 355 122 c 2
 403 314 l 2
 405 320 406 324 406 327 c 0
 406 346 396 375 386 391 c 0
 368 419 345 420 337 420 c 0
 296 420 250 370 225 309 c 0
 207 267 176 150 176 100 c 0
EndSplineSet
EndChar
StartChar: g
Encoding: 103 103 71
Width: 460
Flags: MW
LayerCount: 2
Fore
SplineSet
53 -147 m 0
 53 -108 84 -94 102 -94 c 0
 128 -94 137 -113 137 -126 c 0
 137 -143 125 -164 105 -172 c 1
 132 -183 163 -183 176 -183 c 0
 191 -183 231 -183 271 -136 c 0
 299 -102 305 -81 317 -31 c 2
 338 53 l 1
 326 41 283 0 232 0 c 0
 157 0 110 68 110 153 c 0
 110 294 225 442 337 442 c 0
 380 442 407 414 421 385 c 1
 425 414 448 422 460 422 c 0
 470 422 487 417 487 396 c 0
 487 392 487 390 483 375 c 2
 374 -63 l 2
 363 -106 335 -146 293 -172 c 0
 260 -193 220 -205 174 -205 c 0
 90 -205 53 -187 53 -147 c 0
178 109 m 0
 178 98 180 22 234 22 c 0
 265 22 299 47 323 75 c 4
 341 96 355 118 358 132 c 2
 403 314 l 1
 406 328 l 1
 406 336 397 420 337 420 c 0
 298 420 254 375 229 321 c 0
 208 274 178 157 178 109 c 0
EndSplineSet
EndChar
StartChar: h
Encoding: 104 104 72
Width: 511
Flags: MW
LayerCount: 2
Fore
SplineSet
75 15 m 0
 75 17 76 26 77 28 c 2
 225 618 l 2
 225 619 228 632 228 635 c 0
 228 645 226 652 178 652 c 0
 164 652 154 652 154 663 c 0
 154 682 165 683 177 684 c 2
 276 692 l 2
 279 693 289 694 292 694 c 0
 300 694 306 691 306 682 c 0
 306 680 304 672 303 669 c 2
 230 377 l 1
 261 407 296 442 363 442 c 0
 412 442 467 420 467 338 c 0
 467 280 426 168 406 115 c 0
 398 91 388 65 388 40 c 0
 388 26 389 11 410 11 c 0
 468 11 495 109 503 136 c 0
 507 151 507 153 520 153 c 0
 522 153 523 153 525 153 c 4
 530 153 535 151 535 143 c 0
 535 138 501 -11 408 -11 c 0
 360 -11 332 25 332 69 c 0
 332 90 335 99 348 133 c 1
 362 173 406 292 406 354 c 0
 406 375 404 420 360 420 c 0
 290 420 247 357 227 325 c 1
 209 293 208 291 199 255 c 0
 194 233 188 212 183 190 c 0
 176 162 144 32 140 17 c 0
 137 6 124 -11 103 -11 c 0
 84 -11 75 4 75 15 c 0
EndSplineSet
EndChar
StartChar: i
Encoding: 105 105 73
Width: 306
Flags: MW
LayerCount: 2
Fore
SplineSet
244 608 m 0
 244 636 271 656 292 656 c 0
 306 656 326 648 326 623 c 0
 326 594 298 575 278 575 c 0
 264 575 244 583 244 608 c 0
83 288 m 0
 83 293 117 442 211 442 c 0
 248 442 286 417 286 362 c 0
 286 343 284 335 274 306 c 2
 210 135 l 2
 197 98 184 65 184 39 c 0
 184 12 198 11 206 11 c 0
 230 11 250 28 264 50 c 0
 284 80 294 119 299 136 c 0
 303 151 303 153 316 153 c 0
 318 153 320 153 322 153 c 0
 327 152 331 150 331 143 c 0
 331 139 298 -11 204 -11 c 0
 152 -11 128 30 128 69 c 0
 128 89 132 100 146 138 c 0
 158 171 170 204 183 237 c 1
 213 320 l 2
 220 339 231 368 231 392 c 0
 231 415 220 420 209 420 c 0
 151 420 125 327 116 294 c 0
 112 280 111 278 98 278 c 0
 97 278 95 278 93 278 c 4
 88 279 83 281 83 288 c 0
EndSplineSet
EndChar
StartChar: j
Encoding: 106 106 74
Width: 306
Flags: MW
LayerCount: 2
Fore
SplineSet
-35 -147 m 0
 -35 -108 -4 -94 14 -94 c 0
 40 -94 49 -113 49 -126 c 0
 49 -131 46 -163 11 -174 c 1
 13 -175 27 -183 45 -183 c 0
 107 -183 146 -105 159 -52 c 2
 254 329 l 2
 258 345 261 364 261 380 c 0
 261 398 259 420 234 420 c 0
 182 420 142 358 117 295 c 0
 111 279 111 278 98 278 c 0
 96 278 94 278 92 278 c 4
 88 279 83 281 83 288 c 0
 83 295 136 442 235 442 c 0
 291 442 321 399 321 352 c 0
 321 338 317 322 316 319 c 2
 223 -55 l 2
 217 -80 205 -104 190 -125 c 0
 154 -173 99 -205 46 -205 c 0
 2 -205 -35 -184 -35 -147 c 0
274 608 m 0
 274 632 298 656 323 656 c 0
 335 656 357 650 357 622 c 0
 357 597 332 575 308 575 c 0
 284 575 274 595 274 608 c 0
EndSplineSet
EndChar
StartChar: k
Encoding: 107 107 75
Width: 460
Flags: MW
LayerCount: 2
Fore
SplineSet
75 15 m 0
 75 17 76 26 77 28 c 2
 225 618 l 2
 225 619 228 632 228 635 c 0
 228 644 226 651 187 652 c 0
 184 652 181 652 178 652 c 0
 164 652 154 652 154 663 c 0
 154 682 165 683 177 684 c 2
 276 692 l 2
 279 693 289 694 292 694 c 0
 300 694 306 691 306 682 c 0
 306 680 304 672 303 669 c 2
 201 261 l 1
 236 278 252 294 309 360 c 0
 343 400 386 442 439 442 c 0
 484 442 502 408 502 382 c 0
 502 344 474 326 452 326 c 0
 426 326 417 345 417 358 c 0
 417 366 422 401 464 408 c 1
 463 409 456 420 437 420 c 0
 387 420 348 374 296 315 c 0
 271 287 253 268 225 249 c 9
 225 249 l 21
 288 240 358 213 358 145 c 0
 358 132 358 131 353 110 c 0
 352 105 345 77 345 54 c 0
 345 34 347 11 374 11 c 0
 418 11 437 79 450 130 c 0
 456 152 457 153 469 153 c 0
 476 153 484 153 484 143 c 0
 484 140 470 79 448 41 c 0
 437 22 415 -11 371 -11 c 0
 334 -11 287 14 287 86 c 0
 287 96 287 103 291 120 c 0
 294 134 294 138 294 145 c 0
 294 203 230 224 193 229 c 1
 142 26 l 2
 140 17 133 -11 103 -11 c 0
 84 -11 75 4 75 15 c 0
EndSplineSet
EndChar
StartChar: p
Encoding: 112 112 80
Width: 511
Flags: MW
LayerCount: 2
Fore
SplineSet
14 -182 m 0
 14 -163 26 -163 35 -163 c 0
 55 -162 67 -161 75 -156 c 0
 82 -151 86 -143 90 -128 c 2
 204 330 l 2
 211 358 211 374 211 380 c 0
 211 391 211 420 185 420 c 0
 154 420 135 371 117 301 c 0
 112 279 111 278 98 278 c 0
 93 278 83 278 83 288 c 0
 83 288 83 293 85 299 c 4
 90 318 101 359 115 389 c 1
 131 419 151 442 187 442 c 0
 212 442 257 430 269 372 c 1
 298 406 341 442 390 442 c 0
 450 442 510 393 510 286 c 0
 510 137 391 -11 282 -11 c 0
 230 -11 205 30 198 47 c 1
 162 -99 l 2
 158 -115 151 -141 151 -147 c 0
 151 -157 151 -163 202 -163 c 0
 216 -163 226 -163 226 -175 c 0
 226 -194 213 -194 207 -194 c 0
 176 -194 142 -191 110 -191 c 0
 82 -191 53 -194 26 -194 c 0
 19 -194 14 -189 14 -182 c 0
213 104 m 0
 213 96 223 11 281 11 c 0
 332 11 375 81 387 106 c 0
 416 170 443 289 443 331 c 0
 443 363 433 420 388 420 c 0
 347 420 303 376 279 340 c 0
 271 327 265 316 263 307 c 2
 256 278 l 1
 216 118 l 2
 214 110 213 107 213 104 c 0
EndSplineSet
EndChar
StartChar: q
Encoding: 113 113 81
Width: 460
Flags: MW
LayerCount: 2
Fore
SplineSet
108 144 m 0
 108 290 226 442 337 442 c 0
 385 442 411 407 423 378 c 1
 439 406 475 441 486 441 c 0
 489 441 497 439 497 430 c 0
 497 428 495 420 494 417 c 2
 461 286 l 1
 357 -129 l 2
 356 -135 354 -140 354 -147 c 0
 354 -157 354 -163 405 -163 c 0
 419 -163 429 -163 429 -175 c 0
 429 -194 416 -194 410 -194 c 0
 378 -194 342 -191 309 -191 c 0
 304 -191 299 -191 294 -191 c 0
 266 -192 236 -194 209 -194 c 0
 202 -194 196 -191 196 -182 c 0
 196 -163 207 -163 220 -163 c 0
 254 -162 271 -161 280 -153 c 4
 288 -146 291 -135 296 -115 c 2
 335 42 l 1
 307 15 270 -11 229 -11 c 0
 154 -11 108 59 108 144 c 0
176 100 m 0
 176 70 184 11 231 11 c 0
 263 11 298 38 322 67 c 0
 339 87 352 109 355 122 c 2
 403 314 l 2
 405 320 406 324 406 327 c 0
 406 346 396 375 386 391 c 0
 368 419 345 420 337 420 c 0
 296 420 250 370 225 309 c 0
 207 267 176 150 176 100 c 0
EndSplineSet
EndChar
StartChar: r
Encoding: 114 114 82
Width: 421
Flags: MW
LayerCount: 2
Fore
SplineSet
83 288 m 0
 83 290 96 349 115 389 c 1
 126 410 139 427 158 436 c 0
 166 440 176 442 187 442 c 0
 220 442 259 423 270 370 c 1
 286 392 322 442 391 442 c 0
 424 442 489 431 489 379 c 0
 489 340 458 326 440 326 c 0
 414 326 405 345 405 358 c 0
 405 363 408 395 443 406 c 1
 423 420 395 420 390 420 c 0
 321 420 279 338 264 303 c 4
 260 294 258 289 258 288 c 2
 193 26 l 2
 191 18 184 -11 154 -11 c 0
 134 -11 126 4 126 15 c 0
 126 18 127 23 129 29 c 2
 204 329 l 2
 208 345 211 364 211 380 c 0
 211 391 211 420 185 420 c 0
 154 420 135 371 117 301 c 0
 115 291 113 285 111 282 c 0
 108 278 105 278 98 278 c 0
 97 278 95 278 94 278 c 0
 89 278 83 280 83 288 c 0
EndSplineSet
EndChar
StartChar: s
Encoding: 115 115 83
Width: 408
Flags: MW
LayerCount: 2
Fore
SplineSet
76 86 m 0
 76 131 104 148 127 148 c 0
 148 148 161 135 161 116 c 0
 161 114 161 72 110 67 c 1
 126 16 184 11 206 11 c 0
 309 11 336 91 336 123 c 0
 336 177 291 187 247 197 c 0
 235 200 216 204 198 214 c 4
 175 227 154 251 154 294 c 0
 154 346 195 442 312 442 c 0
 378 442 419 403 419 357 c 0
 419 314 393 302 376 302 c 0
 352 302 346 319 346 330 c 0
 346 340 354 367 386 371 c 1
 375 410 338 420 311 420 c 0
 231 420 210 352 210 328 c 0
 210 285 246 277 274 271 c 0
 289 268 310 263 330 254 c 0
 363 239 393 211 393 157 c 0
 393 111 355 -11 205 -11 c 0
 134 -11 76 25 76 86 c 0
EndSplineSet
EndChar
StartChar: t
Encoding: 116 116 84
Width: 332
Flags: MW
LayerCount: 2
Fore
SplineSet
91 412 m 0
 91 431 102 431 119 431 c 2
 204 431 l 1
 243 590 l 2
 247 605 257 626 282 626 c 0
 292 626 309 621 309 600 c 0
 309 595 309 593 305 579 c 2
 268 431 l 1
 348 431 l 2
 364 431 373 431 373 419 c 0
 373 400 362 400 345 400 c 2
 260 400 l 1
 186 103 l 2
 179 75 179 59 179 52 c 0
 179 36 179 11 206 11 c 0
 263 11 303 86 321 134 c 1
 329 152 329 153 341 153 c 0
 343 153 346 153 348 153 c 4
 352 152 356 150 356 143 c 0
 356 138 305 -11 204 -11 c 0
 152 -11 119 29 119 79 c 0
 119 93 123 109 124 113 c 2
 196 400 l 1
 116 400 l 2
 100 400 91 400 91 412 c 0
EndSplineSet
EndChar
StartChar: v
Encoding: 118 118 86
Width: 460
Flags: MW
LayerCount: 2
Fore
SplineSet
83 288 m 0
 83 294 118 442 211 442 c 0
 254 442 287 411 287 361 c 0
 287 342 281 327 276 311 c 0
 249 239 217 152 217 94 c 0
 217 61 228 11 282 11 c 0
 397 11 444 262 444 290 c 0
 444 311 441 343 417 369 c 0
 411 376 404 383 404 396 c 0
 404 419 429 442 452 442 c 0
 481 442 493 411 493 376 c 0
 493 350 447 -11 279 -11 c 0
 220 -11 156 18 156 109 c 0
 156 156 176 216 207 301 c 0
 221 340 231 367 231 391 c 0
 231 417 220 420 209 420 c 0
 151 420 124 325 116 294 c 0
 112 280 111 278 98 278 c 0
 93 278 83 278 83 288 c 0
EndSplineSet
EndChar
StartChar: w
Encoding: 119 119 87
Width: 664
Flags: MW
LayerCount: 2
Fore
SplineSet
83 288 m 0
 83 294 118 442 211 442 c 0
 254 442 287 411 287 361 c 0
 287 342 282 327 275 308 c 0
 244 226 218 152 218 98 c 0
 218 85 218 11 288 11 c 0
 341 11 372 94 372 105 c 0
 372 108 372 111 372 115 c 4
 373 128 375 146 380 168 c 2
 437 396 l 2
 439 404 446 431 475 431 c 0
 495 431 503 416 503 405 c 0
 503 401 493 361 487 339 c 2
 445 171 l 2
 434 127 433 103 433 94 c 0
 433 52 449 11 499 11 c 0
 545 11 577 52 599 104 c 0
 612 135 633 204 643 252 c 0
 646 267 648 280 648 290 c 0
 648 311 645 343 621 369 c 0
 615 376 608 383 608 396 c 0
 608 419 633 442 656 442 c 0
 685 442 697 411 697 376 c 0
 697 323 658 169 628 101 c 1
 598 30 556 -11 496 -11 c 0
 437 -11 397 16 382 53 c 9
 382 53 l 17
 350 0 316 -11 285 -11 c 0
 268 -11 223 -8 191 20 c 0
 165 44 157 78 157 112 c 0
 157 139 157 165 207 301 c 0
 221 340 231 367 231 391 c 0
 231 417 220 420 209 420 c 0
 151 420 124 325 116 294 c 0
 112 280 111 278 98 278 c 0
 93 278 83 278 83 288 c 0
EndSplineSet
EndChar
StartChar: x
Encoding: 120 120 88
Width: 463
Flags: MW
LayerCount: 2
Fore
SplineSet
53 51 m 0
 53 84 78 105 103 105 c 0
 116 105 137 99 137 73 c 0
 137 58 128 33 98 25 c 1
 115 11 139 11 142 11 c 0
 202 11 223 91 239 156 c 0
 250 202 251 206 262 247 c 0
 271 284 283 333 283 357 c 0
 283 397 264 420 235 420 c 0
 195 420 143 381 116 295 c 0
 111 279 111 278 98 278 c 0
 96 278 94 278 92 278 c 4
 88 279 83 281 83 288 c 0
 83 311 137 442 237 442 c 0
 262 442 311 434 333 374 c 1
 343 393 376 442 431 442 c 0
 460 442 518 430 518 379 c 0
 518 340 487 326 469 326 c 0
 443 326 434 345 434 358 c 0
 434 359 434 396 474 406 c 1
 458 420 433 420 430 420 c 0
 383 420 356 365 342 313 c 0
 334 280 319 218 308 176 c 0
 300 142 289 99 289 75 c 0
 289 23 316 11 336 11 c 0
 378 11 428 50 455 136 c 0
 460 152 461 153 473 153 c 0
 475 153 477 153 479 153 c 0
 484 152 488 150 488 143 c 0
 488 123 437 -11 334 -11 c 0
 308 -11 259 0 239 57 c 9
 239 57 l 17
 221 28 186 -11 141 -11 c 0
 95 -11 53 12 53 51 c 0
EndSplineSet
EndChar
StartChar: z
Encoding: 122 122 90
Width: 408
Flags: MW
LayerCount: 2
Fore
SplineSet
62 -1 m 0
 62 1 64 5 67 11 c 0
 81 36 121 93 166 138 c 2
 330 301 l 2
 346 317 355 328 370 345 c 1
 355 345 344 345 311 360 c 0
 289 370 271 378 251 378 c 0
 214 378 185 353 177 331 c 0
 172 319 171 317 159 317 c 0
 151 317 144 319 144 328 c 0
 144 348 187 442 261 442 c 0
 293 442 310 419 322 403 c 0
 341 377 351 367 369 367 c 0
 385 367 398 372 431 429 c 0
 435 437 437 440 441 441 c 4
 443 442 446 442 450 442 c 0
 456 442 464 442 464 432 c 0
 464 430 461 423 456 414 c 0
 440 386 401 332 357 289 c 2
 212 146 l 2
 184 118 163 93 156 85 c 1
 161 86 169 86 174 86 c 0
 194 86 206 82 236 69 c 0
 256 60 272 53 292 53 c 0
 295 53 298 53 301 53 c 0
 342 57 384 90 401 137 c 0
 405 150 406 153 418 153 c 0
 421 153 433 153 433 143 c 0
 433 119 379 -11 282 -11 c 0
 251 -11 236 8 220 28 c 1
 202 53 194 64 172 64 c 0
 134 64 107 19 93 -2 c 0
 89 -9 88 -11 77 -11 c 0
 75 -11 73 -11 71 -11 c 0
 66 -10 62 -8 62 -1 c 0
EndSplineSet
EndChar
StartChar: braceleft
Encoding: 123 123 91
Width: 511
Flags: MW
LayerCount: 2
Fore
SplineSet
155 249 m 0
 155 264 174 259 201 267 c 0
 246 279 294 314 312 363 c 1
 326 397 371 613 387 645 c 0
 424 722 525 750 586 750 c 0
 600 750 603 743 603 739 c 0
 603 722 582 733 540 717 c 0
 452 684 440 610 438 600 c 0
 376 352 379 363 374 352 c 0
 351 297 299 267 238 249 c 1
 299 228 322 190 322 151 c 0
 322 114 255 -111 255 -145 c 0
 255 -225 348 -228 352 -229 c 0
 358 -232 360 -240 356 -245 c 0
 352 -249 345 -250 339 -250 c 0
 295 -250 191 -229 191 -143 c 0
 191 -102 258 113 258 154 c 0
 258 196 228 230 182 237 c 0
 172 239 155 238 155 249 c 0
EndSplineSet
EndChar
StartChar: bar
Encoding: 124 124 92
Width: 307
Flags: MW
LayerCount: 2
Fore
SplineSet
76 -228 m 0
 76 -222 78 -215 79 -210 c 2
 312 720 l 2
 313 725 316 749 335 749 c 0
 341 749 354 744 354 727 c 0
 354 721 353 720 314 564 c 2
 119 -218 l 2
 116 -228 112 -249 95 -249 c 0
 83 -249 76 -239 76 -228 c 0
EndSplineSet
EndChar
StartChar: braceright
Encoding: 125 125 93
Width: 511
Flags: MW
LayerCount: 2
Fore
SplineSet
32 -239 m 0
 32 -222 53 -233 94 -217 c 0
 183 -184 194 -110 197 -100 c 0
 259 148 256 137 261 148 c 0
 284 203 335 232 397 251 c 1
 362 262 313 290 313 349 c 0
 313 388 380 608 380 644 c 0
 380 725 285 728 283 729 c 0
 276 732 274 740 279 745 c 0
 282 748 286 750 290 750 c 4
 292 750 293 750 295 750 c 0
 340 750 444 728 444 642 c 0
 444 605 377 383 377 346 c 0
 377 296 416 269 453 263 c 0
 462 261 480 262 480 250 c 0
 480 236 458 240 433 233 c 0
 385 220 341 186 323 138 c 0
 314 115 310 90 261 -104 c 0
 255 -127 247 -172 187 -210 c 0
 142 -239 88 -249 56 -250 c 0
 54 -250 51 -250 49 -250 c 0
 34 -250 32 -243 32 -239 c 0
EndSplineSet
EndChar
StartChar: asciitilde
Encoding: 126 126 94
Width: 613
Flags: MW
LayerCount: 2
Fore
SplineSet
248 577 m 0
 248 580 252 586 260 595 c 4
 284 622 341 668 390 668 c 0
 455 668 489 602 542 602 c 0
 596 602 643 657 656 664 c 0
 663 668 672 664 672 656 c 0
 672 649 665 644 661 639 c 0
 636 615 583 566 530 566 c 0
 465 566 432 632 376 632 c 0
 320 632 274 568 257 568 c 0
 251 568 248 573 248 577 c 0
EndSplineSet
EndChar
StartChar: exclamdown
Encoding: 161 161 100
Width: 307
Flags: MW
LayerCount: 2
Fore
SplineSet
57 -176 m 0
 57 -163 61 -153 65 -143 c 2
 204 281 l 2
 208 291 211 308 221 312 c 0
 225 313 228 314 232 313 c 4
 238 312 242 307 242 299 c 0
 242 290 239 277 236 260 c 2
 167 -149 l 2
 165 -159 164 -170 159 -179 c 0
 143 -211 113 -216 101 -216 c 0
 76 -216 57 -199 57 -176 c 0
211 437 m 0
 211 467 241 500 275 500 c 0
 301 500 318 480 318 457 c 0
 318 427 288 394 254 394 c 0
 230 394 211 411 211 437 c 0
EndSplineSet
EndChar
StartChar: cent
Encoding: 162 162 101
Width: 511
Flags: MW
LayerCount: 2
Fore
SplineSet
103 162 m 0
 103 290 221 436 377 447 c 1
 395 528 398 533 411 533 c 0
 421 533 425 529 425 520 c 0
 425 507 417 484 408 447 c 1
 512 436 535 391 535 353 c 0
 535 310 506 293 485 293 c 0
 468 293 451 306 451 326 c 0
 451 335 457 369 500 374 c 1
 481 405 451 418 402 422 c 1
 300 14 l 1
 373 21 422 63 451 110 c 0
 454 116 457 121 462 125 c 0
 465 127 469 129 474 129 c 0
 476 129 478 128 480 128 c 0
 485 127 487 123 487 119 c 0
 487 116 486 112 484 108 c 0
 477 96 464 75 442 54 c 0
 411 24 363 -6 294 -11 c 1
 293 -11 l 1
 283 -60 277 -81 272 -90 c 0
 268 -97 264 -97 259 -97 c 0
 249 -97 246 -93 246 -84 c 0
 246 -71 254 -47 262 -10 c 1
 171 -2 103 63 103 162 c 0
178 142 m 0
 178 122 180 34 269 16 c 1
 284 78 l 29
 370 421 l 1
 347 416 326 408 308 397 c 0
 293 388 281 378 269 366 c 0
 229 326 203 273 190 224 c 0
 182 193 178 164 178 142 c 0
EndSplineSet
EndChar
StartChar: sterling
Encoding: 163 163 102
Width: 769
Flags: MW
LayerCount: 2
Fore
SplineSet
87 38 m 0
 87 79 139 139 217 139 c 0
 235 139 254 135 276 127 c 1
 287 156 299 208 330 332 c 1
 276 332 l 2
 260 332 255 338 255 345 c 0
 255 350 258 356 261 359 c 0
 265 362 272 363 279 363 c 2
 338 363 l 1
 347 402 380 532 388 554 c 0
 423 643 504 707 582 707 c 0
 651 707 697 654 697 574 c 0
 697 494 665 481 643 481 c 0
 624 481 609 494 609 513 c 0
 609 530 622 561 660 561 c 0
 662 561 664 561 666 560 c 1
 666 566 667 571 667 577 c 0
 667 643 633 684 582 684 c 0
 556 684 531 671 508 649 c 0
 487 628 468 599 456 564 c 0
 441 523 421 429 403 363 c 1
 483 363 l 2
 493 363 504 362 504 350 c 0
 504 332 487 332 473 332 c 2
 395 332 l 1
 391 313 354 164 348 147 c 0
 342 130 333 115 325 99 c 1
 366 73 411 31 468 31 c 0
 531 31 572 91 585 124 c 0
 590 136 590 148 605 148 c 0
 607 148 608 147 610 147 c 4
 615 146 619 142 619 136 c 0
 619 111 563 -10 452 -11 c 0
 390 -11 349 23 297 61 c 1
 296 61 l 1
 263 25 210 -11 153 -11 c 0
 114 -11 87 8 87 38 c 0
125 38 m 0
 125 22 137 12 155 12 c 0
 175 12 220 26 256 84 c 1
 239 91 220 97 200 97 c 0
 155 97 125 61 125 38 c 0
EndSplineSet
EndChar
StartChar: currency
Encoding: 164 164 106
Width: 779
Flags: MW
LayerCount: 2
Fore
SplineSet
60 -26 m 0
 60 -20 61 -17 71 -8 c 4
 86 5 119 31 194 91 c 1
 194 92 l 1
 169 132 162 176 162 212 c 0
 162 313 220 412 289 470 c 1
 214 569 212 568 212 580 c 0
 212 591 221 599 231 599 c 0
 238 599 244 595 254 582 c 0
 266 567 285 540 319 495 c 1
 321 495 l 1
 375 536 450 565 525 565 c 0
 590 565 651 544 698 495 c 1
 746 530 789 569 816 588 c 0
 826 595 833 599 838 599 c 0
 849 599 856 590 856 580 c 0
 856 571 850 565 834 552 c 0
 821 541 800 526 771 501 c 1
 722 463 l 1
 722 462 l 1
 747 422 755 378 755 342 c 0
 755 239 693 140 628 84 c 1
 703 -15 705 -15 705 -27 c 0
 705 -37 695 -45 686 -45 c 0
 676 -45 669 -37 664 -30 c 0
 657 -22 610 41 597 59 c 1
 536 17 468 -11 391 -11 c 0
 326 -11 265 10 219 59 c 1
 218 59 l 1
 142 -2 111 -28 96 -38 c 0
 86 -45 83 -45 79 -45 c 0
 68 -45 60 -36 60 -26 c 0
202 212 m 0
 202 102 281 29 391 29 c 0
 553 29 714 182 714 342 c 0
 714 453 634 525 525 525 c 0
 363 525 202 372 202 212 c 0
EndSplineSet
EndChar
StartChar: yen
Encoding: 165 165 95
Width: 743
Flags: MW
LayerCount: 2
Fore
SplineSet
147 230 m 0
 147 241 160 242 171 242 c 2
 392 242 l 1
 396 255 398 262 398 270 c 0
 398 291 378 334 356 413 c 1
 217 413 l 2
 206 413 196 415 196 424 c 0
 195 433 204 436 216 436 c 2
 348 436 l 1
 285 635 287 629 282 636 c 0
 269 655 238 651 219 653 c 0
 210 654 203 657 203 665 c 0
 203 679 213 683 223 683 c 0
 233 683 264 680 324 680 c 0
 327 680 330 680 333 680 c 0
 392 680 424 683 436 683 c 0
 445 683 454 680 454 670 c 0
 454 664 451 658 448 656 c 0
 446 654 440 653 432 652 c 0
 427 652 422 652 417 651 c 0
 399 649 379 644 379 628 c 0
 379 617 422 491 438 436 c 1
 576 436 l 1
 626 503 674 553 700 588 c 4
 713 605 720 619 720 629 c 0
 720 651 690 651 683 654 c 0
 678 657 676 661 676 665 c 0
 676 674 684 683 696 683 c 0
 705 683 732 680 786 680 c 0
 816 680 837 682 851 682 c 0
 867 682 873 680 873 670 c 0
 873 640 839 665 782 627 c 0
 740 599 710 553 612 436 c 1
 722 436 l 1
 722 436 l 1
 740 436 l 1
 753 435 759 430 759 424 c 0
 759 414 744 413 735 413 c 2
 612 413 l 2
 600 413 595 413 588 406 c 0
 577 396 560 370 507 307 c 1
 473 268 478 270 471 242 c 1
 685 242 l 2
 696 242 710 241 710 230 c 0
 710 220 698 219 687 219 c 2
 465 219 l 1
 443 119 425 73 425 52 c 0
 425 33 444 31 464 31 c 2
 479 31 l 2
 490 31 499 31 504 27 c 0
 507 25 508 21 508 18 c 0
 508 14 506 10 504 7 c 0
 500 1 494 0 487 0 c 0
 476 0 441 3 372 3 c 0
 294 3 273 0 261 0 c 0
 248 0 242 7 242 14 c 0
 242 17 243 20 245 23 c 0
 248 27 254 29 262 30 c 0
 264 30 266 31 268 31 c 0
 291 32 324 29 338 46 c 0
 349 59 345 56 387 219 c 1
 171 219 l 2
 160 219 147 220 147 230 c 0
446 413 m 1
 477 315 l 1
 557 413 l 1
 446 413 l 1
EndSplineSet
EndChar
StartChar: brokenbar
Encoding: 166 166 96
Width: 204
Flags: MW
LayerCount: 2
Fore
SplineSet
25 -229 m 0
 25 -220 28 -212 30 -204 c 2
 113 130 l 2
 116 142 119 172 140 172 c 0
 150 172 158 162 159 152 c 0
 159 144 156 136 154 128 c 2
 70 -208 l 2
 66 -224 63 -249 44 -249 c 0
 33 -249 25 -239 25 -229 c 0
169 349 m 0
 169 357 172 366 174 374 c 2
 257 707 l 2
 261 719 264 749 284 749 c 0
 294 749 303 739 303 728 c 0
 303 720 300 712 298 705 c 2
 214 369 l 2
 210 350 207 328 188 328 c 0
 177 328 169 338 169 349 c 0
EndSplineSet
EndChar
StartChar: section
Encoding: 167 167 105
Width: 460
Flags: MW
LayerCount: 2
Fore
SplineSet
77 -109 m 0
 77 -60 104 -52 118 -52 c 0
 132 -52 145 -62 145 -78 c 0
 145 -85 141 -111 108 -115 c 1
 117 -176 161 -183 180 -183 c 0
 257 -183 319 -86 319 -30 c 0
 319 30 247 54 219 73 c 0
 171 105 147 155 147 210 c 0
 147 302 208 367 264 394 c 1
 236 426 221 461 221 506 c 0
 221 617 315 706 403 706 c 0
 460 706 506 667 506 609 c 0
 506 561 479 552 465 552 c 0
 451 552 438 562 438 578 c 0
 438 585 442 610 475 615 c 1
 468 675 422 683 403 683 c 0
 324 683 263 584 263 530 c 0
 263 511 271 496 282 483 c 0
 306 456 345 440 360 430 c 0
 381 417 436 374 436 290 c 0
 436 209 386 140 320 106 c 9
 320 106 l 21
 353 68 362 37 362 -6 c 0
 362 -117 268 -206 180 -206 c 0
 121 -206 77 -165 77 -109 c 0
190 234 m 0
 190 167 300 128 300 128 c 1
 330 128 393 211 393 266 c 0
 393 328 322 348 284 376 c 1
 225 348 190 272 190 234 c 0
EndSplineSet
EndChar
StartChar: dieresis
Encoding: 168 168 215
Width: 511
Flags: MW
LayerCount: 2
Fore
SplineSet
264 596 m 0
 264 627 293 659 327 659 c 0
 352 659 371 642 371 616 c 0
 371 586 342 553 307 553 c 0
 283 553 264 571 264 596 c 0
442 596 m 0
 442 627 472 659 506 659 c 0
 532 659 550 640 550 616 c 0
 550 584 519 553 486 553 c 0
 462 553 442 571 442 596 c 0
EndSplineSet
EndChar
StartChar: copyright
Encoding: 169 169 143
Width: 1073
Flags: MW
LayerCount: 2
Fore
SplineSet
333 179 m 0
 333 344 500 500 667 500 c 0
 717 500 756 482 784 446 c 1
 833 488 l 2
 842 496 848 499 853 499 c 0
 860 499 862 491 862 487 c 0
 862 481 818 308 818 307 c 0
 814 295 807 290 801 290 c 0
 799 290 797 290 795 291 c 4
 790 293 786 297 786 302 c 0
 786 307 787 319 787 334 c 0
 787 442 721 469 675 469 c 0
 601 469 529 423 488 363 c 0
 446 302 422 202 422 146 c 0
 422 39 501 9 556 9 c 0
 610 9 667 39 707 86 c 0
 724 106 738 130 747 156 c 0
 750 164 752 174 760 177 c 0
 762 178 765 179 768 179 c 0
 770 179 773 178 775 177 c 0
 778 175 781 172 781 167 c 0
 781 164 780 159 779 154 c 0
 765 103 683 -22 542 -22 c 0
 430 -22 333 53 333 179 c 0
121 111 m 0
 121 290 209 470 338 596 c 0
 447 703 585 772 724 772 c 0
 934 772 1076 611 1076 388 c 0
 1076 184 962 -22 801 -148 c 0
 704 -225 589 -272 473 -272 c 0
 263 -272 121 -111 121 111 c 0
161 111 m 0
 161 -89 286 -232 473 -232 c 0
 676 -232 885 -67 981 146 c 0
 1016 223 1036 305 1036 389 c 0
 1036 589 912 732 724 732 c 0
 524 732 313 569 216 356 c 0
 181 279 161 196 161 111 c 0
EndSplineSet
EndChar
StartChar: ordfeminine
Encoding: 170 170 131
Width: 460
Flags: MW
LayerCount: 2
Fore
SplineSet
101 499 m 0
 101 627 201 762 296 762 c 0
 335 762 352 736 360 721 c 1
 361 721 l 1
 367 730 378 742 395 742 c 0
 409 742 422 733 422 716 c 0
 422 695 357 473 357 427 c 0
 357 393 372 387 383 387 c 0
 424 387 444 485 451 511 c 0
 455 525 462 528 468 528 c 0
 473 528 483 526 483 515 c 0
 483 510 476 483 469 461 c 0
 457 421 436 364 380 364 c 0
 342 364 313 388 302 423 c 9
 302 423 l 17
 268 386 240 364 202 364 c 0
 142 364 101 420 101 499 c 0
168 450 m 0
 168 418 178 387 205 387 c 0
 245 387 289 447 296 464 c 1
 296 464 346 659 346 672 c 0
 346 699 327 738 297 738 c 0
 273 738 253 720 236 692 c 0
 191 619 168 481 168 450 c 0
EndSplineSet
EndChar
StartChar: guillemotleft
Encoding: 171 171 108
Width: 562
Flags: MW
LayerCount: 2
Fore
SplineSet
183 215 m 0
 183 226 195 229 252 269 c 0
 317 316 361 351 392 377 c 0
 419 400 435 415 446 423 c 0
 450 426 453 427 455 428 c 0
 457 429 458 429 459 429 c 0
 465 429 468 425 468 421 c 0
 468 420 468 419 467 417 c 0
 466 415 464 413 462 410 c 0
 452 397 432 377 407 353 c 0
 387 334 364 313 342 293 c 0
 304 259 267 228 249 214 c 1
 249 213 l 1
 304 144 355 42 363 21 c 0
 365 17 365 13 365 10 c 4
 365 5 362 2 357 2 c 0
 354 2 352 3 350 4 c 0
 347 6 344 9 341 14 c 0
 331 29 321 44 310 60 c 0
 289 90 263 123 220 170 c 0
 212 179 203 188 194 198 c 0
 190 202 183 208 183 215 c 0
343 215 m 0
 343 224 351 227 393 260 c 0
 436 294 467 321 489 341 c 0
 523 372 538 388 546 388 c 0
 551 388 555 385 555 380 c 0
 555 364 435 248 394 214 c 1
 394 213 l 1
 415 182 473 76 473 51 c 2
 473 48 l 1
 471 45 468 43 464 43 c 0
 447 43 448 75 374 171 c 0
 357 194 343 206 343 215 c 0
EndSplineSet
EndChar
StartChar: logicalnot
Encoding: 172 172 144
Width: 664
Flags: MW
LayerCount: 2
Fore
SplineSet
161 336 m 0
 161 355 182 356 190 356 c 2
 641 356 l 2
 657 356 670 352 670 334 c 0
 670 327 636 192 618 120 c 0
 617 116 613 91 594 91 c 0
 587 91 575 97 575 111 c 0
 575 126 601 212 625 316 c 1
 190 316 l 2
 166 316 161 328 161 336 c 0
EndSplineSet
EndChar
StartChar: softhyphen
Encoding: 173 173 142
Width: 204
Flags: MW
LayerCount: 2
Fore
SplineSet
86 201 m 0
 86 203 89 224 96 235 c 0
 98 238 100 240 103 241 c 0
 107 243 111 243 116 243 c 2
 315 243 l 2
 327 243 337 242 337 229 c 0
 337 227 336 209 330 198 c 4
 328 194 326 191 323 190 c 0
 318 187 313 187 308 187 c 2
 108 187 l 2
 97 187 86 188 86 201 c 0
EndSplineSet
EndChar
StartChar: registered
Encoding: 174 174 145
Width: 1073
Flags: MW
LayerCount: 2
Fore
SplineSet
253 14 m 0
 253 24 260 28 270 30 c 0
 274 31 278 31 283 31 c 0
 306 32 336 29 350 47 c 0
 360 59 363 78 367 95 c 2
 445 408 l 2
 447 416 449 422 449 428 c 0
 449 443 436 447 394 447 c 0
 388 447 382 447 376 448 c 0
 373 449 370 451 368 453 c 0
 366 456 365 459 365 463 c 0
 366 468 369 474 374 476 c 0
 378 478 383 478 388 478 c 2
 620 478 l 2
 667 478 705 471 733 461 c 0
 796 439 817 398 817 368 c 0
 817 289 704 247 653 237 c 1
 702 211 717 190 717 143 c 0
 717 125 715 102 715 65 c 0
 715 35 718 1 748 1 c 0
 800 1 817 84 825 93 c 0
 828 96 832 98 836 98 c 0
 838 98 839 98 841 97 c 0
 846 95 850 91 850 84 c 0
 850 69 820 -22 743 -22 c 0
 690 -22 618 -5 618 63 c 0
 618 97 638 135 638 168 c 0
 638 185 633 200 616 213 c 0
 597 228 578 228 553 228 c 2
 479 228 l 1
 479 228 437 62 437 51 c 0
 437 35 449 32 480 31 c 0
 485 31 491 31 497 31 c 0
 515 31 520 25 520 19 c 0
 520 11 513 2 508 1 c 0
 505 0 502 0 498 0 c 0
 485 0 458 3 382 3 c 0
 316 3 294 1 272 1 c 0
 262 1 253 3 253 14 c 0
485 250 m 1
 555 250 l 2
 597 250 657 255 691 290 c 0
 709 309 719 340 723 363 c 0
 724 371 725 378 725 383 c 0
 725 444 655 447 605 447 c 2
 573 447 l 2
 558 447 548 446 541 442 c 4
 530 435 527 419 518 384 c 0
 491 277 488 264 485 250 c 1
121 111 m 0
 121 286 205 461 329 587 c 0
 439 699 581 772 724 772 c 0
 934 772 1076 611 1076 388 c 0
 1076 172 948 -45 773 -169 c 0
 682 -233 578 -272 473 -272 c 0
 263 -272 121 -111 121 111 c 0
161 111 m 0
 161 -89 286 -232 473 -232 c 0
 671 -232 875 -75 974 131 c 0
 1013 212 1036 300 1036 389 c 0
 1036 589 912 732 724 732 c 0
 533 732 332 583 230 383 c 0
 187 299 161 206 161 111 c 0
EndSplineSet
EndChar
StartChar: macron
Encoding: 175 175 127
Width: 511
Flags: MW
LayerCount: 2
Fore
SplineSet
256 664 m 0
 256 671 259 681 277 681 c 2
 564 681 l 2
 577 681 586 679 586 668 c 0
 586 661 583 650 564 650 c 2
 277 650 l 2
 267 650 256 652 256 664 c 0
EndSplineSet
EndChar
StartChar: degree
Encoding: 176 176 146
Width: 358
Flags: MW
LayerCount: 2
Fore
SplineSet
219 562 m 0
 219 623 278 683 344 683 c 0
 391 683 427 650 427 601 c 0
 427 540 368 480 303 480 c 0
 253 480 219 516 219 562 c 0
259 562 m 0
 259 537 277 520 303 520 c 0
 347 520 387 562 387 601 c 0
 387 626 369 643 343 643 c 0
 301 643 259 601 259 562 c 0
EndSplineSet
EndChar
StartChar: plusminus
Encoding: 177 177 147
Width: 766
Flags: MW
LayerCount: 2
Fore
SplineSet
87 40 m 0
 87 59 106 60 117 60 c 2
 377 60 l 1
 377 60 l 1
 439 307 l 1
 193 307 l 2
 192 307 190 306 188 306 c 0
 177 306 159 308 159 326 c 0
 159 338 166 343 174 345 c 4
 179 346 185 347 190 347 c 2
 449 347 l 1
 454 372 499 550 512 600 c 0
 513 605 517 632 536 632 c 0
 548 632 555 621 555 611 c 0
 555 596 515 457 490 347 c 1
 740 347 l 2
 751 347 769 345 769 327 c 0
 769 308 752 306 739 306 c 0
 737 306 735 307 733 307 c 2
 479 307 l 1
 479 307 l 1
 418 60 l 1
 668 60 l 2
 684 60 698 56 698 40 c 0
 698 32 694 20 670 20 c 2
 116 20 l 2
 91 20 87 32 87 40 c 0
EndSplineSet
EndChar
StartChar: two.superior
Encoding: 178 178 148
Width: 460
Flags: MW
LayerCount: 2
Fore
SplineSet
174 349 m 0
 174 354 177 363 183 377 c 0
 198 413 217 440 238 461 c 0
 288 510 350 525 398 555 c 0
 422 570 442 589 455 616 c 0
 461 627 469 655 469 681 c 0
 469 731 431 747 402 749 c 0
 399 749 396 749 393 749 c 0
 329 749 255 700 255 641 c 0
 255 625 262 611 282 611 c 0
 320 611 359 650 359 674 c 0
 359 687 346 694 346 704 c 0
 346 712 357 715 364 710 c 0
 376 702 383 689 383 676 c 0
 383 641 336 588 279 588 c 0
 246 588 224 611 224 643 c 0
 224 700 292 772 396 772 c 0
 479 772 543 726 543 656 c 0
 543 596 496 558 373 506 c 0
 323 485 284 473 238 413 c 1
 246 415 254 415 263 415 c 0
 297 415 354 406 401 406 c 0
 444 406 481 418 500 445 c 0
 507 456 509 468 523 468 c 0
 525 468 527 468 529 467 c 4
 534 465 536 461 536 456 c 0
 536 431 484 336 393 336 c 0
 336 336 299 393 257 393 c 0
 229 393 218 374 210 358 c 0
 204 346 199 336 188 336 c 0
 186 336 183 337 181 338 c 0
 177 340 174 343 174 349 c 0
EndSplineSet
EndChar
StartChar: three.superior
Encoding: 179 179 149
Width: 460
Flags: MW
LayerCount: 2
Fore
SplineSet
272 655 m 0
 272 639 285 628 302 628 c 0
 331 628 368 666 368 716 c 0
 368 724 366 733 365 742 c 1
 307 726 272 685 272 655 c 0
180 446 m 0
 180 517 212 531 233 531 c 0
 253 531 267 517 267 499 c 0
 267 485 257 451 215 451 c 2
 210 451 l 1
 211 362 258 348 290 348 c 0
 331 348 360 363 380 384 c 0
 413 418 423 467 423 491 c 0
 423 534 386 541 358 541 c 2
 326 541 l 1
 312 542 307 548 307 554 c 0
 307 568 317 571 326 572 c 0
 328 572 330 572 332 572 c 2
 347 572 l 1
 363 572 l 2
 430 572 461 606 475 638 c 0
 485 661 487 684 487 693 c 0
 487 731 456 749 418 749 c 0
 407 749 397 748 387 747 c 1
 389 737 390 727 390 716 c 0
 390 658 347 605 300 605 c 0
 266 605 241 625 241 655 c 0
 241 698 286 745 358 764 c 1
 363 770 366 772 371 772 c 0
 377 772 382 770 388 770 c 0
 398 771 405 772 419 772 c 0
 493 772 549 734 549 677 c 0
 549 627 502 574 434 552 c 1
 453 541 496 519 496 467 c 0
 496 389 392 325 291 325 c 0
 202 325 180 397 180 446 c 0
EndSplineSet
EndChar
StartChar: acute
Encoding: 180 180 216
Width: 511
Flags: MW
LayerCount: 2
Fore
SplineSet
346 514 m 0
 346 524 358 532 366 538 c 0
 375 546 384 552 392 559 c 0
 504 651 503 651 517 651 c 0
 532 651 545 638 545 623 c 0
 545 601 519 588 515 586 c 0
 503 579 492 573 482 567 c 4
 367 499 365 499 360 499 c 0
 352 499 346 506 346 514 c 0
EndSplineSet
EndChar
StartChar: micro
Encoding: 181 181 150
Width: 511
Flags: MW
LayerCount: 2
Fore
SplineSet
24 -189 m 0
 24 -185 24 -181 26 -174 c 4
 29 -159 37 -131 53 -64 c 1
 170 402 l 2
 175 422 186 441 209 441 c 0
 223 441 237 432 237 415 c 0
 237 386 166 159 166 94 c 0
 166 25 205 12 231 12 c 0
 247 12 295 15 340 85 c 0
 353 106 353 114 358 131 c 2
 420 379 l 2
 422 388 427 430 462 430 c 0
 476 430 488 420 489 404 c 0
 489 395 486 386 484 377 c 2
 418 110 l 2
 413 91 408 71 408 52 c 0
 408 17 424 12 434 12 c 0
 476 12 495 111 503 138 c 0
 507 149 514 153 520 153 c 0
 521 153 524 153 526 152 c 0
 530 150 534 147 534 140 c 0
 534 133 518 63 497 30 c 0
 489 18 471 -11 431 -11 c 0
 399 -11 366 5 350 56 c 1
 323 21 285 -11 227 -11 c 0
 174 -11 146 13 139 18 c 1
 106 -115 95 -164 88 -185 c 0
 84 -198 81 -200 77 -205 c 1
 70 -211 60 -216 51 -216 c 0
 37 -216 24 -207 24 -189 c 0
EndSplineSet
EndChar
StartChar: paragraph
Encoding: 182 182 117
Width: 613
Flags: MW
LayerCount: 2
Fore
SplineSet
186 417 m 0
 186 528 293 694 490 694 c 2
 698 694 l 2
 712 694 728 692 728 674 c 0
 728 665 723 660 717 657 c 0
 711 655 704 654 697 654 c 2
 648 654 l 1
 648 654 l 1
 446 -154 l 1
 486 -154 l 2
 497 -154 516 -155 516 -174 c 0
 516 -182 512 -194 487 -194 c 2
 250 -194 l 2
 226 -194 221 -182 221 -174 c 0
 221 -156 239 -154 251 -154 c 2
 301 -154 l 1
 397 231 l 1
 279 242 186 307 186 417 c 0
343 -154 m 1
 405 -154 l 1
 607 654 l 1
 544 654 l 1
 544 654 l 1
 343 -154 l 1
EndSplineSet
EndChar
StartChar: periodcentered
Encoding: 183 183 116
Width: 307
Flags: MW
LayerCount: 2
Fore
SplineSet
160 232 m 0
 160 262 190 295 224 295 c 0
 250 295 267 275 267 252 c 0
 267 222 237 189 203 189 c 0
 179 189 160 206 160 232 c 0
EndSplineSet
EndChar
StartChar: cedilla
Encoding: 184 184 129
Width: 460
Flags: MW
LayerCount: 2
Fore
SplineSet
77 -181 m 0
 77 -173 85 -170 95 -170 c 0
 98 -170 101 -170 104 -170 c 0
 169 -170 244 -161 244 -109 c 0
 244 -93 234 -79 210 -73 c 0
 200 -71 183 -72 183 -57 c 0
 183 -50 185 -47 196 -2 c 0
 202 20 204 22 227 22 c 2
 238 22 l 2
 257 22 263 18 263 9 c 0
 263 3 261 -4 248 -53 c 1
 276 -59 309 -73 309 -109 c 0
 309 -173 231 -191 115 -192 c 4
 110 -192 104 -192 99 -192 c 2
 95 -192 l 2
 80 -192 77 -186 77 -181 c 0
EndSplineSet
EndChar
StartChar: one.superior
Encoding: 185 185 151
Width: 460
Flags: MW
LayerCount: 2
Fore
SplineSet
193 361 m 0
 193 378 209 379 219 379 c 2
 222 379 l 2
 236 379 247 379 256 380 c 0
 301 384 302 399 311 437 c 2
 373 685 l 1
 343 671 305 661 278 661 c 0
 263 661 258 667 258 674 c 0
 258 711 325 664 431 760 c 0
 436 764 442 770 449 770 c 0
 456 770 460 765 460 757 c 0
 460 756 459 753 458 748 c 0
 446 693 373 416 373 398 c 0
 373 382 386 379 425 379 c 2
 431 379 l 2
 446 379 459 378 459 364 c 0
 459 350 448 348 434 347 c 1
 434 348 l 1
 434 348 l 1
 372 348 l 1
 273 349 l 1
 211 347 l 1
 217 347 l 2
 201 347 193 350 193 361 c 0
EndSplineSet
EndChar
StartChar: ordmasculine
Encoding: 186 186 135
Width: 460
Flags: MW
LayerCount: 2
Fore
SplineSet
102 508 m 0
 102 635 213 762 323 762 c 0
 399 762 450 701 450 617 c 0
 450 489 338 364 229 364 c 0
 153 364 102 425 102 508 c 0
172 469 m 0
 172 403 207 387 230 387 c 0
 260 387 290 409 311 437 c 1
 338 470 356 525 367 572 c 0
 376 610 380 644 380 657 c 0
 380 695 366 739 322 739 c 0
 292 739 261 715 240 688 c 0
 217 659 200 612 189 569 c 0
 178 525 172 485 172 469 c 0
EndSplineSet
EndChar
StartChar: guillemotright
Encoding: 187 187 122
Width: 562
Flags: MW
LayerCount: 2
Fore
SplineSet
113 51 m 0
 113 58 134 82 162 111 c 0
 200 151 251 198 274 217 c 1
 239 272 210 333 199 361 c 0
 197 367 196 371 195 374 c 0
 194 383 198 388 204 388 c 0
 208 388 212 386 215 382 c 1
 217 380 219 376 222 371 c 0
 226 364 230 355 237 343 c 0
 250 321 269 291 299 253 c 0
 315 233 325 224 325 216 c 0
 325 211 321 206 312 199 c 0
 301 191 291 183 282 175 c 0
 213 120 175 84 152 64 c 0
 136 49 127 43 121 43 c 0
 119 43 113 45 113 51 c 0
200 10 m 0
 200 17 208 24 210 27 c 0
 216 33 228 45 244 61 c 0
 263 80 288 104 316 129 c 0
 348 159 385 190 419 217 c 1
 412 226 405 236 399 245 c 0
 356 309 320 374 305 410 c 0
 303 414 303 418 303 421 c 0
 304 426 306 429 312 429 c 0
 315 429 318 428 320 426 c 0
 324 423 328 416 335 406 c 0
 340 398 347 387 357 373 c 0
 374 348 400 315 440 270 c 0
 460 247 472 235 479 228 c 0
 484 223 485 220 485 216 c 0
 485 212 483 209 479 205 c 0
 471 198 453 188 417 162 c 0
 341 107 293 67 262 41 c 0
 245 27 233 16 225 10 c 0
 218 4 213 2 209 2 c 0
 207 2 205 2 204 3 c 4
 202 5 200 7 200 10 c 0
EndSplineSet
EndChar
StartChar: onequarter
Encoding: 188 188 152
Width: 460
Flags: MW
LayerCount: 2
Fore
SplineSet
155 33 m 1
 201 33 213 31 270 21 c 1
 296 126 l 1
 284 114 247 72 155 34 c 1
 155 33 l 1
45 17 m 0
 45 30 69 30 121 55 c 0
 235 108 257 165 272 201 c 0
 281 224 288 239 312 239 c 0
 320 239 326 236 331 233 c 1
 332 233 l 1
 340 238 348 240 355 240 c 0
 371 240 382 229 382 214 c 0
 382 200 366 155 334 16 c 1
 364 16 377 16 385 17 c 0
 390 17 392 18 395 18 c 0
 413 18 418 8 418 1 c 0
 418 -1 417 -3 415 -5 c 0
 407 -12 383 -16 325 -16 c 1
 324 -20 291 -159 286 -170 c 0
 280 -183 266 -194 252 -194 c 0
 237 -194 224 -183 224 -167 c 0
 224 -152 240 -104 262 -9 c 1
 259 -6 182 2 153 2 c 2
 146 2 l 2
 119 2 102 2 91 2 c 0
 87 2 84 1 81 1 c 0
 74 1 71 1 68 1 c 0
 50 1 45 11 45 17 c 0
101 277 m 0
 101 289 109 294 117 296 c 4
 122 297 128 298 131 298 c 2
 464 298 l 2
 477 298 495 297 495 277 c 0
 495 269 491 258 466 258 c 2
 130 258 l 2
 105 258 101 269 101 277 c 0
190 351 m 0
 190 364 196 367 209 368 c 0
 214 368 219 369 225 369 c 0
 234 369 245 370 258 371 c 0
 274 373 284 376 291 382 c 0
 302 391 304 406 309 428 c 2
 374 685 l 1
 329 666 298 661 279 661 c 0
 263 661 258 668 258 674 c 0
 258 681 261 686 266 688 c 0
 287 698 347 683 432 760 c 0
 436 764 442 770 449 770 c 0
 455 770 460 765 460 757 c 0
 460 757 460 754 459 751 c 0
 448 704 370 401 370 389 c 0
 370 367 401 369 426 369 c 0
 430 369 434 369 438 369 c 0
 445 369 450 367 453 365 c 1
 455 362 457 359 457 355 c 0
 457 351 456 347 453 344 c 0
 449 339 442 338 435 338 c 0
 424 338 391 340 323 340 c 0
 245 340 222 338 210 338 c 0
 200 338 190 341 190 351 c 0
EndSplineSet
EndChar
StartChar: onehalf
Encoding: 189 189 153
Width: 460
Flags: MW
LayerCount: 2
Fore
SplineSet
36 -204 m 0
 36 -200 37 -196 39 -191 c 0
 47 -168 72 -133 115 -104 c 0
 123 -98 133 -93 144 -87 c 0
 211 -51 313 -7 330 106 c 0
 332 116 332 127 332 139 c 0
 332 188 301 217 259 217 c 0
 190 217 128 137 100 31 c 0
 99 26 98 22 98 18 c 0
 98 5 105 -3 124 -3 c 0
 163 -3 210 45 210 83 c 0
 210 97 199 110 199 118 c 0
 199 121 201 124 204 126 c 0
 206 127 207 127 209 127 c 0
 221 127 234 106 234 84 c 0
 234 46 188 -27 122 -27 c 0
 97 -27 65 -16 65 14 c 0
 65 46 129 240 263 240 c 0
 341 240 404 187 404 108 c 0
 404 -31 207 -67 109 -146 c 1
 138 -146 239 -147 253 -147 c 0
 262 -147 271 -147 282 -145 c 0
 300 -141 322 -132 345 -106 c 0
 378 -70 377 -45 385 -35 c 0
 388 -32 392 -30 398 -30 c 0
 405 -30 412 -34 412 -43 c 0
 412 -61 387 -115 374 -135 c 0
 326 -213 271 -217 254 -217 c 0
 199 -217 158 -169 116 -169 c 0
 80 -169 74 -199 61 -211 c 0
 58 -214 54 -216 49 -216 c 0
 47 -216 45 -216 43 -215 c 0
 39 -213 36 -209 36 -204 c 0
101 277 m 0
 101 289 109 294 117 296 c 4
 122 297 128 298 131 298 c 2
 464 298 l 2
 477 298 495 297 495 277 c 0
 495 269 491 258 466 258 c 2
 130 258 l 2
 105 258 101 269 101 277 c 0
190 351 m 0
 190 364 196 367 209 368 c 0
 214 368 219 369 225 369 c 0
 234 369 245 370 258 371 c 0
 274 373 284 376 291 382 c 0
 302 391 304 406 309 428 c 2
 374 685 l 1
 329 666 298 661 279 661 c 0
 263 661 258 668 258 674 c 0
 258 681 261 686 266 688 c 0
 287 698 347 683 432 760 c 0
 436 764 442 770 449 770 c 0
 455 770 460 765 460 757 c 0
 460 757 460 754 459 751 c 0
 448 704 370 401 370 389 c 0
 370 367 401 369 426 369 c 0
 430 369 434 369 438 369 c 0
 445 369 450 367 453 365 c 1
 455 362 457 359 457 355 c 0
 457 351 456 347 453 344 c 0
 449 339 442 338 435 338 c 0
 424 338 391 340 323 340 c 0
 245 340 222 338 210 338 c 0
 200 338 190 341 190 351 c 0
EndSplineSet
EndChar
StartChar: threequarters
Encoding: 190 190 154
Width: 460
Flags: MW
LayerCount: 2
Fore
SplineSet
155 33 m 1
 201 33 213 31 270 21 c 1
 296 126 l 1
 284 114 247 72 155 34 c 1
 155 33 l 1
45 17 m 0
 45 30 69 30 121 55 c 0
 235 108 257 165 272 201 c 0
 281 224 288 239 312 239 c 0
 320 239 326 236 331 233 c 1
 332 233 l 1
 340 238 348 240 355 240 c 0
 371 240 382 229 382 214 c 0
 382 200 366 155 334 16 c 1
 364 16 377 16 385 17 c 0
 390 17 392 18 395 18 c 0
 413 18 418 8 418 1 c 0
 418 -1 417 -3 415 -5 c 0
 407 -12 383 -16 325 -16 c 1
 324 -20 291 -159 286 -170 c 0
 280 -183 266 -194 252 -194 c 0
 237 -194 224 -183 224 -167 c 0
 224 -152 240 -104 262 -9 c 1
 259 -6 182 2 153 2 c 2
 146 2 l 2
 119 2 102 2 91 2 c 0
 87 2 84 1 81 1 c 0
 74 1 71 1 68 1 c 0
 50 1 45 11 45 17 c 0
101 277 m 0
 101 297 123 298 131 298 c 2
 464 298 l 2
 477 298 496 297 496 277 c 0
 496 269 491 258 466 258 c 2
 130 258 l 2
 105 258 101 269 101 277 c 0
272 655 m 0
 272 639 285 628 302 628 c 0
 331 628 368 666 368 716 c 0
 368 724 366 733 365 742 c 1
 307 726 272 685 272 655 c 0
180 446 m 0
 180 517 212 531 233 531 c 0
 253 531 267 517 267 499 c 0
 267 485 257 451 215 451 c 2
 210 451 l 1
 211 362 258 348 290 348 c 0
 331 348 360 363 380 384 c 0
 413 418 423 467 423 491 c 0
 423 534 386 541 358 541 c 2
 326 541 l 1
 312 542 307 548 307 554 c 0
 307 568 317 571 326 572 c 0
 328 572 330 572 332 572 c 2
 347 572 l 1
 363 572 l 2
 430 572 461 606 475 638 c 0
 485 661 487 684 487 693 c 0
 487 731 456 749 418 749 c 0
 407 749 397 748 387 747 c 1
 389 737 390 727 390 716 c 0
 390 658 347 605 300 605 c 0
 266 605 241 625 241 655 c 0
 241 698 286 745 358 764 c 1
 363 770 366 772 371 772 c 0
 377 772 382 770 388 770 c 0
 398 771 405 772 419 772 c 0
 493 772 549 734 549 677 c 0
 549 627 502 574 434 552 c 1
 453 541 496 519 496 467 c 0
 496 389 392 325 291 325 c 0
 202 325 180 397 180 446 c 0
EndSplineSet
EndChar
StartChar: questiondown
Encoding: 191 191 125
Width: 511
Flags: MW
LayerCount: 2
Fore
SplineSet
83 -93 m 0
 83 -35 113 18 147 52 c 0
 155 61 177 78 203 99 c 0
 254 140 321 192 332 204 c 0
 342 216 353 236 353 257 c 0
 353 278 342 290 326 290 c 0
 309 290 272 276 252 229 c 0
 250 224 249 217 245 213 c 0
 243 211 240 210 237 209 c 0
 233 208 229 208 226 209 c 4
 223 210 221 212 220 215 c 0
 219 216 219 218 219 220 c 0
 219 244 261 313 328 313 c 0
 367 313 388 282 388 244 c 0
 388 209 372 177 356 157 c 1
 344 144 308 115 217 43 c 0
 198 28 119 -22 119 -106 c 0
 119 -157 153 -194 204 -194 c 0
 281 -194 354 -123 396 -11 c 1
 365 -10 359 9 359 21 c 0
 359 47 383 69 407 69 c 0
 426 69 441 56 441 37 c 0
 441 -12 352 -216 203 -216 c 0
 131 -216 83 -164 83 -93 c 0
313 437 m 0
 313 467 343 500 377 500 c 0
 403 500 420 480 420 457 c 0
 420 427 390 394 356 394 c 0
 332 394 313 411 313 437 c 0
EndSplineSet
EndChar
StartChar: Agrave
Encoding: 192 192 155
Width: 743
Flags: MW
LayerCount: 2
Fore
SplineSet
448 834 m 0
 448 849 464 871 485 871 c 0
 495 871 503 866 511 860 c 0
 620 781 624 773 624 767 c 0
 624 760 618 750 607 750 c 0
 605 750 604 750 601 751 c 4
 593 754 571 764 474 805 c 0
 462 810 448 817 448 834 c 0
59 14 m 0
 59 43 91 19 136 50 c 4
 153 61 171 81 190 113 c 1
 517 689 l 2
 523 698 530 716 549 716 c 0
 568 716 567 700 568 688 c 2
 611 67 l 2
 612 51 615 42 624 37 c 0
 632 33 644 31 663 31 c 0
 675 31 690 32 690 17 c 0
 690 10 686 0 670 0 c 0
 651 0 631 3 576 3 c 0
 573 3 570 3 567 3 c 0
 490 3 465 0 455 0 c 0
 445 0 440 7 440 14 c 0
 440 27 450 30 463 31 c 0
 466 31 470 31 473 31 c 0
 488 32 506 34 520 46 c 0
 527 52 528 61 528 73 c 0
 528 88 523 135 517 230 c 1
 289 230 l 1
 225 118 204 86 204 65 c 0
 204 23 259 40 259 19 c 0
 259 12 257 0 239 0 c 0
 230 0 203 3 150 3 c 0
 117 3 93 0 81 0 c 0
 65 0 59 3 59 14 c 0
307 260 m 1
 515 260 l 1
 493 587 l 1
 307 260 l 1
EndSplineSet
EndChar
StartChar: Aacute
Encoding: 193 193 156
Width: 743
Flags: MW
LayerCount: 2
Fore
SplineSet
474 765 m 0
 474 775 483 779 487 782 c 2
 630 861 l 2
 635 863 647 871 659 871 c 0
 676 871 686 857 686 843 c 0
 686 832 683 825 674 818 c 0
 657 805 618 795 536 766 c 0
 524 761 512 757 502 754 c 4
 495 752 490 750 488 750 c 0
 477 750 474 761 474 765 c 0
59 14 m 0
 59 43 91 19 136 50 c 4
 153 61 171 81 190 113 c 1
 517 689 l 2
 523 698 530 716 549 716 c 0
 568 716 567 700 568 688 c 2
 611 67 l 2
 612 51 615 42 624 37 c 0
 632 33 644 31 663 31 c 0
 675 31 690 32 690 17 c 0
 690 10 686 0 670 0 c 0
 651 0 631 3 576 3 c 0
 573 3 570 3 567 3 c 0
 490 3 465 0 455 0 c 0
 445 0 440 7 440 14 c 0
 440 27 450 30 463 31 c 0
 466 31 470 31 473 31 c 0
 488 32 506 34 520 46 c 0
 527 52 528 61 528 73 c 0
 528 88 523 135 517 230 c 1
 289 230 l 1
 225 118 204 86 204 65 c 0
 204 23 259 40 259 19 c 0
 259 12 257 0 239 0 c 0
 230 0 203 3 150 3 c 0
 117 3 93 0 81 0 c 0
 65 0 59 3 59 14 c 0
307 260 m 1
 515 260 l 1
 493 587 l 1
 307 260 l 1
EndSplineSet
EndChar
StartChar: Acircumflex
Encoding: 194 194 157
Width: 743
Flags: MW
LayerCount: 2
Fore
SplineSet
433 757 m 0
 433 760 434 762 443 771 c 0
 456 784 486 810 554 871 c 0
 579 893 585 900 593 900 c 0
 594 900 596 900 597 899 c 4
 606 895 615 879 621 869 c 0
 641 836 655 813 665 797 c 0
 686 763 687 761 687 756 c 0
 687 748 678 741 670 741 c 0
 663 741 649 759 631 783 c 0
 616 803 600 826 585 847 c 1
 521 799 460 741 447 741 c 0
 443 741 433 744 433 757 c 0
59 14 m 0
 59 43 91 19 136 50 c 4
 153 61 171 81 190 113 c 1
 517 689 l 2
 523 698 530 716 549 716 c 0
 568 716 567 700 568 688 c 2
 611 67 l 2
 612 51 615 42 624 37 c 0
 632 33 644 31 663 31 c 0
 675 31 690 32 690 17 c 0
 690 10 686 0 670 0 c 0
 651 0 631 3 576 3 c 0
 573 3 570 3 567 3 c 0
 490 3 465 0 455 0 c 0
 445 0 440 7 440 14 c 0
 440 27 450 30 463 31 c 0
 466 31 470 31 473 31 c 0
 488 32 506 34 520 46 c 0
 527 52 528 61 528 73 c 0
 528 88 523 135 517 230 c 1
 289 230 l 1
 225 118 204 86 204 65 c 0
 204 23 259 40 259 19 c 0
 259 12 257 0 239 0 c 0
 230 0 203 3 150 3 c 0
 117 3 93 0 81 0 c 0
 65 0 59 3 59 14 c 0
307 260 m 1
 515 260 l 1
 493 587 l 1
 307 260 l 1
EndSplineSet
EndChar
StartChar: Atilde
Encoding: 195 195 158
Width: 743
Flags: MW
LayerCount: 2
Fore
SplineSet
397 811 m 0
 397 814 401 820 408 828 c 0
 430 852 479 891 522 891 c 0
 578 891 608 836 655 836 c 0
 690 836 722 863 743 882 c 1
 749 887 754 889 758 889 c 4
 764 889 767 884 767 880 c 0
 767 877 764 873 760 867 c 0
 741 843 685 800 642 800 c 0
 583 800 558 855 509 855 c 0
 458 855 422 802 405 802 c 0
 400 802 397 806 397 811 c 0
59 14 m 0
 59 43 91 19 136 50 c 4
 153 61 171 81 190 113 c 1
 517 689 l 2
 523 698 530 716 549 716 c 0
 568 716 567 700 568 688 c 2
 611 67 l 2
 612 51 615 42 624 37 c 0
 632 33 644 31 663 31 c 0
 675 31 690 32 690 17 c 0
 690 10 686 0 670 0 c 0
 651 0 631 3 576 3 c 0
 573 3 570 3 567 3 c 0
 490 3 465 0 455 0 c 0
 445 0 440 7 440 14 c 0
 440 27 450 30 463 31 c 0
 466 31 470 31 473 31 c 0
 488 32 506 34 520 46 c 0
 527 52 528 61 528 73 c 0
 528 88 523 135 517 230 c 1
 289 230 l 1
 225 118 204 86 204 65 c 0
 204 23 259 40 259 19 c 0
 259 12 257 0 239 0 c 0
 230 0 203 3 150 3 c 0
 117 3 93 0 81 0 c 0
 65 0 59 3 59 14 c 0
307 260 m 1
 515 260 l 1
 493 587 l 1
 307 260 l 1
EndSplineSet
EndChar
StartChar: Adieresis
Encoding: 196 196 159
Width: 743
Flags: MW
LayerCount: 2
Fore
SplineSet
437 829 m 0
 437 863 471 891 501 891 c 0
 525 891 545 874 545 848 c 0
 545 817 514 786 480 786 c 0
 456 786 437 803 437 829 c 0
616 829 m 0
 616 859 645 891 679 891 c 0
 704 891 723 874 723 848 c 0
 723 818 694 786 659 786 c 0
 635 786 616 803 616 829 c 0
59 14 m 0
 59 43 91 19 136 50 c 4
 153 61 171 81 190 113 c 1
 517 689 l 2
 523 698 530 716 549 716 c 0
 568 716 567 700 568 688 c 2
 611 67 l 2
 612 51 615 42 624 37 c 0
 632 33 644 31 663 31 c 0
 675 31 690 32 690 17 c 0
 690 10 686 0 670 0 c 0
 651 0 631 3 576 3 c 0
 573 3 570 3 567 3 c 0
 490 3 465 0 455 0 c 0
 445 0 440 7 440 14 c 0
 440 27 450 30 463 31 c 0
 466 31 470 31 473 31 c 0
 488 32 506 34 520 46 c 0
 527 52 528 61 528 73 c 0
 528 88 523 135 517 230 c 1
 289 230 l 1
 225 118 204 86 204 65 c 0
 204 23 259 40 259 19 c 0
 259 12 257 0 239 0 c 0
 230 0 203 3 150 3 c 0
 117 3 93 0 81 0 c 0
 65 0 59 3 59 14 c 0
307 260 m 1
 515 260 l 1
 493 587 l 1
 307 260 l 1
EndSplineSet
EndChar
StartChar: Aring
Encoding: 197 197 160
Width: 743
Flags: MW
LayerCount: 2
Fore
SplineSet
59 14 m 0
 59 25 66 29 76 31 c 4
 88 33 104 34 122 42 c 0
 157 58 178 93 197 125 c 2
 522 697 l 1
 483 713 475 749 475 772 c 0
 475 845 539 913 599 913 c 0
 601 913 602 913 604 913 c 0
 642 910 667 878 667 835 c 0
 667 783 631 717 567 697 c 1
 568 681 569 665 578 537 c 2
 607 119 l 2
 612 48 609 37 638 33 c 0
 645 32 653 32 663 31 c 0
 674 30 690 32 690 17 c 0
 690 11 687 0 670 0 c 0
 659 0 628 3 564 3 c 0
 503 3 471 1 458 1 c 0
 449 1 440 3 440 13 c 0
 440 26 448 30 460 31 c 0
 474 32 492 31 509 39 c 0
 524 46 528 55 528 70 c 0
 528 86 525 102 517 230 c 1
 289 230 l 1
 224 116 203 86 203 65 c 0
 203 32 244 33 252 29 c 0
 257 26 259 22 259 17 c 0
 259 13 257 9 254 6 c 1
 250 1 245 0 239 0 c 0
 230 0 203 3 149 3 c 0
 117 3 95 1 81 1 c 0
 65 1 59 3 59 14 c 0
307 260 m 1
 515 260 l 1
 493 587 l 1
 307 260 l 1
504 764 m 0
 504 730 525 717 549 717 c 0
 604 717 628 774 636 813 c 0
 639 825 639 836 639 843 c 0
 639 881 612 891 593 891 c 0
 535 891 512 826 506 786 c 0
 505 777 504 769 504 764 c 0
EndSplineSet
EndChar
StartChar: AE
Encoding: 198 198 130
Width: 883
Flags: MW
LayerCount: 2
Fore
SplineSet
59 14 m 0
 59 33 80 31 89 32 c 0
 118 36 139 48 156 65 c 0
 171 80 183 98 196 119 c 1
 505 651 l 1
 493 652 480 652 468 652 c 2
 454 652 l 2
 437 652 431 659 431 666 c 0
 431 670 433 674 435 676 c 0
 440 683 448 683 455 683 c 2
 926 683 l 2
 939 683 948 680 948 666 c 0
 948 657 923 474 923 473 c 0
 921 462 914 459 908 459 c 0
 896 459 893 464 893 476 c 0
 893 492 900 519 900 557 c 0
 900 642 858 652 763 652 c 2
 693 652 l 2
 669 652 658 653 650 642 c 0
 643 631 638 610 627 565 c 1
 582 388 577 366 571 344 c 1
 642 344 l 2
 714 344 740 353 763 437 c 0
 765 446 769 460 782 460 c 0
 793 460 796 454 796 446 c 0
 796 440 794 432 793 427 c 0
 756 279 745 228 738 210 c 0
 734 200 732 199 728 198 c 0
 726 197 723 197 721 197 c 0
 714 197 707 202 708 213 c 0
 709 224 718 249 718 271 c 0
 718 309 689 313 641 313 c 2
 564 313 l 1
 564 313 498 56 498 44 c 0
 498 32 506 31 527 31 c 2
 602 31 l 2
 764 31 791 81 858 241 c 0
 864 253 871 257 877 257 c 0
 879 257 880 257 882 256 c 0
 887 254 891 250 891 245 c 0
 891 239 806 32 800 20 c 1
 794 4 790 0 774 0 c 2
 366 0 l 2
 348 0 343 7 343 14 c 0
 343 19 345 24 348 26 c 0
 352 29 359 30 367 31 c 0
 370 31 372 31 375 31 c 0
 389 32 406 33 415 43 c 0
 425 55 420 48 487 313 c 1
 341 313 l 1
 222 108 205 84 205 66 c 0
 205 28 249 35 256 26 c 1
 259 24 260 21 260 17 c 0
 260 9 251 0 240 0 c 0
 222 0 205 3 152 3 c 0
 118 3 96 1 82 1 c 0
 65 1 59 3 59 14 c 0
359 344 m 1
 495 344 l 1
 559 601 l 2
 562 613 564 622 564 628 c 0
 564 642 556 646 536 649 c 1
 517 617 l 5
 359 344 l 1
EndSplineSet
EndChar
StartChar: Ccedilla
Encoding: 199 199 161
Width: 715
Flags: MW
LayerCount: 2
Fore
SplineSet
149 245 m 0
 149 478 364 705 569 705 c 0
 604 705 676 697 719 620 c 1
 791 702 790 704 800 704 c 0
 804 704 810 701 810 692 c 0
 810 684 756 475 748 440 c 0
 745 428 742 419 728 419 c 0
 726 419 723 419 722 420 c 0
 717 422 716 429 716 438 c 0
 716 451 719 470 719 492 c 0
 719 585 679 674 577 674 c 0
 477 674 381 600 326 513 c 0
 270 424 237 287 237 206 c 0
 237 69 321 9 407 9 c 0
 509 9 623 99 663 228 c 0
 667 240 669 251 682 251 c 0
 684 251 685 250 687 250 c 0
 692 249 696 245 696 238 c 0
 696 199 604 2 425 -20 c 1
 417 -53 l 1
 446 -60 478 -73 478 -109 c 0
 478 -182 371 -192 281 -192 c 4
 279 -192 277 -192 275 -192 c 2
 270 -192 l 2
 257 -192 249 -192 246 -184 c 0
 244 -176 250 -170 267 -170 c 2
 274 -170 l 1
 286 -170 l 1
 325 -169 413 -164 413 -108 c 0
 413 -91 398 -79 382 -74 c 0
 368 -70 352 -73 352 -57 c 0
 352 -50 357 -31 360 -20 c 1
 229 -1 149 103 149 245 c 0
EndSplineSet
EndChar
StartChar: Egrave
Encoding: 200 200 162
Width: 678
Flags: MW
LayerCount: 2
Fore
SplineSet
449 834 m 0
 449 851 466 871 486 871 c 0
 500 871 499 871 605 790 c 0
 613 784 625 776 625 767 c 0
 625 760 618 750 608 750 c 0
 606 750 605 750 602 751 c 4
 594 754 572 764 474 805 c 0
 462 810 449 817 449 834 c 0
62 12 m 0
 62 31 73 31 89 31 c 0
 97 31 104 31 110 31 c 0
 158 33 164 43 171 73 c 2
 305 609 l 2
 309 624 309 631 309 632 c 0
 309 639 309 646 281 648 c 0
 273 649 264 649 251 649 c 0
 231 649 224 649 224 662 c 0
 224 680 234 680 251 680 c 2
 718 680 l 2
 739 680 745 680 742 654 c 2
 719 477 l 2
 717 459 716 455 702 455 c 0
 698 455 687 455 687 467 c 0
 687 470 688 479 689 484 c 0
 692 508 694 521 694 548 c 0
 694 619 669 649 561 649 c 2
 436 649 l 2
 403 649 396 648 388 615 c 2
 327 369 l 1
 408 369 l 2
 451 369 477 375 494 392 c 4
 509 407 518 429 527 462 c 0
 533 483 533 486 546 486 c 0
 550 486 562 486 562 474 c 0
 562 472 560 464 559 461 c 2
 504 241 l 2
 500 223 497 221 486 221 c 0
 480 221 470 221 470 233 c 0
 470 236 472 242 472 244 c 0
 480 273 481 288 481 295 c 0
 481 322 474 338 406 338 c 2
 319 338 l 1
 250 63 l 2
 249 57 246 47 246 41 c 0
 246 34 246 31 277 31 c 2
 399 31 l 2
 461 31 504 41 537 61 c 0
 589 93 616 150 651 234 c 0
 660 257 661 258 672 258 c 0
 675 258 687 258 687 247 c 0
 687 246 684 237 683 235 c 2
 594 16 l 2
 587 1 586 0 566 0 c 2
 87 0 l 2
 71 0 62 0 62 12 c 0
EndSplineSet
EndChar
StartChar: Igrave
Encoding: 204 204 166
Width: 385
Flags: MW
LayerCount: 2
Fore
SplineSet
283 834 m 0
 283 849 299 871 320 871 c 0
 330 871 338 866 346 860 c 0
 399 822 427 800 442 787 c 0
 458 773 459 770 459 767 c 0
 459 760 453 750 442 750 c 0
 440 750 439 750 437 751 c 4
 429 753 410 763 309 805 c 0
 297 810 283 817 283 834 c 0
57 13 m 0
 57 25 61 29 70 30 c 4
 74 31 80 31 87 31 c 0
 154 31 163 39 171 72 c 2
 307 616 l 2
 308 619 310 632 310 635 c 0
 310 652 281 652 247 652 c 0
 240 652 234 652 230 653 c 0
 223 654 220 657 220 665 c 0
 220 683 232 683 239 683 c 0
 280 683 323 680 364 680 c 0
 405 680 447 683 487 683 c 0
 491 683 501 683 501 671 c 0
 501 659 497 655 488 653 c 0
 483 652 477 652 470 652 c 0
 401 652 395 643 387 611 c 2
 252 71 l 2
 248 56 248 50 248 49 c 0
 248 38 248 31 310 31 c 0
 317 31 322 31 326 31 c 0
 334 30 338 27 338 19 c 0
 338 0 325 0 318 0 c 0
 278 0 235 3 194 3 c 0
 153 3 111 0 71 0 c 0
 64 0 57 2 57 13 c 0
EndSplineSet
EndChar
StartChar: Iacute
Encoding: 205 205 167
Width: 385
Flags: MW
LayerCount: 2
Fore
SplineSet
288 765 m 0
 288 775 296 779 301 782 c 2
 443 861 l 1
 449 863 461 871 472 871 c 0
 489 871 499 857 499 843 c 0
 499 812 474 810 349 766 c 0
 338 762 326 757 317 754 c 4
 309 751 304 750 302 750 c 0
 290 750 288 761 288 765 c 0
57 13 m 0
 57 25 61 29 70 30 c 4
 74 31 80 31 87 31 c 0
 154 31 163 39 171 72 c 2
 307 616 l 2
 308 619 310 632 310 635 c 0
 310 652 281 652 247 652 c 0
 240 652 234 652 230 653 c 0
 223 654 220 657 220 665 c 0
 220 683 232 683 239 683 c 0
 280 683 323 680 364 680 c 0
 405 680 447 683 487 683 c 0
 491 683 501 683 501 671 c 0
 501 659 497 655 488 653 c 0
 483 652 477 652 470 652 c 0
 401 652 395 643 387 611 c 2
 252 71 l 2
 248 56 248 50 248 49 c 0
 248 38 248 31 310 31 c 0
 317 31 322 31 326 31 c 0
 334 30 338 27 338 19 c 0
 338 0 325 0 318 0 c 0
 278 0 235 3 194 3 c 0
 153 3 111 0 71 0 c 0
 64 0 57 2 57 13 c 0
EndSplineSet
EndChar
StartChar: Icircumflex
Encoding: 206 206 168
Width: 385
Flags: MW
LayerCount: 2
Fore
SplineSet
255 757 m 0
 255 760 255 761 263 769 c 0
 275 781 304 807 376 871 c 0
 401 893 407 900 415 900 c 0
 426 900 436 880 443 869 c 0
 507 764 509 763 509 756 c 0
 509 748 500 741 492 741 c 0
 485 741 469 760 451 785 c 4
 437 804 421 827 407 847 c 1
 343 799 282 741 269 741 c 0
 265 741 255 744 255 757 c 0
57 13 m 0
 57 25 61 29 70 30 c 4
 74 31 80 31 87 31 c 0
 154 31 163 39 171 72 c 2
 307 616 l 2
 308 619 310 632 310 635 c 0
 310 652 281 652 247 652 c 0
 240 652 234 652 230 653 c 0
 223 654 220 657 220 665 c 0
 220 683 232 683 239 683 c 0
 280 683 323 680 364 680 c 0
 405 680 447 683 487 683 c 0
 491 683 501 683 501 671 c 0
 501 659 497 655 488 653 c 0
 483 652 477 652 470 652 c 0
 401 652 395 643 387 611 c 2
 252 71 l 2
 248 56 248 50 248 49 c 0
 248 38 248 31 310 31 c 0
 317 31 322 31 326 31 c 0
 334 30 338 27 338 19 c 0
 338 0 325 0 318 0 c 0
 278 0 235 3 194 3 c 0
 153 3 111 0 71 0 c 0
 64 0 57 2 57 13 c 0
EndSplineSet
EndChar
StartChar: Idieresis
Encoding: 207 207 169
Width: 385
Flags: MW
LayerCount: 2
Fore
SplineSet
438 829 m 0
 438 859 468 892 502 892 c 0
 528 892 545 872 545 849 c 0
 545 819 515 786 481 786 c 0
 457 786 438 803 438 829 c 0
259 829 m 0
 259 859 289 891 323 891 c 0
 347 891 367 874 367 848 c 0
 367 818 337 786 303 786 c 0
 279 786 259 803 259 829 c 0
57 13 m 0
 57 25 61 29 70 30 c 4
 74 31 80 31 87 31 c 0
 154 31 163 39 171 72 c 2
 307 616 l 2
 308 619 310 632 310 635 c 0
 310 652 281 652 247 652 c 0
 240 652 234 652 230 653 c 0
 223 654 220 657 220 665 c 0
 220 683 232 683 239 683 c 0
 280 683 323 680 364 680 c 0
 405 680 447 683 487 683 c 0
 491 683 501 683 501 671 c 0
 501 659 497 655 488 653 c 0
 483 652 477 652 470 652 c 0
 401 652 395 643 387 611 c 2
 252 71 l 2
 248 56 248 50 248 49 c 0
 248 38 248 31 310 31 c 0
 317 31 322 31 326 31 c 0
 334 30 338 27 338 19 c 0
 338 0 325 0 318 0 c 0
 278 0 235 3 194 3 c 0
 153 3 111 0 71 0 c 0
 64 0 57 2 57 13 c 0
EndSplineSet
EndChar
StartChar: Ograve
Encoding: 210 210 172
Width: 766
Flags: MW
LayerCount: 2
Fore
SplineSet
486 834 m 0
 486 851 503 871 522 871 c 0
 536 871 535 871 641 790 c 0
 649 784 662 776 662 767 c 0
 662 760 655 750 645 750 c 0
 643 750 642 750 640 751 c 4
 633 753 616 761 538 794 c 0
 530 797 521 801 511 805 c 0
 499 810 486 817 486 834 c 0
148 236 m 0
 148 468 355 705 560 705 c 0
 686 705 788 608 788 444 c 0
 788 291 704 145 591 58 c 4
 526 8 451 -22 378 -22 c 0
 242 -22 148 85 148 236 c 0
238 205 m 0
 238 86 294 4 385 4 c 0
 436 4 492 31 544 82 c 0
 569 107 593 138 614 174 c 0
 667 265 703 398 703 486 c 0
 703 620 631 680 553 680 c 0
 466 680 375 607 322 513 c 0
 252 391 238 251 238 205 c 0
EndSplineSet
EndChar
StartChar: Oacute
Encoding: 211 211 173
Width: 766
Flags: MW
LayerCount: 2
Fore
SplineSet
486 765 m 0
 486 775 495 779 499 782 c 2
 642 861 l 2
 648 864 660 871 671 871 c 0
 688 871 698 857 698 843 c 0
 698 812 675 811 548 766 c 0
 542 764 528 758 516 754 c 4
 509 752 502 750 500 750 c 0
 489 750 486 761 486 765 c 0
148 236 m 0
 148 468 355 705 560 705 c 0
 686 705 788 608 788 444 c 0
 788 291 704 145 591 58 c 4
 526 8 451 -22 378 -22 c 0
 242 -22 148 85 148 236 c 0
238 205 m 0
 238 86 294 4 385 4 c 0
 436 4 492 31 544 82 c 0
 569 107 593 138 614 174 c 0
 667 265 703 398 703 486 c 0
 703 620 631 680 553 680 c 0
 466 680 375 607 322 513 c 0
 252 391 238 251 238 205 c 0
EndSplineSet
EndChar
StartChar: Ocircumflex
Encoding: 212 212 174
Width: 766
Flags: MW
LayerCount: 2
Fore
SplineSet
444 757 m 0
 444 760 445 763 458 775 c 0
 473 789 503 815 566 871 c 0
 590 893 597 900 605 900 c 0
 606 900 608 900 609 899 c 4
 618 895 626 879 633 869 c 1
 654 835 667 812 677 796 c 0
 697 763 698 761 698 756 c 0
 698 748 690 741 682 741 c 0
 675 741 662 757 646 778 c 0
 631 799 613 824 597 847 c 1
 536 801 472 741 459 741 c 0
 454 741 444 744 444 757 c 0
148 236 m 0
 148 468 355 705 560 705 c 0
 686 705 788 608 788 444 c 0
 788 291 704 145 591 58 c 4
 526 8 451 -22 378 -22 c 0
 242 -22 148 85 148 236 c 0
238 205 m 0
 238 86 294 4 385 4 c 0
 436 4 492 31 544 82 c 0
 569 107 593 138 614 174 c 0
 667 265 703 398 703 486 c 0
 703 620 631 680 553 680 c 0
 466 680 375 607 322 513 c 0
 252 391 238 251 238 205 c 0
EndSplineSet
EndChar
StartChar: Otilde
Encoding: 213 213 175
Width: 766
Flags: MW
LayerCount: 2
Fore
SplineSet
409 811 m 0
 409 814 414 821 422 830 c 0
 444 854 492 891 534 891 c 0
 590 891 620 836 668 836 c 0
 672 836 677 836 683 838 c 0
 726 848 754 889 770 889 c 0
 775 889 779 884 779 880 c 0
 779 876 772 866 760 855 c 4
 735 831 691 800 654 800 c 0
 595 800 569 855 520 855 c 0
 516 855 511 855 505 853 c 0
 460 843 434 802 417 802 c 0
 411 802 409 807 409 811 c 0
148 236 m 0
 148 468 355 705 560 705 c 0
 686 705 788 608 788 444 c 0
 788 291 704 145 591 58 c 4
 526 8 451 -22 378 -22 c 0
 242 -22 148 85 148 236 c 0
238 205 m 0
 238 86 294 4 385 4 c 0
 436 4 492 31 544 82 c 0
 569 107 593 138 614 174 c 0
 667 265 703 398 703 486 c 0
 703 620 631 680 553 680 c 0
 466 680 375 607 322 513 c 0
 252 391 238 251 238 205 c 0
EndSplineSet
EndChar
StartChar: Odieresis
Encoding: 214 214 176
Width: 766
Flags: MW
LayerCount: 2
Fore
SplineSet
449 829 m 0
 449 859 478 891 512 891 c 0
 539 891 556 871 556 848 c 0
 556 815 524 786 492 786 c 0
 468 786 449 803 449 829 c 0
627 829 m 0
 627 859 657 891 691 891 c 0
 717 891 735 871 735 848 c 0
 735 815 703 786 671 786 c 0
 647 786 627 803 627 829 c 0
148 236 m 0
 148 468 355 705 560 705 c 0
 686 705 788 608 788 444 c 0
 788 291 704 145 591 58 c 4
 526 8 451 -22 378 -22 c 0
 242 -22 148 85 148 236 c 0
238 205 m 0
 238 86 294 4 385 4 c 0
 436 4 492 31 544 82 c 0
 569 107 593 138 614 174 c 0
 667 265 703 398 703 486 c 0
 703 620 631 680 553 680 c 0
 466 680 375 607 322 513 c 0
 252 391 238 251 238 205 c 0
EndSplineSet
EndChar
StartChar: multiply
Encoding: 215 215 177
Width: 766
Flags: MW
LayerCount: 2
Fore
SplineSet
173 47 m 0
 173 59 186 68 198 78 c 2
 418 253 l 1
 418 254 l 1
 404 271 314 391 288 426 c 0
 283 433 275 443 275 453 c 0
 275 462 282 471 294 471 c 0
 306 471 314 458 321 450 c 0
 325 444 444 285 449 279 c 1
 477 300 679 463 685 466 c 0
 689 469 694 471 699 471 c 0
 710 471 717 462 717 452 c 0
 717 441 706 433 695 424 c 2
 473 247 l 1
 473 246 l 1
 487 229 577 108 603 74 c 0
 608 66 616 57 616 47 c 0
 616 36 607 29 597 29 c 0
 585 29 577 42 570 51 c 2
 442 221 l 1
 441 221 l 1
 420 203 397 186 221 45 c 0
 215 40 203 29 192 29 c 0
 183 29 173 36 173 47 c 0
EndSplineSet
EndChar
StartChar: Oslash
Encoding: 216 216 133
Width: 766
Flags: MW
LayerCount: 2
Fore
SplineSet
117 -46 m 0
 117 -36 204 58 204 58 c 1
 204 59 l 1
 194 72 148 130 148 236 c 0
 148 465 349 700 551 705 c 0
 553 705 556 705 558 705 c 0
 652 705 704 653 715 643 c 1
 732 663 787 725 789 728 c 0
 794 733 800 741 808 741 c 0
 815 741 819 737 819 729 c 0
 819 719 732 624 732 624 c 1
 742 610 788 553 788 445 c 0
 788 315 727 190 640 102 c 0
 565 26 470 -22 377 -22 c 0
 284 -22 233 29 222 40 c 1
 221 40 l 1
 170 -19 149 -44 138 -53 c 4
 134 -57 131 -58 128 -58 c 0
 122 -58 117 -54 117 -46 c 0
221 195 m 0
 221 158 224 135 238 97 c 1
 685 609 l 1
 685 609 l 1
 672 631 633 683 553 683 c 0
 473 683 399 630 352 575 c 0
 288 500 252 394 235 309 c 0
 225 261 221 220 221 195 c 0
250 73 m 1
 274 35 318 1 383 1 c 0
 416 1 507 12 591 113 c 1
 615 142 635 176 651 212 c 0
 698 317 715 435 715 486 c 0
 715 524 712 547 698 585 c 1
 250 73 l 1
EndSplineSet
EndChar
StartChar: Ugrave
Encoding: 217 217 178
Width: 743
Flags: MW
LayerCount: 2
Fore
SplineSet
475 834 m 0
 475 849 490 871 511 871 c 0
 521 871 530 866 538 860 c 0
 650 778 650 773 650 767 c 0
 650 760 644 750 633 750 c 0
 631 750 630 750 628 751 c 4
 620 753 601 763 501 805 c 0
 488 810 475 817 475 834 c 0
202 166 m 0
 202 176 202 198 210 230 c 2
 306 616 l 2
 310 630 310 632 310 635 c 0
 310 652 283 652 252 652 c 0
 244 652 238 652 234 653 c 0
 228 654 225 657 225 664 c 0
 225 683 238 683 244 683 c 0
 283 683 324 680 364 680 c 0
 403 680 444 683 482 683 c 0
 489 683 496 681 496 670 c 0
 496 657 491 653 481 652 c 4
 477 652 472 652 466 652 c 0
 403 652 395 644 387 612 c 2
 287 210 l 2
 282 188 277 156 277 134 c 0
 277 43 332 9 384 9 c 0
 478 9 584 100 616 229 c 2
 705 585 l 2
 707 593 709 600 709 609 c 0
 709 630 701 650 649 652 c 0
 640 652 631 653 631 664 c 0
 631 683 644 683 649 683 c 0
 680 683 713 680 745 680 c 0
 776 680 809 683 839 683 c 0
 848 683 852 678 852 670 c 0
 852 653 840 652 837 652 c 0
 808 651 752 648 736 584 c 2
 645 218 l 2
 642 206 638 193 633 181 c 0
 593 81 493 -22 380 -22 c 0
 286 -22 202 46 202 166 c 0
EndSplineSet
EndChar
StartChar: Ucircumflex
Encoding: 219 219 180
Width: 743
Flags: MW
LayerCount: 2
Fore
SplineSet
445 757 m 0
 445 760 446 762 456 772 c 0
 470 785 500 811 567 871 c 0
 591 893 598 900 606 900 c 0
 607 900 609 900 610 899 c 4
 619 895 627 879 634 869 c 1
 650 843 662 823 671 808 c 0
 698 763 699 761 699 756 c 0
 699 748 691 741 683 741 c 0
 676 741 659 761 641 786 c 0
 627 805 612 827 598 847 c 1
 534 799 473 741 460 741 c 0
 455 741 445 744 445 757 c 0
202 166 m 0
 202 176 202 198 210 230 c 2
 306 616 l 2
 310 630 310 632 310 635 c 0
 310 652 283 652 252 652 c 0
 244 652 238 652 234 653 c 0
 228 654 225 657 225 664 c 0
 225 683 238 683 244 683 c 0
 283 683 324 680 364 680 c 0
 403 680 444 683 482 683 c 0
 489 683 496 681 496 670 c 0
 496 657 491 653 481 652 c 4
 477 652 472 652 466 652 c 0
 403 652 395 644 387 612 c 2
 287 210 l 2
 282 188 277 156 277 134 c 0
 277 43 332 9 384 9 c 0
 478 9 584 100 616 229 c 2
 705 585 l 2
 707 593 709 600 709 609 c 0
 709 630 701 650 649 652 c 0
 640 652 631 653 631 664 c 0
 631 683 644 683 649 683 c 0
 680 683 713 680 745 680 c 0
 776 680 809 683 839 683 c 0
 848 683 852 678 852 670 c 0
 852 653 840 652 837 652 c 0
 808 651 752 648 736 584 c 2
 645 218 l 2
 642 206 638 193 633 181 c 0
 593 81 493 -22 380 -22 c 0
 286 -22 202 46 202 166 c 0
EndSplineSet
EndChar
StartChar: Udieresis
Encoding: 220 220 181
Width: 743
Flags: MW
LayerCount: 2
Fore
SplineSet
437 829 m 0
 437 863 471 891 501 891 c 0
 525 891 545 874 545 848 c 0
 545 817 515 786 481 786 c 0
 457 786 437 803 437 829 c 0
616 829 m 0
 616 859 646 891 680 891 c 0
 704 891 724 874 724 848 c 0
 724 818 695 786 660 786 c 0
 636 786 616 803 616 829 c 0
202 166 m 0
 202 176 202 198 210 230 c 2
 306 616 l 2
 310 630 310 632 310 635 c 0
 310 652 283 652 252 652 c 0
 244 652 238 652 234 653 c 0
 228 654 225 657 225 664 c 0
 225 683 238 683 244 683 c 0
 283 683 324 680 364 680 c 0
 403 680 444 683 482 683 c 0
 489 683 496 681 496 670 c 0
 496 657 491 653 481 652 c 4
 477 652 472 652 466 652 c 0
 403 652 395 644 387 612 c 2
 287 210 l 2
 282 188 277 156 277 134 c 0
 277 43 332 9 384 9 c 0
 478 9 584 100 616 229 c 2
 705 585 l 2
 707 593 709 600 709 609 c 0
 709 630 701 650 649 652 c 0
 640 652 631 653 631 664 c 0
 631 683 644 683 649 683 c 0
 680 683 713 680 745 680 c 0
 776 680 809 683 839 683 c 0
 848 683 852 678 852 670 c 0
 852 653 840 652 837 652 c 0
 808 651 752 648 736 584 c 2
 645 218 l 2
 642 206 638 193 633 181 c 0
 593 81 493 -22 380 -22 c 0
 286 -22 202 46 202 166 c 0
EndSplineSet
EndChar
StartChar: Thorn
Encoding: 222 222 183
Width: 627
Flags: MW
LayerCount: 2
Fore
SplineSet
64 14 m 0
 64 27 71 30 84 31 c 0
 88 31 92 31 96 31 c 0
 105 31 117 31 130 33 c 0
 142 35 151 37 157 43 c 0
 170 55 174 80 187 133 c 2
 305 606 l 2
 308 618 310 626 310 633 c 0
 310 652 288 652 266 652 c 2
 265 652 l 2
 257 652 250 652 244 653 c 0
 234 654 227 657 227 665 c 0
 227 674 231 683 247 683 c 2
 248 683 l 2
 259 683 287 680 342 680 c 0
 348 680 355 680 362 680 c 0
 428 680 461 682 472 682 c 0
 486 682 490 677 490 670 c 0
 490 652 471 651 450 651 c 4
 445 651 440 651 435 651 c 0
 421 650 407 648 398 640 c 0
 384 628 386 620 368 552 c 1
 488 552 l 2
 601 552 646 479 646 409 c 0
 646 314 560 203 440 181 c 0
 421 178 402 177 382 177 c 2
 274 177 l 1
 274 177 244 64 244 52 c 0
 244 33 264 31 284 31 c 2
 299 31 l 2
 310 31 320 31 324 26 c 0
 327 23 328 20 328 17 c 0
 328 9 319 0 307 0 c 0
 296 0 262 3 193 3 c 0
 141 3 109 1 90 1 c 0
 69 1 64 3 64 14 c 0
282 208 m 1
 378 208 l 2
 470 208 555 310 555 417 c 0
 555 462 538 521 468 521 c 2
 360 521 l 1
 282 208 l 1
EndSplineSet
EndChar
StartChar: germandbls
Encoding: 223 223 141
Width: 537
Flags: MW
LayerCount: 2
Fore
SplineSet
-20 -142 m 0
 -20 -111 0 -85 30 -85 c 0
 50 -85 64 -99 64 -117 c 0
 64 -136 49 -162 16 -165 c 1
 18 -168 27 -182 45 -182 c 0
 59 -182 71 -174 81 -162 c 0
 104 -134 114 -86 118 -74 c 0
 144 31 203 352 213 400 c 1
 199 400 184 399 170 399 c 2
 156 399 l 2
 141 399 130 400 128 409 c 1
 125 417 130 428 143 430 c 0
 152 431 161 430 170 430 c 2
 219 430 l 1
 219 430 l 1
 237 541 253 628 316 673 c 4
 346 694 386 706 442 706 c 0
 528 706 578 654 578 592 c 0
 578 534 542 481 507 436 c 0
 475 394 444 360 444 335 c 0
 444 284 523 247 523 165 c 0
 523 91 445 -11 344 -11 c 0
 290 -11 247 19 247 63 c 0
 247 90 263 109 285 109 c 0
 299 109 310 99 310 84 c 0
 310 70 300 55 280 49 c 1
 294 20 322 11 342 11 c 0
 412 11 444 133 444 161 c 0
 444 220 394 225 394 304 c 0
 394 385 441 403 466 439 c 0
 491 474 515 571 515 600 c 0
 515 634 500 683 440 683 c 0
 410 683 365 673 341 644 c 0
 329 630 322 615 311 565 c 0
 297 505 276 393 233 170 c 0
 208 41 191 -40 166 -97 c 0
 152 -129 136 -154 114 -174 c 0
 83 -203 55 -205 45 -205 c 0
 9 -205 -20 -180 -20 -142 c 0
EndSplineSet
EndChar
StartChar: aacute
Encoding: 225 225 185
Width: 511
Flags: MW
LayerCount: 2
Fore
SplineSet
346 514 m 0
 346 524 358 532 366 538 c 0
 372 543 378 548 384 553 c 4
 504 651 503 651 517 651 c 0
 532 651 545 638 545 623 c 0
 545 601 519 588 515 586 c 0
 501 578 488 570 476 563 c 0
 367 499 365 499 360 499 c 0
 352 499 346 506 346 514 c 0
108 144 m 0
 108 290 226 442 337 442 c 0
 369 442 401 426 420 383 c 1
 421 388 428 422 460 422 c 0
 470 422 487 417 487 396 c 0
 487 391 487 389 483 375 c 2
 415 103 l 2
 408 75 408 59 408 52 c 0
 408 38 408 11 434 11 c 0
 468 11 487 74 501 130 c 0
 507 152 508 153 520 153 c 0
 522 153 524 153 526 153 c 0
 531 152 535 150 535 143 c 0
 535 141 523 83 505 45 c 0
 496 27 485 10 470 0 c 0
 460 -7 447 -11 432 -11 c 0
 397 -11 360 10 349 59 c 1
 309 10 265 -11 229 -11 c 0
 154 -11 108 59 108 144 c 0
176 100 m 0
 176 70 184 11 231 11 c 0
 267 11 305 44 330 77 c 4
 344 95 353 113 356 124 c 2
 403 313 l 2
 405 319 406 324 406 326 c 0
 406 368 381 420 337 420 c 0
 296 420 250 370 225 309 c 0
 207 267 176 150 176 100 c 0
EndSplineSet
EndChar
StartChar: atilde
Encoding: 227 227 187
Width: 511
Flags: MW
LayerCount: 2
Fore
SplineSet
232 543 m 0
 232 549 236 554 254 571 c 0
 309 623 337 632 358 632 c 2
 365 632 l 1
 384 629 397 614 407 599 c 0
 410 595 423 572 437 569 c 0
 468 563 522 618 535 627 c 0
 537 628 539 630 542 631 c 0
 544 631 545 631 547 631 c 1
 551 629 554 625 554 621 c 0
 554 620 553 618 553 617 c 0
 550 610 540 601 532 594 c 0
 486 551 456 535 435 532 c 1
 422 532 l 1
 403 535 390 550 380 565 c 0
 373 575 364 591 349 596 c 0
 340 598 330 594 321 590 c 0
 302 581 286 567 270 553 c 0
 264 548 253 536 244 534 c 4
 243 534 241 534 240 534 c 0
 235 535 232 539 232 543 c 0
108 144 m 0
 108 290 226 442 337 442 c 0
 369 442 401 426 420 383 c 1
 421 388 428 422 460 422 c 0
 470 422 487 417 487 396 c 0
 487 391 487 389 483 375 c 2
 415 103 l 2
 408 75 408 59 408 52 c 0
 408 38 408 11 434 11 c 0
 468 11 487 74 501 130 c 0
 507 152 508 153 520 153 c 0
 522 153 524 153 526 153 c 0
 531 152 535 150 535 143 c 0
 535 141 523 83 505 45 c 0
 496 27 485 10 470 0 c 0
 460 -7 447 -11 432 -11 c 0
 397 -11 360 10 349 59 c 1
 309 10 265 -11 229 -11 c 0
 154 -11 108 59 108 144 c 0
176 100 m 0
 176 70 184 11 231 11 c 0
 267 11 305 44 330 77 c 4
 344 95 353 113 356 124 c 2
 403 313 l 2
 405 319 406 324 406 326 c 0
 406 368 381 420 337 420 c 0
 296 420 250 370 225 309 c 0
 207 267 176 150 176 100 c 0
EndSplineSet
EndChar
StartChar: adieresis
Encoding: 228 228 188
Width: 511
Flags: MW
LayerCount: 2
Fore
SplineSet
264 596 m 0
 264 627 293 659 327 659 c 0
 352 659 371 642 371 616 c 0
 371 586 342 553 307 553 c 0
 283 553 264 571 264 596 c 0
442 596 m 0
 442 627 472 659 506 659 c 0
 532 659 550 640 550 616 c 0
 550 584 519 553 486 553 c 0
 462 553 442 571 442 596 c 0
108 144 m 0
 108 290 226 442 337 442 c 0
 369 442 401 426 420 383 c 1
 421 388 428 422 460 422 c 0
 470 422 487 417 487 396 c 0
 487 391 487 389 483 375 c 2
 415 103 l 2
 408 75 408 59 408 52 c 0
 408 38 408 11 434 11 c 0
 468 11 487 74 501 130 c 0
 507 152 508 153 520 153 c 0
 522 153 524 153 526 153 c 0
 531 152 535 150 535 143 c 0
 535 141 523 83 505 45 c 0
 496 27 485 10 470 0 c 0
 460 -7 447 -11 432 -11 c 0
 397 -11 360 10 349 59 c 1
 309 10 265 -11 229 -11 c 0
 154 -11 108 59 108 144 c 0
176 100 m 0
 176 70 184 11 231 11 c 0
 267 11 305 44 330 77 c 4
 344 95 353 113 356 124 c 2
 403 313 l 2
 405 319 406 324 406 326 c 0
 406 368 381 420 337 420 c 0
 296 420 250 370 225 309 c 0
 207 267 176 150 176 100 c 0
EndSplineSet
EndChar
StartChar: aring
Encoding: 229 229 189
Width: 511
Flags: MW
LayerCount: 2
Fore
SplineSet
281 564 m 0
 281 613 335 661 394 661 c 0
 436 661 468 635 468 597 c 0
 468 548 413 500 355 500 c 0
 313 500 281 525 281 564 c 0
311 560 m 0
 311 532 331 522 360 522 c 0
 417 522 433 562 437 586 c 4
 438 592 438 598 438 601 c 0
 438 627 419 638 389 638 c 0
 334 638 316 600 312 573 c 0
 311 568 311 564 311 560 c 0
108 144 m 0
 108 290 226 442 337 442 c 0
 369 442 401 426 420 383 c 1
 421 388 428 422 460 422 c 0
 470 422 487 417 487 396 c 0
 487 391 487 389 483 375 c 2
 415 103 l 2
 408 75 408 59 408 52 c 0
 408 38 408 11 434 11 c 0
 468 11 487 74 501 130 c 0
 507 152 508 153 520 153 c 0
 522 153 524 153 526 153 c 0
 531 152 535 150 535 143 c 0
 535 141 523 83 505 45 c 0
 496 27 485 10 470 0 c 0
 460 -7 447 -11 432 -11 c 0
 397 -11 360 10 349 59 c 1
 309 10 265 -11 229 -11 c 0
 154 -11 108 59 108 144 c 0
176 100 m 0
 176 70 184 11 231 11 c 0
 267 11 305 44 330 77 c 4
 344 95 353 113 356 124 c 2
 403 313 l 2
 405 319 406 324 406 326 c 0
 406 368 381 420 337 420 c 0
 296 420 250 370 225 309 c 0
 207 267 176 150 176 100 c 0
EndSplineSet
EndChar
StartChar: ae
Encoding: 230 230 136
Width: 715
Flags: MW
LayerCount: 2
Fore
SplineSet
108 147 m 0
 108 303 228 442 336 442 c 0
 389 442 412 405 425 385 c 1
 431 410 436 441 465 441 c 0
 479 441 488 429 488 417 c 0
 488 411 486 404 483 389 c 1
 519 417 563 442 617 442 c 0
 673 442 717 408 717 357 c 0
 717 337 710 266 605 242 c 0
 561 231 508 230 456 230 c 2
 443 230 l 1
 436 201 429 167 429 133 c 0
 429 58 463 11 512 11 c 0
 542 11 604 26 661 98 c 1
 666 106 674 118 682 118 c 1
 689 119 696 110 696 104 c 0
 696 83 614 -11 512 -11 c 0
 436 -11 397 44 383 113 c 9
 383 113 l 17
 371 95 309 -11 228 -11 c 0
 156 -11 108 55 108 147 c 0
176 103 m 0
 176 47 195 12 231 12 c 0
 299 12 367 131 377 168 c 0
 380 177 380 186 381 196 c 0
 388 258 410 310 410 332 c 0
 410 351 395 419 337 419 c 0
 302 419 269 387 249 358 c 0
 229 328 211 280 198 232 c 0
 184 179 176 128 176 103 c 0
449 253 m 1
 538 253 680 257 680 358 c 0
 680 393 655 419 616 419 c 0
 550 419 478 357 449 253 c 1
EndSplineSet
EndChar
StartChar: ccedilla
Encoding: 231 231 190
Width: 460
Flags: MW
LayerCount: 2
Fore
SplineSet
103 -181 m 0
 103 -172 112 -170 124 -170 c 2
 141 -170 l 1
 253 -169 270 -133 270 -108 c 0
 270 -83 251 -77 234 -73 c 0
 221 -70 209 -68 209 -58 c 0
 209 -52 213 -41 221 -7 c 1
 134 14 109 93 109 153 c 0
 109 298 235 442 363 442 c 0
 423 442 469 407 469 356 c 0
 469 312 439 296 419 296 c 0
 399 296 385 309 385 328 c 0
 385 339 392 372 435 377 c 1
 422 403 396 419 365 419 c 0
 331 419 303 404 279 381 c 0
 210 314 179 175 179 114 c 0
 179 75 189 39 228 17 c 1
 235 22 238 22 248 22 c 2
 270 22 l 2
 282 22 285 18 289 14 c 1
 304 17 317 21 329 26 c 4
 415 59 436 118 453 118 c 2
 454 118 l 1
 462 117 466 112 466 106 c 0
 466 99 462 91 455 82 c 0
 415 33 358 2 285 -10 c 1
 285 -10 l 1
 274 -53 l 1
 302 -59 335 -73 335 -109 c 0
 335 -179 236 -191 149 -192 c 0
 143 -192 136 -192 130 -192 c 0
 117 -192 103 -192 103 -181 c 0
EndSplineSet
EndChar
StartChar: egrave
Encoding: 232 232 191
Width: 460
Flags: MW
LayerCount: 2
Fore
SplineSet
248 614 m 0
 248 632 266 650 284 651 c 1
 298 651 303 649 328 615 c 4
 337 602 349 586 365 563 c 0
 378 544 395 525 395 515 c 0
 395 505 385 499 378 499 c 0
 372 499 367 503 345 521 c 0
 316 545 295 562 280 574 c 0
 254 595 248 603 248 614 c 0
114 164 m 0
 114 341 257 442 362 442 c 0
 426 442 463 403 463 357 c 0
 463 350 463 285 384 253 c 0
 336 234 269 231 239 231 c 2
 200 231 l 1
 193 204 183 159 183 121 c 0
 183 82 194 11 259 11 c 0
 276 11 365 15 439 109 c 0
 447 119 448 120 452 120 c 0
 460 120 468 109 468 104 c 0
 468 89 385 -11 257 -11 c 0
 162 -11 114 74 114 164 c 0
206 253 m 1
 227 253 l 2
 260 253 425 253 425 359 c 0
 425 393 402 420 362 420 c 0
 352 420 249 417 206 253 c 1
EndSplineSet
EndChar
StartChar: eacute
Encoding: 233 233 192
Width: 460
Flags: MW
LayerCount: 2
Fore
SplineSet
321 514 m 0
 321 524 333 532 341 538 c 0
 348 543 354 549 360 554 c 0
 479 651 478 651 492 651 c 0
 507 651 520 638 520 623 c 0
 520 601 494 588 490 586 c 0
 474 577 461 568 448 561 c 4
 342 499 339 499 335 499 c 0
 327 499 321 506 321 514 c 0
114 164 m 0
 114 341 257 442 362 442 c 0
 426 442 463 403 463 357 c 0
 463 350 463 285 384 253 c 0
 336 234 269 231 239 231 c 2
 200 231 l 1
 193 204 183 159 183 121 c 0
 183 82 194 11 259 11 c 0
 276 11 365 15 439 109 c 0
 447 119 448 120 452 120 c 0
 460 120 468 109 468 104 c 0
 468 89 385 -11 257 -11 c 0
 162 -11 114 74 114 164 c 0
206 253 m 1
 227 253 l 2
 260 253 425 253 425 359 c 0
 425 393 402 420 362 420 c 0
 352 420 249 417 206 253 c 1
EndSplineSet
EndChar
StartChar: ecircumflex
Encoding: 234 234 193
Width: 460
Flags: MW
LayerCount: 2
Fore
SplineSet
223 484 m 0
 223 493 234 501 240 507 c 0
 375 634 379 636 386 636 c 0
 397 636 405 618 413 603 c 0
 477 493 478 492 478 486 c 0
 478 477 469 470 461 470 c 0
 451 470 446 479 410 533 c 2
 377 583 l 1
 377 583 l 1
 322 538 273 492 250 476 c 0
 245 472 240 470 238 470 c 0
 231 470 223 477 223 484 c 0
114 164 m 0
 114 341 257 442 362 442 c 0
 426 442 463 403 463 357 c 0
 463 350 463 285 384 253 c 0
 336 234 269 231 239 231 c 2
 200 231 l 1
 193 204 183 159 183 121 c 0
 183 82 194 11 259 11 c 0
 276 11 365 15 439 109 c 0
 447 119 448 120 452 120 c 0
 460 120 468 109 468 104 c 0
 468 89 385 -11 257 -11 c 0
 162 -11 114 74 114 164 c 0
206 253 m 1
 227 253 l 2
 260 253 425 253 425 359 c 0
 425 393 402 420 362 420 c 0
 352 420 249 417 206 253 c 1
EndSplineSet
EndChar
StartChar: edieresis
Encoding: 235 235 194
Width: 460
Flags: MW
LayerCount: 2
Fore
SplineSet
417 596 m 0
 417 626 446 658 480 658 c 0
 505 658 524 641 524 615 c 0
 524 582 492 553 460 553 c 0
 436 553 417 570 417 596 c 0
238 596 m 0
 238 626 268 659 302 659 c 0
 328 659 345 639 345 616 c 0
 345 586 315 553 281 553 c 0
 257 553 238 570 238 596 c 0
114 164 m 0
 114 341 257 442 362 442 c 0
 426 442 463 403 463 357 c 0
 463 350 463 285 384 253 c 0
 336 234 269 231 239 231 c 2
 200 231 l 1
 193 204 183 159 183 121 c 0
 183 82 194 11 259 11 c 0
 276 11 365 15 439 109 c 0
 447 119 448 120 452 120 c 0
 460 120 468 109 468 104 c 0
 468 89 385 -11 257 -11 c 0
 162 -11 114 74 114 164 c 0
206 253 m 1
 227 253 l 2
 260 253 425 253 425 359 c 0
 425 393 402 420 362 420 c 0
 352 420 249 417 206 253 c 1
EndSplineSet
EndChar
StartChar: igrave
Encoding: 236 236 195
Width: 306
Flags: MW
LayerCount: 2
Fore
SplineSet
172 614 m 0
 172 635 193 651 209 651 c 0
 220 651 226 648 244 625 c 4
 254 612 268 592 289 563 c 0
 302 545 319 525 319 515 c 0
 319 505 309 499 302 499 c 0
 296 499 291 503 269 521 c 0
 238 547 217 563 202 575 c 0
 177 596 172 603 172 614 c 0
83 288 m 0
 83 293 117 442 211 442 c 0
 248 442 286 417 286 362 c 0
 286 343 284 335 274 306 c 2
 210 135 l 2
 197 98 184 65 184 39 c 0
 184 12 198 11 206 11 c 0
 227 11 244 23 257 40 c 0
 281 71 294 117 299 136 c 0
 303 151 303 153 316 153 c 0
 318 153 319 153 321 153 c 0
 326 153 331 151 331 143 c 0
 331 139 298 -11 204 -11 c 0
 152 -11 128 30 128 69 c 0
 128 89 132 100 146 138 c 0
 158 171 170 204 183 237 c 1
 213 320 l 2
 220 339 231 368 231 392 c 0
 231 415 220 420 209 420 c 0
 151 420 125 327 116 294 c 0
 112 280 111 278 98 278 c 0
 96 278 94 278 92 278 c 4
 88 279 83 281 83 288 c 0
EndSplineSet
EndChar
StartChar: iacute
Encoding: 237 237 196
Width: 306
Flags: MW
LayerCount: 2
Fore
SplineSet
244 514 m 0
 244 523 256 532 264 538 c 0
 272 544 279 550 286 556 c 4
 401 650 401 651 416 651 c 0
 431 651 443 638 443 623 c 0
 443 601 417 588 413 585 c 0
 400 578 389 571 378 565 c 0
 267 501 264 499 258 499 c 0
 250 499 244 506 244 514 c 0
83 288 m 0
 83 293 117 442 211 442 c 0
 248 442 286 417 286 362 c 0
 286 343 284 335 274 306 c 2
 210 135 l 2
 197 98 184 65 184 39 c 0
 184 12 198 11 206 11 c 0
 227 11 244 23 257 40 c 0
 281 71 294 117 299 136 c 0
 303 151 303 153 316 153 c 0
 318 153 319 153 321 153 c 0
 326 153 331 151 331 143 c 0
 331 139 298 -11 204 -11 c 0
 152 -11 128 30 128 69 c 0
 128 89 132 100 146 138 c 0
 158 171 170 204 183 237 c 1
 213 320 l 2
 220 339 231 368 231 392 c 0
 231 415 220 420 209 420 c 0
 151 420 125 327 116 294 c 0
 112 280 111 278 98 278 c 0
 96 278 94 278 92 278 c 4
 88 279 83 281 83 288 c 0
EndSplineSet
EndChar
StartChar: icircumflex
Encoding: 238 238 197
Width: 306
Flags: MW
LayerCount: 2
Fore
SplineSet
117 484 m 0
 117 493 127 501 134 507 c 0
 269 634 272 636 279 636 c 0
 290 636 298 618 307 603 c 0
 370 493 371 492 371 485 c 0
 371 477 362 470 354 470 c 0
 344 470 341 480 304 533 c 0
 294 547 280 568 271 583 c 9
 271 583 l 17
 217 540 170 496 146 478 c 0
 139 473 134 470 131 470 c 0
 124 470 117 477 117 484 c 0
83 288 m 0
 83 293 117 442 211 442 c 0
 248 442 286 417 286 362 c 0
 286 343 284 335 274 306 c 2
 210 135 l 2
 197 98 184 65 184 39 c 0
 184 12 198 11 206 11 c 0
 227 11 244 23 257 40 c 0
 281 71 294 117 299 136 c 0
 303 151 303 153 316 153 c 0
 318 153 319 153 321 153 c 0
 326 153 331 151 331 143 c 0
 331 139 298 -11 204 -11 c 0
 152 -11 128 30 128 69 c 0
 128 89 132 100 146 138 c 0
 158 171 170 204 183 237 c 1
 213 320 l 2
 220 339 231 368 231 392 c 0
 231 415 220 420 209 420 c 0
 151 420 125 327 116 294 c 0
 112 280 111 278 98 278 c 0
 96 278 94 278 92 278 c 4
 88 279 83 281 83 288 c 0
EndSplineSet
EndChar
StartChar: idieresis
Encoding: 239 239 198
Width: 306
Flags: MW
LayerCount: 2
Fore
SplineSet
161 597 m 0
 161 627 191 659 225 659 c 0
 249 659 269 641 269 616 c 0
 269 585 239 553 205 553 c 0
 179 553 161 573 161 597 c 0
340 596 m 0
 340 626 370 659 404 659 c 0
 430 659 447 639 447 616 c 0
 447 586 417 553 383 553 c 0
 359 553 340 570 340 596 c 0
83 288 m 0
 83 293 117 442 211 442 c 0
 248 442 286 417 286 362 c 0
 286 343 284 335 274 306 c 2
 210 135 l 2
 197 98 184 65 184 39 c 0
 184 12 198 11 206 11 c 0
 227 11 244 23 257 40 c 0
 281 71 294 117 299 136 c 0
 303 151 303 153 316 153 c 0
 318 153 319 153 321 153 c 0
 326 153 331 151 331 143 c 0
 331 139 298 -11 204 -11 c 0
 152 -11 128 30 128 69 c 0
 128 89 132 100 146 138 c 0
 158 171 170 204 183 237 c 1
 213 320 l 2
 220 339 231 368 231 392 c 0
 231 415 220 420 209 420 c 0
 151 420 125 327 116 294 c 0
 112 280 111 278 98 278 c 0
 96 278 94 278 92 278 c 4
 88 279 83 281 83 288 c 0
EndSplineSet
EndChar
StartChar: eth
Encoding: 240 240 199
Width: 511
Flags: MW
LayerCount: 2
Fore
SplineSet
96 153 m 0
 96 297 232 447 364 447 c 0
 417 447 442 412 453 392 c 1
 446 472 424 520 382 580 c 1
 244 510 l 1
 236 533 l 1
 366 598 l 1
 366 598 l 1
 337 630 297 658 259 677 c 9
 259 677 l 21
 275 688 280 692 287 692 c 0
 305 692 374 659 416 624 c 1
 556 694 l 1
 563 671 l 1
 435 607 l 1
 499 541 533 459 533 357 c 0
 533 289 515 219 503 187 c 0
 463 73 354 -11 252 -11 c 0
 158 -11 96 58 96 153 c 0
167 118 m 0
 167 47 209 14 258 14 c 0
 298 14 330 31 356 56 c 0
 426 126 447 262 447 308 c 0
 447 380 413 425 360 425 c 0
 311 425 267 394 238 355 c 0
 196 299 167 171 167 118 c 0
EndSplineSet
EndChar
StartChar: ntilde
Encoding: 241 241 200
Width: 562
Flags: MW
LayerCount: 2
Fore
SplineSet
266 543 m 0
 266 549 270 554 288 571 c 0
 343 623 371 632 392 632 c 2
 399 632 l 1
 418 629 431 614 441 599 c 0
 444 595 457 572 471 569 c 0
 502 563 556 618 569 627 c 0
 571 628 574 630 577 631 c 0
 578 631 580 631 581 631 c 1
 585 629 588 625 588 621 c 0
 588 620 587 618 587 617 c 0
 584 610 574 601 566 594 c 0
 520 551 490 535 469 532 c 1
 456 532 l 1
 437 535 424 550 414 565 c 0
 407 575 398 591 383 596 c 0
 374 598 364 594 355 590 c 0
 336 581 320 567 304 553 c 0
 298 548 288 537 279 534 c 4
 277 533 276 534 274 534 c 0
 269 535 266 539 266 543 c 0
83 288 m 0
 83 290 96 349 115 389 c 1
 131 419 151 442 187 442 c 0
 230 442 264 412 271 363 c 1
 284 382 332 442 414 442 c 0
 463 442 518 420 518 338 c 0
 518 280 477 168 457 115 c 0
 449 91 439 65 439 40 c 0
 439 26 440 11 461 11 c 0
 519 11 546 109 554 136 c 0
 558 151 558 153 571 153 c 0
 578 153 586 153 586 143 c 0
 586 138 552 -11 459 -11 c 0
 411 -11 383 25 383 69 c 0
 383 90 386 99 399 133 c 1
 413 173 457 292 457 354 c 0
 457 375 455 420 411 420 c 0
 335 420 290 345 276 321 c 0
 259 292 259 291 246 240 c 0
 241 218 235 197 230 175 c 2
 190 15 l 1
 183 -4 166 -11 154 -11 c 0
 134 -11 126 4 126 15 c 0
 126 18 127 23 129 29 c 2
 204 329 l 2
 208 345 211 364 211 380 c 0
 211 391 211 420 185 420 c 0
 154 420 135 371 117 301 c 0
 112 279 111 278 98 278 c 0
 93 278 83 278 83 288 c 0
EndSplineSet
EndChar
StartChar: ograve
Encoding: 242 242 201
Width: 511
Flags: MW
LayerCount: 2
Fore
SplineSet
274 614 m 0
 274 636 296 651 311 651 c 0
 330 651 340 632 347 623 c 0
 408 538 421 524 421 515 c 0
 421 505 411 499 404 499 c 0
 397 499 393 503 371 521 c 0
 343 544 322 560 308 572 c 4
 280 595 274 602 274 614 c 0
110 154 m 0
 110 300 239 442 363 442 c 0
 450 442 509 373 509 278 c 0
 509 131 380 -11 256 -11 c 0
 173 -11 110 51 110 154 c 0
180 114 m 0
 180 42 217 11 256 11 c 0
 305 11 356 56 385 111 c 0
 417 171 439 274 439 317 c 0
 439 376 411 420 362 420 c 0
 323 420 275 390 238 329 c 0
 224 305 210 269 200 232 c 4
 188 187 180 141 180 114 c 0
EndSplineSet
EndChar
StartChar: oacute
Encoding: 243 243 202
Width: 511
Flags: MW
LayerCount: 2
Fore
SplineSet
346 514 m 0
 346 524 358 532 366 538 c 0
 375 546 384 552 392 559 c 0
 504 651 503 651 517 651 c 0
 532 651 545 638 545 623 c 0
 545 601 519 588 515 586 c 0
 500 577 486 569 474 562 c 4
 367 499 364 499 360 499 c 0
 352 499 346 506 346 514 c 0
110 154 m 0
 110 300 239 442 363 442 c 0
 450 442 509 373 509 278 c 0
 509 131 380 -11 256 -11 c 0
 173 -11 110 51 110 154 c 0
180 114 m 0
 180 42 217 11 256 11 c 0
 305 11 356 56 385 111 c 0
 417 171 439 274 439 317 c 0
 439 376 411 420 362 420 c 0
 323 420 275 390 238 329 c 0
 224 305 210 269 200 232 c 4
 188 187 180 141 180 114 c 0
EndSplineSet
EndChar
StartChar: ocircumflex
Encoding: 244 244 203
Width: 511
Flags: MW
LayerCount: 2
Fore
SplineSet
249 484 m 0
 249 493 259 501 266 507 c 0
 401 634 404 636 411 636 c 0
 422 636 430 618 439 603 c 0
 502 493 503 492 503 486 c 0
 503 477 495 470 486 470 c 0
 476 470 473 480 436 533 c 0
 427 546 412 569 403 583 c 9
 403 583 l 17
 355 544 311 503 285 483 c 0
 274 475 267 470 263 470 c 0
 256 470 249 477 249 484 c 0
110 154 m 0
 110 300 239 442 363 442 c 0
 450 442 509 373 509 278 c 0
 509 131 380 -11 256 -11 c 0
 173 -11 110 51 110 154 c 0
180 114 m 0
 180 42 217 11 256 11 c 0
 305 11 356 56 385 111 c 0
 417 171 439 274 439 317 c 0
 439 376 411 420 362 420 c 0
 323 420 275 390 238 329 c 0
 224 305 210 269 200 232 c 4
 188 187 180 141 180 114 c 0
EndSplineSet
EndChar
StartChar: otilde
Encoding: 245 245 204
Width: 511
Flags: MW
LayerCount: 2
Fore
SplineSet
240 543 m 0
 240 549 244 554 262 571 c 0
 317 623 345 632 366 632 c 2
 373 632 l 1
 392 629 405 614 415 599 c 0
 418 595 431 572 445 569 c 0
 476 563 530 618 543 627 c 0
 545 628 548 630 553 631 c 8
 554 631 554 631 555 631 c 17
 559 629 562 625 562 621 c 0
 562 620 561 618 561 617 c 0
 558 610 548 601 540 594 c 0
 494 551 464 535 443 532 c 1
 430 532 l 1
 411 535 398 550 388 565 c 0
 381 575 372 591 357 596 c 0
 348 598 338 594 329 590 c 0
 310 581 294 567 278 553 c 0
 271 547 257 532 248 534 c 0
 246 534 245 535 244 536 c 0
 242 538 240 540 240 543 c 0
110 154 m 0
 110 300 239 442 363 442 c 0
 450 442 509 373 509 278 c 0
 509 131 380 -11 256 -11 c 0
 173 -11 110 51 110 154 c 0
180 114 m 0
 180 42 217 11 256 11 c 0
 305 11 356 56 385 111 c 0
 417 171 439 274 439 317 c 0
 439 376 411 420 362 420 c 0
 323 420 275 390 238 329 c 0
 224 305 210 269 200 232 c 4
 188 187 180 141 180 114 c 0
EndSplineSet
EndChar
StartChar: odieresis
Encoding: 246 246 205
Width: 511
Flags: MW
LayerCount: 2
Fore
SplineSet
263 596 m 0
 263 627 292 659 326 659 c 0
 351 659 370 642 370 616 c 0
 370 586 341 553 306 553 c 0
 282 553 263 571 263 596 c 0
441 596 m 0
 441 627 471 659 505 659 c 0
 531 659 549 640 549 616 c 0
 549 584 518 553 485 553 c 0
 461 553 441 571 441 596 c 0
110 154 m 0
 110 300 239 442 363 442 c 0
 450 442 509 373 509 278 c 0
 509 131 380 -11 256 -11 c 0
 173 -11 110 51 110 154 c 0
180 114 m 0
 180 42 217 11 256 11 c 0
 305 11 356 56 385 111 c 0
 417 171 439 274 439 317 c 0
 439 376 411 420 362 420 c 0
 323 420 275 390 238 329 c 0
 224 305 210 269 200 232 c 4
 188 187 180 141 180 114 c 0
EndSplineSet
EndChar
StartChar: divide
Encoding: 247 247 206
Width: 766
Flags: MW
LayerCount: 2
Fore
SplineSet
140 250 m 0
 140 262 148 267 157 269 c 4
 162 270 167 270 172 270 c 2
 719 270 l 2
 731 270 750 269 750 250 c 0
 750 230 728 230 722 230 c 2
 169 230 l 2
 144 230 140 242 140 250 c 0
327 25 m 0
 327 61 362 97 402 97 c 0
 431 97 456 76 456 45 c 0
 456 8 421 -28 381 -28 c 0
 351 -28 327 -7 327 25 c 0
435 455 m 0
 435 492 469 528 509 528 c 0
 539 528 563 507 563 475 c 0
 563 440 529 402 488 402 c 0
 459 402 435 424 435 455 c 0
EndSplineSet
EndChar
StartChar: oslash
Encoding: 248 248 139
Width: 511
Flags: MW
LayerCount: 2
Fore
SplineSet
68 -97 m 0
 68 -85 157 29 157 29 c 1
 145 42 115 77 115 150 c 0
 115 296 239 443 363 443 c 2
 365 443 l 2
 376 443 406 442 444 417 c 1
 530 535 531 537 540 537 c 0
 545 537 549 533 549 527 c 0
 549 517 533 501 460 401 c 1
 472 388 502 353 502 281 c 0
 502 134 377 -13 254 -13 c 0
 226 -13 200 -6 174 13 c 1
 173 13 l 1
 88 -102 87 -106 77 -106 c 0
 72 -106 68 -102 68 -97 c 0
173 121 m 0
 173 104 175 86 183 64 c 1
 209 100 l 1
 408 369 l 2
 414 376 419 382 419 388 c 0
 419 393 415 398 406 405 c 0
 403 408 389 420 362 420 c 0
 242 420 173 221 173 121 c 0
194 41 m 1
 208 25 225 10 255 10 c 0
 275 10 314 18 357 65 c 0
 423 138 443 267 443 310 c 0
 443 321 443 339 435 366 c 1
 434 366 l 1
 194 42 l 1
 194 41 l 1
EndSplineSet
EndChar
StartChar: uacute
Encoding: 250 250 208
Width: 537
Flags: MW
LayerCount: 2
Fore
SplineSet
359 514 m 0
 359 524 371 532 379 538 c 0
 386 543 392 549 398 554 c 4
 517 651 516 651 530 651 c 0
 545 651 558 638 558 623 c 0
 558 601 532 588 528 586 c 0
 518 580 509 575 500 570 c 0
 380 499 378 499 373 499 c 0
 365 499 359 506 359 514 c 0
83 288 m 0
 83 294 118 442 211 442 c 0
 254 442 287 411 287 361 c 0
 287 342 282 328 274 307 c 0
 249 239 216 149 216 88 c 0
 216 55 225 11 270 11 c 0
 314 11 343 41 362 69 c 0
 371 82 371 84 376 102 c 2
 449 394 l 2
 451 402 458 431 488 431 c 0
 508 431 516 416 516 405 c 0
 516 402 515 397 513 391 c 2
 441 103 l 2
 434 75 434 59 434 52 c 0
 434 38 434 11 460 11 c 0
 494 11 513 74 527 130 c 0
 533 152 534 153 546 153 c 0
 553 153 561 153 561 143 c 0
 561 141 549 83 531 45 c 0
 516 14 495 -11 458 -11 c 0
 439 -11 396 -5 378 49 c 1
 354 19 320 -11 267 -11 c 0
 213 -11 155 18 155 105 c 0
 155 157 181 231 207 301 c 0
 221 340 231 367 231 391 c 0
 231 417 220 420 209 420 c 0
 189 420 172 408 159 392 c 4
 134 361 121 314 116 294 c 0
 112 280 111 278 98 278 c 0
 93 278 83 278 83 288 c 0
EndSplineSet
EndChar
StartChar: ucircumflex
Encoding: 251 251 209
Width: 537
Flags: MW
LayerCount: 2
Fore
SplineSet
262 484 m 0
 262 493 272 501 279 507 c 0
 414 634 417 636 424 636 c 0
 435 636 443 618 452 603 c 0
 515 493 516 492 516 486 c 0
 516 477 508 470 500 470 c 0
 490 470 485 479 449 533 c 0
 438 549 426 566 416 583 c 9
 416 583 l 17
 364 541 317 496 292 478 c 4
 285 473 280 470 277 470 c 0
 269 470 262 477 262 484 c 0
83 288 m 0
 83 294 118 442 211 442 c 0
 254 442 287 411 287 361 c 0
 287 342 282 328 274 307 c 0
 249 239 216 149 216 88 c 0
 216 55 225 11 270 11 c 0
 314 11 343 41 362 69 c 0
 371 82 371 84 376 102 c 2
 449 394 l 2
 451 402 458 431 488 431 c 0
 508 431 516 416 516 405 c 0
 516 402 515 397 513 391 c 2
 441 103 l 2
 434 75 434 59 434 52 c 0
 434 38 434 11 460 11 c 0
 494 11 513 74 527 130 c 0
 533 152 534 153 546 153 c 0
 553 153 561 153 561 143 c 0
 561 141 549 83 531 45 c 0
 516 14 495 -11 458 -11 c 0
 439 -11 396 -5 378 49 c 1
 354 19 320 -11 267 -11 c 0
 213 -11 155 18 155 105 c 0
 155 157 181 231 207 301 c 0
 221 340 231 367 231 391 c 0
 231 417 220 420 209 420 c 0
 189 420 172 408 159 392 c 4
 134 361 121 314 116 294 c 0
 112 280 111 278 98 278 c 0
 93 278 83 278 83 288 c 0
EndSplineSet
EndChar
StartChar: yacute
Encoding: 253 253 211
Width: 485
Flags: MW
LayerCount: 2
Fore
SplineSet
334 514 m 0
 334 523 346 532 354 538 c 0
 491 650 490 651 505 651 c 0
 520 651 533 638 533 623 c 0
 533 601 507 588 502 585 c 0
 490 578 478 571 468 565 c 4
 357 500 354 499 348 499 c 0
 339 499 334 506 334 514 c 0
83 288 m 0
 83 294 118 442 211 442 c 0
 254 442 287 411 287 361 c 0
 287 342 282 328 274 307 c 0
 249 239 216 149 216 88 c 0
 216 55 225 11 270 11 c 0
 301 11 327 28 346 48 c 0
 362 66 373 86 376 100 c 2
 449 394 l 2
 451 402 458 431 488 431 c 0
 508 431 516 416 516 405 c 0
 516 402 514 397 513 391 c 2
 415 -3 l 2
 400 -62 361 -124 310 -163 c 4
 276 -189 237 -205 195 -205 c 0
 140 -205 99 -171 99 -119 c 0
 99 -63 138 -57 150 -57 c 0
 168 -57 184 -68 184 -89 c 0
 184 -105 172 -132 141 -137 c 0
 134 -138 133 -139 133 -140 c 0
 133 -145 147 -183 195 -183 c 0
 245 -183 319 -139 357 26 c 1
 344 13 313 -11 267 -11 c 0
 213 -11 155 18 155 105 c 0
 155 157 181 231 207 301 c 0
 221 340 231 367 231 391 c 0
 231 417 220 420 209 420 c 0
 192 420 178 412 166 400 c 0
 137 370 122 316 116 294 c 0
 112 280 111 278 98 278 c 0
 93 278 83 278 83 288 c 0
EndSplineSet
EndChar
StartChar: thorn
Encoding: 254 254 212
Width: 511
Flags: MW
LayerCount: 2
Fore
SplineSet
-4 -181 m 0
 -4 -166 8 -163 24 -163 c 0
 26 -163 29 -163 31 -163 c 0
 49 -163 69 -163 81 -149 c 0
 87 -141 89 -135 98 -99 c 2
 273 600 l 2
 276 614 279 625 279 633 c 0
 279 667 207 637 207 665 c 0
 207 685 227 684 238 685 c 0
 263 687 305 691 326 693 c 0
 333 694 337 694 338 694 c 0
 349 694 354 690 354 681 c 0
 354 664 305 486 284 396 c 1
 314 422 349 441 392 441 c 0
 468 441 518 376 518 284 c 0
 518 134 393 -11 274 -11 c 0
 227 -11 207 15 196 31 c 1
 156 -127 153 -138 153 -146 c 0
 153 -161 170 -163 187 -163 c 0
 191 -163 194 -163 198 -163 c 0
 208 -163 217 -163 221 -167 c 0
 224 -170 225 -173 225 -177 c 0
 225 -181 224 -184 222 -187 c 0
 218 -193 212 -194 205 -194 c 0
 196 -194 167 -192 108 -192 c 0
 44 -192 24 -194 13 -194 c 0
 0 -194 -4 -189 -4 -181 c 0
209 78 m 0
 209 62 222 12 271 12 c 0
 309 12 341 35 366 68 c 4
 424 145 449 280 449 327 c 0
 449 372 433 419 387 419 c 0
 351 419 318 396 297 373 c 0
 272 346 273 341 267 317 c 0
 259 286 209 90 209 78 c 0
EndSplineSet
EndChar
StartChar: Amacron
Encoding: 256 256 236
Width: 743
Flags: MW
LayerCount: 2
Fore
SplineSet
287 786 m 0
 287 794 291 806 316 806 c 2
 817 806 l 2
 842 806 846 794 846 786 c 0
 846 766 821 766 818 766 c 2
 316 766 l 2
 291 766 287 778 287 786 c 0
59 14 m 0
 59 43 91 19 136 50 c 4
 153 61 171 81 190 113 c 1
 517 689 l 2
 523 698 530 716 549 716 c 0
 568 716 567 700 568 688 c 2
 611 67 l 2
 612 51 615 42 624 37 c 0
 632 33 644 31 663 31 c 0
 675 31 690 32 690 17 c 0
 690 10 686 0 670 0 c 0
 651 0 631 3 576 3 c 0
 573 3 570 3 567 3 c 0
 490 3 465 0 455 0 c 0
 445 0 440 7 440 14 c 0
 440 27 450 30 463 31 c 0
 466 31 470 31 473 31 c 0
 488 32 506 34 520 46 c 0
 527 52 528 61 528 73 c 0
 528 88 523 135 517 230 c 1
 289 230 l 1
 225 118 204 86 204 65 c 0
 204 23 259 40 259 19 c 0
 259 12 257 0 239 0 c 0
 230 0 203 3 150 3 c 0
 117 3 93 0 81 0 c 0
 65 0 59 3 59 14 c 0
307 260 m 1
 515 260 l 1
 493 587 l 1
 307 260 l 1
EndSplineSet
EndChar
StartChar: abreve
Encoding: 259 259 325
Width: 511
Flags: MW
LayerCount: 2
Fore
SplineSet
270 603 m 0
 270 620 273 637 284 637 c 0
 293 637 294 629 294 621 c 0
 294 615 293 613 293 608 c 0
 293 569 332 541 388 541 c 0
 444 541 506 572 525 622 c 0
 528 628 531 637 539 637 c 0
 543 637 549 634 549 625 c 0
 549 593 486 504 384 504 c 0
 319 504 270 544 270 603 c 0
108 144 m 0
 108 290 226 442 337 442 c 0
 369 442 401 426 420 383 c 1
 421 388 428 422 460 422 c 0
 470 422 487 417 487 396 c 0
 487 391 487 389 483 375 c 2
 415 103 l 2
 408 75 408 59 408 52 c 0
 408 38 408 11 434 11 c 0
 468 11 487 74 501 130 c 0
 507 152 508 153 520 153 c 0
 522 153 524 153 526 153 c 0
 531 152 535 150 535 143 c 0
 535 141 523 83 505 45 c 0
 496 27 485 10 470 0 c 0
 460 -7 447 -11 432 -11 c 0
 397 -11 360 10 349 59 c 1
 309 10 265 -11 229 -11 c 0
 154 -11 108 59 108 144 c 0
176 100 m 0
 176 70 184 11 231 11 c 0
 267 11 305 44 330 77 c 4
 344 95 353 113 356 124 c 2
 403 313 l 2
 405 319 406 324 406 326 c 0
 406 368 381 420 337 420 c 0
 296 420 250 370 225 309 c 0
 207 267 176 150 176 100 c 0
EndSplineSet
EndChar
StartChar: Aogonek
Encoding: 260 260 297
Width: 743
Flags: MW
LayerCount: 2
Fore
SplineSet
59 14 m 0
 59 21 62 26 67 28 c 0
 74 31 83 31 88 32 c 0
 112 35 131 44 146 57 c 0
 165 73 178 94 191 115 c 2
 517 687 l 2
 522 697 530 716 549 716 c 0
 552 716 554 716 556 715 c 0
 566 712 567 701 568 692 c 2
 610 81 l 2
 612 59 608 39 634 34 c 0
 650 31 665 33 676 31 c 0
 685 30 690 26 690 17 c 0
 690 4 683 0 667 0 c 0
 664 0 661 0 658 0 c 0
 646 1 631 3 612 3 c 0
 592 3 589 -1 571 -13 c 1
 552 -27 506 -63 506 -111 c 0
 506 -143 531 -173 564 -173 c 0
 606 -173 628 -129 638 -124 c 0
 646 -120 655 -126 652 -137 c 0
 648 -150 608 -216 541 -216 c 0
 497 -216 458 -183 458 -134 c 0
 458 -80 502 -35 553 3 c 1
 508 3 481 1 464 1 c 0
 453 1 447 2 444 4 c 0
 441 7 440 11 440 15 c 0
 440 19 442 23 445 26 c 0
 449 29 456 30 464 31 c 4
 489 33 528 31 528 72 c 0
 528 87 525 103 517 230 c 1
 289 230 l 1
 225 118 204 86 204 65 c 0
 204 25 260 38 260 18 c 0
 260 15 259 12 256 8 c 0
 253 2 248 1 237 1 c 0
 220 1 203 3 151 3 c 0
 117 3 95 1 81 1 c 0
 64 1 59 3 59 14 c 0
307 260 m 1
 515 260 l 1
 493 587 l 1
 307 260 l 1
EndSplineSet
EndChar
StartChar: aogonek
Encoding: 261 261 304
Width: 511
Flags: MW
LayerCount: 2
Fore
SplineSet
107 144 m 0
 107 288 223 442 336 442 c 0
 370 442 398 426 420 383 c 1
 429 419 451 421 459 421 c 0
 476 421 487 409 487 395 c 0
 487 391 486 387 484 376 c 2
 418 115 l 2
 413 94 408 73 408 52 c 0
 408 18 423 12 434 12 c 0
 439 12 444 13 448 16 c 0
 476 33 492 96 501 131 c 0
 503 140 507 146 511 150 c 4
 514 153 517 154 520 154 c 0
 522 154 523 154 525 153 c 0
 530 151 534 145 534 140 c 0
 534 135 526 99 513 66 c 0
 507 49 499 33 491 22 c 0
 471 -5 450 -11 431 -11 c 0
 428 -11 424 -11 421 -10 c 1
 378 -38 336 -74 336 -117 c 0
 336 -153 367 -177 397 -177 c 0
 444 -177 456 -134 472 -134 c 0
 479 -134 482 -140 481 -146 c 0
 477 -164 437 -216 376 -216 c 0
 329 -216 288 -185 288 -138 c 0
 288 -86 340 -35 394 -3 c 1
 394 -2 l 1
 370 10 357 28 350 59 c 1
 322 28 281 -11 229 -11 c 0
 156 -11 107 53 107 144 c 0
175 100 m 0
 175 64 186 12 231 12 c 0
 283 12 339 83 350 108 c 0
 356 120 405 319 405 328 c 0
 405 345 391 419 336 419 c 0
 304 419 272 389 251 358 c 0
 203 289 175 139 175 100 c 0
EndSplineSet
EndChar
StartChar: Cacute
Encoding: 262 262 314
Width: 715
Flags: MW
LayerCount: 2
Fore
SplineSet
452 765 m 0
 452 775 461 779 465 782 c 2
 608 861 l 2
 613 863 625 871 637 871 c 0
 653 871 664 857 664 843 c 0
 664 832 661 825 651 818 c 0
 633 806 594 794 514 766 c 0
 503 762 490 757 481 754 c 0
 473 752 468 750 466 750 c 0
 455 750 452 761 452 765 c 0
150 245 m 0
 150 480 365 705 571 705 c 0
 621 705 679 689 722 620 c 1
 785 694 l 2
 794 705 799 705 801 705 c 0
 811 705 812 697 812 695 c 0
 812 691 811 685 810 681 c 2
 749 438 l 2
 745 421 742 420 731 420 c 0
 730 420 728 420 726 420 c 0
 721 421 716 423 716 430 c 0
 716 433 721 465 721 491 c 0
 721 578 685 674 579 674 c 0
 502 674 410 628 342 536 c 0
 262 426 237 269 237 207 c 0
 237 65 325 9 409 9 c 0
 463 9 535 36 593 102 c 0
 624 137 650 183 668 242 c 0
 671 250 678 250 684 250 c 0
 685 250 687 250 689 250 c 4
 694 249 699 247 699 240 c 0
 699 235 698 229 696 222 c 0
 677 153 571 -22 395 -22 c 0
 257 -22 150 81 150 245 c 0
EndSplineSet
EndChar
StartChar: cacute
Encoding: 263 263 327
Width: 460
Flags: MW
LayerCount: 2
Fore
SplineSet
272 514 m 0
 272 524 284 532 292 538 c 0
 299 543 305 549 311 554 c 0
 430 651 429 651 443 651 c 0
 458 651 471 638 471 623 c 0
 471 601 445 588 441 586 c 0
 431 580 422 575 413 570 c 0
 293 499 291 499 286 499 c 0
 278 499 272 506 272 514 c 0
110 154 m 0
 110 300 239 442 363 442 c 0
 427 442 470 405 470 356 c 0
 470 318 446 296 419 296 c 0
 396 296 385 312 385 328 c 0
 385 330 385 371 435 377 c 1
 420 418 375 420 364 420 c 0
 336 420 306 407 279 381 c 4
 262 365 247 345 233 320 c 0
 207 272 180 167 180 114 c 0
 180 56 205 11 259 11 c 0
 276 11 365 15 439 109 c 0
 447 119 448 120 452 120 c 0
 460 120 468 109 468 104 c 0
 468 89 385 -11 257 -11 c 0
 169 -11 110 55 110 154 c 0
EndSplineSet
EndChar
StartChar: Ccircumflex
Encoding: 264 264 338
Width: 715
Flags: MW
LayerCount: 2
Fore
SplineSet
470 757 m 0
 470 760 471 762 481 772 c 0
 495 785 525 811 592 871 c 0
 616 893 623 900 631 900 c 0
 632 900 634 900 635 899 c 0
 644 895 652 879 659 869 c 1
 675 843 687 823 696 808 c 0
 723 763 724 761 724 756 c 0
 724 748 716 741 708 741 c 0
 701 741 684 761 666 786 c 0
 652 805 637 827 623 847 c 1
 559 799 498 741 485 741 c 0
 480 741 470 744 470 757 c 0
150 245 m 0
 150 480 365 705 571 705 c 0
 621 705 679 689 722 620 c 1
 785 694 l 2
 794 705 799 705 801 705 c 0
 811 705 812 697 812 695 c 0
 812 691 811 685 810 681 c 2
 749 438 l 2
 745 421 742 420 731 420 c 0
 730 420 728 420 726 420 c 0
 721 421 716 423 716 430 c 0
 716 433 721 465 721 491 c 0
 721 578 685 674 579 674 c 0
 502 674 410 628 342 536 c 0
 262 426 237 269 237 207 c 0
 237 65 325 9 409 9 c 0
 463 9 535 36 593 102 c 0
 624 137 650 183 668 242 c 0
 671 250 678 250 684 250 c 0
 685 250 687 250 689 250 c 0
 694 249 699 247 699 240 c 0
 699 235 698 229 696 222 c 0
 677 153 571 -22 395 -22 c 0
 257 -22 150 81 150 245 c 0
EndSplineSet
EndChar
StartChar: ccircumflex
Encoding: 265 265 344
Width: 460
Flags: MW
LayerCount: 2
Fore
SplineSet
254 484 m 4
 254 493 264 501 271 507 c 4
 406 634 409 636 416 636 c 4
 427 636 435 618 444 603 c 4
 507 493 508 492 508 486 c 4
 508 477 500 470 492 470 c 4
 482 470 477 479 441 533 c 4
 430 549 418 566 408 583 c 13
 408 583 l 21
 356 541 309 496 284 478 c 4
 277 473 272 470 269 470 c 4
 261 470 254 477 254 484 c 4
110 154 m 0
 110 300 239 442 363 442 c 0
 427 442 470 405 470 356 c 0
 470 318 446 296 419 296 c 0
 396 296 385 312 385 328 c 0
 385 330 385 371 435 377 c 1
 420 418 375 420 364 420 c 0
 336 420 306 407 279 381 c 0
 262 365 247 345 233 320 c 0
 207 272 180 167 180 114 c 0
 180 56 205 11 259 11 c 0
 276 11 365 15 439 109 c 0
 447 119 448 120 452 120 c 0
 460 120 468 109 468 104 c 0
 468 89 385 -11 257 -11 c 0
 169 -11 110 55 110 154 c 0
EndSplineSet
EndChar
StartChar: Cdotaccent
Encoding: 266 266 364
Width: 750
Flags: MW
LayerCount: 2
Fore
SplineSet
525 803 m 0
 525 833 555 866 589 866 c 0
 615 866 632 846 632 823 c 0
 632 793 602 760 568 760 c 0
 544 760 525 777 525 803 c 0
150 245 m 0
 150 480 365 705 571 705 c 0
 621 705 679 689 722 620 c 1
 785 694 l 2
 794 705 799 705 801 705 c 0
 811 705 812 697 812 695 c 0
 812 691 811 685 810 681 c 2
 749 438 l 2
 745 421 742 420 731 420 c 0
 730 420 728 420 726 420 c 0
 721 421 716 423 716 430 c 0
 716 433 721 465 721 491 c 0
 721 578 685 674 579 674 c 0
 502 674 410 628 342 536 c 0
 262 426 237 269 237 207 c 0
 237 65 325 9 409 9 c 0
 463 9 535 36 593 102 c 0
 624 137 650 183 668 242 c 0
 671 250 678 250 684 250 c 0
 685 250 687 250 689 250 c 4
 694 249 699 247 699 240 c 0
 699 235 698 229 696 222 c 0
 677 153 571 -22 395 -22 c 0
 257 -22 150 81 150 245 c 0
EndSplineSet
EndChar
StartChar: cdotaccent
Encoding: 267 267 383
Width: 460
Flags: MW
LayerCount: 2
Fore
SplineSet
343 608 m 0
 343 631 365 655 391 655 c 0
 409 655 424 642 424 622 c 0
 424 599 402 575 376 575 c 0
 358 575 343 588 343 608 c 0
110 154 m 0
 110 300 239 442 363 442 c 0
 427 442 470 405 470 356 c 0
 470 318 446 296 419 296 c 0
 396 296 385 312 385 328 c 0
 385 330 385 371 435 377 c 1
 420 418 375 420 364 420 c 0
 336 420 306 407 279 381 c 4
 262 365 247 345 233 320 c 0
 207 272 180 167 180 114 c 0
 180 56 205 11 259 11 c 0
 276 11 365 15 439 109 c 0
 447 119 448 120 452 120 c 0
 460 120 468 109 468 104 c 0
 468 89 385 -11 257 -11 c 0
 169 -11 110 55 110 154 c 0
EndSplineSet
EndChar
StartChar: Ccaron
Encoding: 268 268 315
Width: 715
Flags: MW
LayerCount: 2
Fore
SplineSet
448 920 m 0
 448 925 451 930 458 930 c 0
 474 930 555 862 569 862 c 0
 589 862 700 930 718 930 c 0
 723 930 728 926 728 921 c 0
 728 913 721 909 713 902 c 1
 578 808 l 2
 575 806 568 800 561 800 c 0
 550 800 540 815 532 823 c 0
 450 910 448 913 448 920 c 0
150 245 m 0
 150 480 365 705 571 705 c 0
 621 705 679 689 722 620 c 1
 785 694 l 2
 794 705 799 705 801 705 c 0
 811 705 812 697 812 695 c 0
 812 691 811 685 810 681 c 2
 749 438 l 2
 745 421 742 420 731 420 c 0
 730 420 728 420 726 420 c 0
 721 421 716 423 716 430 c 0
 716 433 721 465 721 491 c 0
 721 578 685 674 579 674 c 0
 502 674 410 628 342 536 c 0
 262 426 237 269 237 207 c 0
 237 65 325 9 409 9 c 0
 463 9 535 36 593 102 c 0
 624 137 650 183 668 242 c 0
 671 250 678 250 684 250 c 0
 685 250 687 250 689 250 c 4
 694 249 699 247 699 240 c 0
 699 235 698 229 696 222 c 0
 677 153 571 -22 395 -22 c 0
 257 -22 150 81 150 245 c 0
EndSplineSet
EndChar
StartChar: ccaron
Encoding: 269 269 328
Width: 460
Flags: MW
LayerCount: 2
Fore
SplineSet
247 627 m 0
 247 632 250 637 256 637 c 0
 268 637 365 553 365 553 c 1
 508 634 509 637 517 637 c 0
 522 637 527 633 527 628 c 0
 527 619 516 612 510 607 c 0
 426 539 389 510 372 497 c 0
 361 489 358 488 355 488 c 0
 344 488 332 508 324 519 c 0
 253 613 247 618 247 627 c 0
110 154 m 0
 110 300 239 442 363 442 c 0
 427 442 470 405 470 356 c 0
 470 318 446 296 419 296 c 0
 396 296 385 312 385 328 c 0
 385 330 385 371 435 377 c 1
 420 418 375 420 364 420 c 0
 336 420 306 407 279 381 c 4
 262 365 247 345 233 320 c 0
 207 272 180 167 180 114 c 0
 180 56 205 11 259 11 c 0
 276 11 365 15 439 109 c 0
 447 119 448 120 452 120 c 0
 460 120 468 109 468 104 c 0
 468 89 385 -11 257 -11 c 0
 169 -11 110 55 110 154 c 0
EndSplineSet
EndChar
StartChar: Dcaron
Encoding: 270 270 317
Width: 755
Flags: MW
LayerCount: 2
Fore
SplineSet
468 920 m 0
 468 925 471 930 478 930 c 0
 494 930 575 862 589 862 c 0
 609 862 720 930 738 930 c 0
 743 930 748 926 748 921 c 0
 748 913 741 909 733 902 c 1
 598 808 l 2
 595 806 588 800 581 800 c 0
 570 800 560 815 552 823 c 0
 470 910 468 913 468 920 c 0
63 12 m 0
 63 31 74 31 90 31 c 0
 100 31 109 32 116 32 c 0
 160 34 165 44 172 73 c 2
 307 616 l 2
 311 630 311 632 311 635 c 0
 311 647 297 651 278 652 c 4
 270 652 262 652 253 652 c 0
 234 652 226 652 226 664 c 0
 226 683 237 683 253 683 c 2
 565 683 l 2
 694 683 775 581 775 438 c 0
 775 213 584 0 395 0 c 2
 88 0 l 2
 72 0 63 0 63 12 c 0
244 41 m 0
 244 34 244 31 275 31 c 2
 378 31 l 2
 458 31 529 73 578 130 c 0
 663 230 692 417 692 476 c 0
 692 607 613 652 532 652 c 2
 435 652 l 2
 402 652 395 651 386 616 c 2
 248 63 l 2
 247 57 244 47 244 41 c 0
EndSplineSet
EndChar
StartChar: Dcroat
Encoding: 272 272 353
Width: 755
Flags: MW
LayerCount: 2
Fore
SplineSet
63 14 m 0
 63 25 70 28 80 30 c 0
 86 31 94 32 102 32 c 0
 122 32 144 31 157 44 c 0
 167 53 170 71 174 85 c 2
 232 320 l 1
 217 320 202 319 187 319 c 2
 169 319 l 2
 153 319 143 320 143 333 c 0
 143 349 158 351 173 351 c 0
 179 351 184 350 189 350 c 2
 240 350 l 1
 255 417 309 618 309 633 c 0
 309 652 282 652 259 652 c 4
 253 652 248 652 243 652 c 0
 236 653 231 654 229 657 c 1
 226 660 226 663 226 667 c 0
 226 671 228 675 231 678 c 0
 236 683 242 683 248 683 c 2
 556 683 l 2
 731 683 774 536 774 438 c 0
 774 413 772 245 626 105 c 0
 520 2 421 0 386 0 c 2
 85 0 l 2
 72 0 63 2 63 14 c 0
244 44 m 0
 244 31 253 31 278 31 c 2
 375 31 l 2
 486 31 560 104 596 157 c 0
 651 236 691 392 691 478 c 0
 691 557 658 652 525 652 c 2
 428 652 l 2
 413 652 405 651 399 645 c 0
 389 636 385 614 372 565 c 1
 319 350 l 1
 464 350 l 2
 475 350 491 349 491 338 c 0
 491 335 490 332 488 328 c 0
 483 320 475 319 467 319 c 0
 464 319 461 320 459 320 c 2
 311 320 l 1
 298 265 244 59 244 44 c 0
EndSplineSet
EndChar
StartChar: dcroat
Encoding: 273 273 331
Width: 511
Flags: MW
LayerCount: 2
Fore
SplineSet
107 144 m 0
 107 288 222 442 336 442 c 0
 386 442 410 405 420 383 c 1
 457 531 l 1
 380 531 l 2
 361 531 355 538 355 545 c 0
 355 551 361 558 364 560 c 0
 368 562 372 562 377 563 c 1
 465 563 l 1
 473 598 481 620 481 632 c 0
 481 639 478 643 474 646 c 0
 459 656 427 648 415 655 c 0
 411 657 409 662 409 666 c 0
 409 670 410 673 412 676 c 0
 418 684 430 684 440 685 c 0
 473 688 538 694 541 694 c 0
 555 694 558 688 558 680 c 0
 558 674 533 575 530 563 c 1
 559 563 l 2
 569 563 581 562 581 549 c 0
 581 532 567 531 557 531 c 2
 522 531 l 1
 510 480 l 1
 417 109 l 2
 412 90 408 71 408 51 c 0
 408 18 423 12 434 12 c 0
 475 12 495 108 502 135 c 0
 506 149 513 153 519 153 c 0
 531 153 534 147 534 139 c 0
 534 135 533 131 532 127 c 0
 514 56 492 -11 431 -11 c 0
 399 -11 361 8 350 59 c 1
 322 28 281 -11 229 -11 c 0
 156 -11 107 54 107 144 c 0
175 100 m 0
 175 64 186 12 231 12 c 0
 283 12 339 83 350 108 c 0
 355 119 395 278 403 319 c 4
 404 324 405 327 405 328 c 0
 405 345 391 419 336 419 c 0
 304 419 272 389 251 358 c 0
 203 289 175 139 175 100 c 0
EndSplineSet
EndChar
StartChar: emacron
Encoding: 275 275 234
Width: 460
Flags: MW
LayerCount: 2
Fore
SplineSet
222 545 m 0
 222 552 225 562 243 562 c 2
 530 562 l 2
 543 562 552 560 552 549 c 0
 552 542 549 531 530 531 c 2
 243 531 l 2
 233 531 222 533 222 545 c 0
114 164 m 0
 114 341 257 442 362 442 c 0
 426 442 463 403 463 357 c 0
 463 350 463 285 384 253 c 0
 336 234 269 231 239 231 c 2
 200 231 l 1
 193 204 183 159 183 121 c 0
 183 82 194 11 259 11 c 0
 276 11 365 15 439 109 c 0
 447 119 448 120 452 120 c 0
 460 120 468 109 468 104 c 0
 468 89 385 -11 257 -11 c 0
 162 -11 114 74 114 164 c 0
206 253 m 1
 227 253 l 2
 260 253 425 253 425 359 c 0
 425 393 402 420 362 420 c 0
 352 420 249 417 206 253 c 1
EndSplineSet
EndChar
StartChar: Eogonek
Encoding: 280 280 316
Width: 678
Flags: MW
LayerCount: 2
Fore
SplineSet
62 14 m 0
 62 24 68 28 78 30 c 0
 84 31 91 32 99 32 c 0
 120 32 144 31 157 46 c 0
 164 53 166 59 175 95 c 2
 302 603 l 2
 305 615 307 624 307 630 c 0
 307 644 299 649 262 650 c 0
 257 650 252 650 247 650 c 0
 237 650 224 649 224 663 c 0
 224 679 238 680 247 680 c 2
 722 680 l 2
 734 680 742 677 742 664 c 0
 742 655 719 477 719 477 c 2
 717 460 710 456 703 456 c 0
 698 456 688 458 688 471 c 0
 688 484 694 506 694 548 c 0
 694 643 640 650 543 650 c 2
 430 650 l 1
 415 650 405 648 399 642 c 4
 389 633 386 613 376 572 c 2
 325 369 l 1
 403 369 l 2
 443 369 469 372 489 388 c 0
 505 401 516 423 526 460 c 0
 529 470 532 484 545 484 c 0
 556 484 559 478 559 471 c 0
 559 470 559 465 557 458 c 0
 546 408 503 239 502 238 c 0
 499 226 492 222 486 222 c 0
 484 222 482 222 480 223 c 0
 476 225 472 228 472 236 c 0
 472 249 481 272 481 295 c 0
 481 332 455 338 396 338 c 2
 317 338 l 1
 249 66 l 2
 247 56 246 49 246 44 c 0
 246 32 253 31 273 31 c 2
 374 31 l 2
 544 31 581 66 654 241 c 0
 659 254 666 257 672 257 c 0
 682 257 685 252 685 245 c 0
 685 238 682 230 681 227 c 2
 595 18 l 2
 591 9 588 4 583 2 c 0
 577 -1 570 1 558 0 c 0
 553 0 548 0 509 0 c 0
 472 0 408 -59 408 -111 c 0
 408 -146 434 -173 465 -173 c 0
 511 -173 530 -123 545 -123 c 0
 550 -123 554 -128 554 -133 c 0
 554 -148 507 -216 443 -216 c 0
 399 -216 359 -184 359 -134 c 0
 359 -75 415 -25 451 0 c 1
 84 0 l 2
 76 0 62 0 62 14 c 0
EndSplineSet
EndChar
StartChar: eogonek
Encoding: 281 281 329
Width: 460
Flags: MW
LayerCount: 2
Fore
SplineSet
113 165 m 0
 113 340 254 442 362 442 c 0
 420 442 462 408 462 357 c 0
 462 313 434 265 358 244 c 0
 313 232 258 230 204 230 c 2
 199 230 l 1
 191 195 182 158 182 122 c 0
 182 72 200 11 259 11 c 0
 278 11 362 18 431 100 c 0
 437 106 444 117 451 118 c 0
 458 120 467 111 467 104 c 0
 467 94 450 74 428 54 c 0
 373 6 258 -32 258 -114 c 0
 258 -143 281 -175 316 -175 c 0
 357 -175 380 -133 388 -127 c 0
 398 -120 406 -128 405 -135 c 1
 405 -147 361 -216 295 -216 c 0
 250 -216 210 -184 210 -136 c 0
 210 -86 250 -41 296 -8 c 1
 283 -10 270 -11 256 -11 c 0
 170 -11 113 59 113 165 c 0
205 253 m 1
 324 253 425 274 425 358 c 0
 425 393 400 419 362 419 c 0
 330 419 241 397 205 253 c 1
EndSplineSet
EndChar
StartChar: ecaron
Encoding: 283 283 277
Width: 460
Flags: MW
LayerCount: 2
Fore
SplineSet
247 627 m 0
 247 632 250 637 256 637 c 0
 268 637 365 553 365 553 c 1
 508 634 509 637 517 637 c 0
 522 637 527 633 527 628 c 0
 527 619 516 612 510 607 c 0
 426 539 389 510 372 497 c 0
 361 489 358 488 355 488 c 0
 344 488 332 508 324 519 c 0
 253 613 247 618 247 627 c 0
114 164 m 0
 114 341 257 442 362 442 c 0
 426 442 463 403 463 357 c 0
 463 350 463 285 384 253 c 0
 336 234 269 231 239 231 c 2
 200 231 l 1
 193 204 183 159 183 121 c 0
 183 82 194 11 259 11 c 0
 276 11 365 15 439 109 c 0
 447 119 448 120 452 120 c 0
 460 120 468 109 468 104 c 0
 468 89 385 -11 257 -11 c 0
 162 -11 114 74 114 164 c 0
206 253 m 1
 227 253 l 2
 260 253 425 253 425 359 c 0
 425 393 402 420 362 420 c 0
 352 420 249 417 206 253 c 1
EndSplineSet
EndChar
StartChar: Gcircumflex
Encoding: 284 284 339
Width: 773
Flags: MW
LayerCount: 2
Fore
SplineSet
449 757 m 0
 449 760 450 762 460 772 c 0
 474 785 504 811 571 871 c 0
 595 893 602 900 610 900 c 0
 611 900 613 900 614 899 c 0
 623 895 631 879 638 869 c 1
 654 843 666 823 675 808 c 0
 702 763 703 761 703 756 c 0
 703 748 695 741 687 741 c 0
 680 741 663 761 645 786 c 0
 631 805 616 827 602 847 c 1
 538 799 477 741 464 741 c 0
 459 741 449 744 449 757 c 0
150 245 m 0
 150 480 365 705 571 705 c 0
 621 705 679 689 722 620 c 1
 785 694 l 2
 794 705 799 705 801 705 c 0
 811 705 812 697 812 695 c 0
 812 691 811 685 810 681 c 2
 749 438 l 2
 745 421 742 420 731 420 c 0
 729 420 727 420 725 420 c 4
 721 421 716 423 716 430 c 0
 716 433 721 465 721 491 c 0
 721 578 685 674 579 674 c 0
 502 674 410 628 342 536 c 0
 261 425 237 266 237 208 c 0
 237 75 319 9 414 9 c 0
 452 9 507 21 550 60 c 0
 580 88 582 99 604 188 c 1
 612 216 612 218 612 222 c 0
 612 236 604 237 583 240 c 0
 570 241 553 242 540 242 c 2
 532 242 l 2
 517 242 506 242 506 253 c 0
 506 273 519 273 527 273 c 0
 570 273 615 270 658 270 c 0
 666 270 674 270 682 270 c 0
 707 271 732 273 755 273 c 0
 764 273 768 268 768 260 c 0
 768 249 764 245 758 243 c 0
 754 242 749 242 744 242 c 0
 700 242 698 232 692 209 c 2
 644 18 l 2
 641 7 639 1 632 1 c 0
 621 1 599 37 590 61 c 1
 561 24 488 -22 396 -22 c 0
 254 -22 150 84 150 245 c 0
EndSplineSet
EndChar
StartChar: gcircumflex
Encoding: 285 285 345
Width: 460
Flags: MW
LayerCount: 2
Fore
SplineSet
224 484 m 0
 224 493 234 501 241 507 c 0
 376 634 379 636 386 636 c 0
 397 636 405 618 414 603 c 0
 477 493 478 492 478 486 c 0
 478 477 470 470 462 470 c 0
 452 470 447 479 411 533 c 0
 400 549 388 566 378 583 c 9
 378 583 l 17
 326 541 279 496 254 478 c 0
 247 473 242 470 239 470 c 0
 231 470 224 477 224 484 c 0
53 -147 m 0
 53 -108 84 -94 102 -94 c 0
 128 -94 137 -113 137 -126 c 0
 137 -143 125 -164 105 -172 c 1
 132 -183 163 -183 176 -183 c 0
 191 -183 231 -183 271 -136 c 0
 299 -102 305 -81 317 -31 c 2
 338 53 l 1
 326 41 283 0 232 0 c 0
 157 0 110 68 110 153 c 0
 110 294 225 442 337 442 c 0
 380 442 407 414 421 385 c 1
 425 414 448 422 460 422 c 0
 470 422 487 417 487 396 c 0
 487 392 487 390 483 375 c 2
 374 -63 l 2
 363 -106 335 -146 293 -172 c 0
 260 -193 220 -205 174 -205 c 0
 90 -205 53 -187 53 -147 c 0
178 109 m 0
 178 98 180 22 234 22 c 0
 265 22 299 47 323 75 c 4
 341 96 355 118 358 132 c 2
 403 314 l 1
 406 328 l 1
 406 336 397 420 337 420 c 0
 298 420 254 375 229 321 c 0
 208 274 178 157 178 109 c 0
EndSplineSet
EndChar
StartChar: Gbreve
Encoding: 286 286 366
Width: 773
Flags: MW
LayerCount: 2
Fore
SplineSet
465 854 m 0
 465 872 468 889 479 889 c 0
 487 889 489 882 489 874 c 0
 489 867 488 866 488 859 c 0
 488 819 525 789 581 789 c 0
 617 789 692 806 720 875 c 0
 723 881 727 889 734 889 c 0
 738 889 744 887 744 878 c 0
 744 847 682 753 578 753 c 0
 514 753 465 793 465 854 c 0
150 245 m 0
 150 480 365 705 571 705 c 0
 621 705 679 689 722 620 c 1
 785 694 l 2
 794 705 799 705 801 705 c 0
 811 705 812 697 812 695 c 0
 812 691 811 685 810 681 c 2
 749 438 l 2
 745 421 742 420 731 420 c 0
 729 420 727 420 725 420 c 4
 721 421 716 423 716 430 c 0
 716 433 721 465 721 491 c 0
 721 578 685 674 579 674 c 0
 502 674 410 628 342 536 c 0
 261 425 237 266 237 208 c 0
 237 75 319 9 414 9 c 0
 452 9 507 21 550 60 c 0
 580 88 582 99 604 188 c 1
 612 216 612 218 612 222 c 0
 612 236 604 237 583 240 c 0
 570 241 553 242 540 242 c 2
 532 242 l 2
 517 242 506 242 506 253 c 0
 506 273 519 273 527 273 c 0
 570 273 615 270 658 270 c 0
 666 270 674 270 682 270 c 0
 707 271 732 273 755 273 c 0
 764 273 768 268 768 260 c 0
 768 249 764 245 758 243 c 0
 754 242 749 242 744 242 c 0
 700 242 698 232 692 209 c 2
 644 18 l 2
 641 7 639 1 632 1 c 0
 621 1 599 37 590 61 c 1
 561 24 488 -22 396 -22 c 0
 254 -22 150 84 150 245 c 0
EndSplineSet
EndChar
StartChar: gbreve
Encoding: 287 287 386
Width: 460
Flags: MW
LayerCount: 2
Fore
SplineSet
245 603 m 0
 245 620 248 637 259 637 c 0
 268 637 269 629 269 621 c 0
 269 615 268 613 268 608 c 0
 268 569 307 541 363 541 c 0
 419 541 481 572 500 622 c 0
 503 628 506 637 514 637 c 0
 518 637 524 634 524 625 c 0
 524 593 461 504 359 504 c 0
 294 504 245 544 245 603 c 0
53 -147 m 0
 53 -108 84 -94 102 -94 c 0
 128 -94 137 -113 137 -126 c 0
 137 -143 125 -164 105 -172 c 1
 132 -183 163 -183 176 -183 c 0
 191 -183 231 -183 271 -136 c 0
 299 -102 305 -81 317 -31 c 2
 338 53 l 1
 326 41 283 0 232 0 c 0
 157 0 110 68 110 153 c 0
 110 294 225 442 337 442 c 0
 380 442 407 414 421 385 c 1
 425 414 448 422 460 422 c 0
 470 422 487 417 487 396 c 0
 487 392 487 390 483 375 c 2
 374 -63 l 2
 363 -106 335 -146 293 -172 c 0
 260 -193 220 -205 174 -205 c 0
 90 -205 53 -187 53 -147 c 0
178 109 m 0
 178 98 180 22 234 22 c 0
 265 22 299 47 323 75 c 4
 341 96 355 118 358 132 c 2
 403 314 l 1
 406 328 l 1
 406 336 397 420 337 420 c 0
 298 420 254 375 229 321 c 0
 208 274 178 157 178 109 c 0
EndSplineSet
EndChar
StartChar: Gdotaccent
Encoding: 288 288 368
Width: 773
Flags: MW
LayerCount: 2
Fore
SplineSet
536 803 m 0
 536 833 566 866 600 866 c 0
 626 866 643 846 643 823 c 0
 643 793 613 760 579 760 c 0
 555 760 536 777 536 803 c 0
150 245 m 0
 150 480 365 705 571 705 c 0
 621 705 679 689 722 620 c 1
 785 694 l 2
 794 705 799 705 801 705 c 0
 811 705 812 697 812 695 c 0
 812 691 811 685 810 681 c 2
 749 438 l 2
 745 421 742 420 731 420 c 0
 729 420 727 420 725 420 c 4
 721 421 716 423 716 430 c 0
 716 433 721 465 721 491 c 0
 721 578 685 674 579 674 c 0
 502 674 410 628 342 536 c 0
 261 425 237 266 237 208 c 0
 237 75 319 9 414 9 c 0
 452 9 507 21 550 60 c 0
 580 88 582 99 604 188 c 1
 612 216 612 218 612 222 c 0
 612 236 604 237 583 240 c 0
 570 241 553 242 540 242 c 2
 532 242 l 2
 517 242 506 242 506 253 c 0
 506 273 519 273 527 273 c 0
 570 273 615 270 658 270 c 0
 666 270 674 270 682 270 c 0
 707 271 732 273 755 273 c 0
 764 273 768 268 768 260 c 0
 768 249 764 245 758 243 c 0
 754 242 749 242 744 242 c 0
 700 242 698 232 692 209 c 2
 644 18 l 2
 641 7 639 1 632 1 c 0
 621 1 599 37 590 61 c 1
 561 24 488 -22 396 -22 c 0
 254 -22 150 84 150 245 c 0
EndSplineSet
EndChar
StartChar: Hcircumflex
Encoding: 292 292 340
Width: 743
Flags: MW
LayerCount: 2
Fore
SplineSet
434 757 m 0
 434 760 435 762 445 772 c 0
 459 785 489 811 556 871 c 0
 580 893 587 900 595 900 c 0
 596 900 598 900 599 899 c 0
 608 895 616 879 623 869 c 1
 639 843 651 823 660 808 c 0
 687 763 688 761 688 756 c 0
 688 748 680 741 672 741 c 0
 665 741 648 761 630 786 c 0
 616 805 601 827 587 847 c 1
 523 799 462 741 449 741 c 0
 444 741 434 744 434 757 c 0
62 12 m 0
 62 25 67 29 76 30 c 0
 80 31 84 31 89 31 c 0
 157 31 163 39 171 73 c 2
 306 616 l 2
 310 630 310 632 310 635 c 0
 310 652 283 652 252 652 c 0
 247 652 243 652 239 652 c 0
 229 653 225 655 225 664 c 0
 225 683 238 683 244 683 c 0
 283 683 324 680 364 680 c 0
 403 680 444 683 482 683 c 0
 489 683 496 681 496 670 c 0
 496 658 492 654 482 653 c 0
 478 652 472 652 466 652 c 0
 403 652 395 644 387 612 c 2
 327 371 l 1
 601 371 l 1
 662 616 l 2
 666 630 666 632 666 635 c 0
 666 652 639 652 608 652 c 0
 601 652 596 652 592 653 c 0
 584 654 581 656 581 664 c 0
 581 683 594 683 600 683 c 0
 639 683 680 680 720 680 c 0
 759 680 800 683 838 683 c 0
 845 683 852 681 852 670 c 0
 852 658 848 654 840 653 c 0
 835 652 829 652 822 652 c 0
 759 652 751 644 743 612 c 2
 608 71 l 2
 604 56 604 49 604 48 c 0
 604 39 604 31 662 31 c 0
 669 31 675 31 679 30 c 0
 686 29 689 26 689 18 c 0
 689 0 677 0 670 0 c 0
 631 0 590 3 550 3 c 0
 511 3 470 0 432 0 c 0
 429 0 418 0 418 12 c 0
 418 23 422 28 428 30 c 0
 433 31 438 31 445 31 c 0
 513 31 519 39 527 73 c 2
 593 340 l 1
 319 340 l 1
 252 68 l 2
 248 54 248 52 248 48 c 0
 248 39 248 31 306 31 c 0
 313 31 319 31 323 30 c 0
 330 29 333 26 333 18 c 0
 333 0 321 0 314 0 c 0
 275 0 234 3 194 3 c 0
 155 3 114 0 76 0 c 0
 73 0 62 0 62 12 c 0
EndSplineSet
EndChar
StartChar: Hbar
Encoding: 294 294 354
Width: 750
Flags: MW
LayerCount: 2
Fore
SplineSet
33 0 m 1
 41 31 l 1
 65 31 l 2
 142 31 147 42 156 78 c 2
 265 516 l 1
 187 516 l 2
 173 516 162 518 166 532 c 0
 170 546 182 548 202 548 c 2
 273 548 l 1
 287 605 l 2
 296 641 297 652 220 652 c 2
 196 652 l 1
 204 683 l 1
 238 680 313 680 351 680 c 0
 389 680 463 680 499 683 c 1
 491 652 l 1
 467 652 l 2
 390 652 385 641 376 605 c 2
 362 548 l 1
 661 548 l 1
 675 605 l 2
 684 641 685 652 608 652 c 2
 584 652 l 1
 592 683 l 1
 626 680 701 680 739 680 c 0
 777 680 851 680 887 683 c 1
 879 652 l 1
 855 652 l 2
 778 652 773 641 764 605 c 2
 750 548 l 1
 824 548 l 2
 839 548 853 547 849 532 c 0
 845 518 832 516 819 516 c 2
 742 516 l 1
 633 78 l 2
 624 42 623 31 700 31 c 2
 724 31 l 1
 716 0 l 1
 682 3 607 3 569 3 c 0
 531 3 457 3 421 0 c 1
 429 31 l 1
 453 31 l 2
 530 31 535 42 544 78 c 2
 609 340 l 1
 310 340 l 1
 245 78 l 2
 236 42 235 31 312 31 c 2
 336 31 l 1
 328 0 l 1
 294 3 219 3 181 3 c 0
 143 3 69 3 33 0 c 1
318 371 m 1
 617 371 l 1
 653 516 l 1
 354 516 l 1
 318 371 l 1
EndSplineSet
EndChar
StartChar: hbar
Encoding: 295 295 413
Width: 511
Flags: MW
LayerCount: 2
Fore
SplineSet
75 15 m 0
 75 17 76.4694717197 25.8823828813 77 28 c 2
 195 499 l 1
 132 453 130 448 119 448 c 0
 109 448 106 457 106 462 c 0
 106 468 110 473 122 482 c 0
 134 491 155 505 189 531 c 0
 209.345487574 546.558314027 208 548 213 569 c 2
 225 618 l 2
 225.231041257 618.943418468 228 632 228 635 c 0
 228 645 226 652 178 652 c 0
 164 652 154 652 154 663 c 0
 154 682 165 683 177 684 c 2
 276 692 l 2
 279 693 289 694 292 694 c 0
 300 694 306 691 306 682 c 0
 306 680 303.742411101 672.062445794 303 669 c 2
 287 603 l 1
 356 655 374 670 385 670 c 0
 387 670 388 670 390 669 c 0
 394 666 398 661 398 656 c 0
 398 645 385 639 378 634 c 0
 369 626 287 568 279 559 c 0
 272.874868052 552.109226559 271 542 269 533 c 2
 230 377 l 1
 261 407 296 442 363 442 c 0
 412 442 467 420 467 338 c 0
 467 280 426 168 406 115 c 0
 398 91 388 65 388 40 c 0
 388 26 389 11 410 11 c 0
 468 11 495 109 503 136 c 0
 507 151 507 153 520 153 c 0
 522 153 523 153 525 153 c 0
 530 153 535 151 535 143 c 0
 535 138 501 -11 408 -11 c 0
 360 -11 332 25 332 69 c 0
 332 90 335 99 348 133 c 1
 362 173 406 292 406 354 c 0
 406 375 404 420 360 420 c 0
 290 420 247 357 227 325 c 1
 209 293 208 291 199 255 c 0
 194 233 188 212 183 190 c 0
 176 162 144 32 140 17 c 0
 137 6 124 -11 103 -11 c 0
 84 -11 75 4 75 15 c 0
EndSplineSet
EndChar
StartChar: Itilde
Encoding: 296 296 270
Width: 385
Flags: MW
LayerCount: 2
Fore
SplineSet
219 811 m 0
 219 814 223 820 230 828 c 0
 252 852 301 891 344 891 c 0
 400 891 430 836 477 836 c 0
 512 836 544 863 565 882 c 1
 571 887 576 889 580 889 c 0
 586 889 589 884 589 880 c 0
 589 877 586 873 582 867 c 0
 563 843 507 800 464 800 c 0
 405 800 380 855 331 855 c 0
 280 855 244 802 227 802 c 0
 222 802 219 806 219 811 c 0
57 13 m 0
 57 25 61 29 70 30 c 4
 74 31 80 31 87 31 c 0
 154 31 163 39 171 72 c 2
 307 616 l 2
 308 619 310 632 310 635 c 0
 310 652 281 652 247 652 c 0
 240 652 234 652 230 653 c 0
 223 654 220 657 220 665 c 0
 220 683 232 683 239 683 c 0
 280 683 323 680 364 680 c 0
 405 680 447 683 487 683 c 0
 491 683 501 683 501 671 c 0
 501 659 497 655 488 653 c 0
 483 652 477 652 470 652 c 0
 401 652 395 643 387 611 c 2
 252 71 l 2
 248 56 248 50 248 49 c 0
 248 38 248 31 310 31 c 0
 317 31 322 31 326 31 c 0
 334 30 338 27 338 19 c 0
 338 0 325 0 318 0 c 0
 278 0 235 3 194 3 c 0
 153 3 111 0 71 0 c 0
 64 0 57 2 57 13 c 0
EndSplineSet
EndChar
StartChar: itilde
Encoding: 297 297 282
Width: 306
Flags: MW
LayerCount: 2
Fore
SplineSet
138 543 m 0
 138 549 142 554 160 571 c 0
 215 623 243 632 264 632 c 2
 271 632 l 1
 290 629 303 614 313 599 c 0
 316 595 329 572 343 569 c 0
 374 563 428 618 441 627 c 0
 443 628 445 630 448 631 c 0
 450 631 451 631 453 631 c 1
 457 629 460 625 460 621 c 0
 460 620 459 618 459 617 c 0
 456 610 446 601 438 594 c 0
 392 551 362 535 341 532 c 1
 328 532 l 1
 309 535 296 550 286 565 c 0
 279 575 270 591 255 596 c 0
 246 598 236 594 227 590 c 0
 208 581 192 567 176 553 c 0
 170 548 159 536 150 534 c 0
 149 534 147 534 146 534 c 0
 141 535 138 539 138 543 c 0
83 288 m 0
 83 293 117 442 211 442 c 0
 248 442 286 417 286 362 c 0
 286 343 284 335 274 306 c 2
 210 135 l 2
 197 98 184 65 184 39 c 0
 184 12 198 11 206 11 c 0
 227 11 244 23 257 40 c 0
 281 71 294 117 299 136 c 0
 303 151 303 153 316 153 c 0
 318 153 319 153 321 153 c 0
 326 153 331 151 331 143 c 0
 331 139 298 -11 204 -11 c 0
 152 -11 128 30 128 69 c 0
 128 89 132 100 146 138 c 0
 158 171 170 204 183 237 c 1
 213 320 l 2
 220 339 231 368 231 392 c 0
 231 415 220 420 209 420 c 0
 151 420 125 327 116 294 c 0
 112 280 111 278 98 278 c 0
 96 278 94 278 92 278 c 4
 88 279 83 281 83 288 c 0
EndSplineSet
EndChar
StartChar: imacron
Encoding: 299 299 232
Width: 306
Flags: MW
LayerCount: 2
Fore
SplineSet
123 545 m 0
 123 552 126 562 144 562 c 2
 431 562 l 2
 444 562 453 560 453 549 c 0
 453 542 450 531 431 531 c 2
 144 531 l 2
 134 531 123 533 123 545 c 0
83 288 m 0
 83 293 117 442 211 442 c 0
 248 442 286 417 286 362 c 0
 286 343 284 335 274 306 c 2
 210 135 l 2
 197 98 184 65 184 39 c 0
 184 12 198 11 206 11 c 0
 227 11 244 23 257 40 c 0
 281 71 294 117 299 136 c 0
 303 151 303 153 316 153 c 0
 318 153 319 153 321 153 c 0
 326 153 331 151 331 143 c 0
 331 139 298 -11 204 -11 c 0
 152 -11 128 30 128 69 c 0
 128 89 132 100 146 138 c 0
 158 171 170 204 183 237 c 1
 213 320 l 2
 220 339 231 368 231 392 c 0
 231 415 220 420 209 420 c 0
 151 420 125 327 116 294 c 0
 112 280 111 278 98 278 c 0
 96 278 94 278 92 278 c 4
 88 279 83 281 83 288 c 0
EndSplineSet
EndChar
StartChar: Iogonek
Encoding: 302 302 370
Width: 385
Flags: MW
LayerCount: 2
Fore
SplineSet
57 13 m 0
 57 25 61 29 70 30 c 0
 74 31 80 31 87 31 c 0
 154 31 163 39 171 72 c 2
 307 616 l 2
 308 619 310 632 310 635 c 0
 310 652 281 652 247 652 c 0
 240 652 234 652 230 653 c 0
 223 654 220 657 220 665 c 0
 220 683 232 683 239 683 c 0
 280 683 323 680 364 680 c 0
 405 680 447 683 487 683 c 0
 491 683 501 683 501 671 c 0
 501 659 497 655 488 653 c 0
 483 652 477 652 470 652 c 0
 401 652 395 643 387 611 c 2
 252 71 l 2
 248 56 248 50 248 49 c 0
 248 38 248 31 310 31 c 0
 317 31 322 31 326 31 c 0
 334 30 338 27 338 19 c 0
 338 0 325 0 318 0 c 0
 285 0 249 2 214 3 c 1
 176 -18 128 -70 128 -111 c 0
 128 -146 154 -173 185 -173 c 0
 231 -173 250 -123 265 -123 c 0
 270 -123 274 -128 274 -133 c 0
 274 -148 227 -216 163 -216 c 0
 119 -216 79 -184 79 -134 c 0
 79 -81 133 -26 170 3 c 1
 137 2 103 0 71 0 c 0
 64 0 57 2 57 13 c 0
EndSplineSet
EndChar
StartChar: iogonek
Encoding: 303 303 388
Width: 306
Flags: MW
LayerCount: 2
Fore
SplineSet
83 288 m 0
 83 293 117 442 211 442 c 0
 248 442 286 417 286 362 c 0
 286 343 284 335 274 306 c 2
 210 135 l 2
 197 98 184 65 184 39 c 0
 184 12 198 11 206 11 c 0
 230 11 250 28 264 50 c 0
 284 80 294 119 299 136 c 0
 303 151 303 153 316 153 c 0
 318 153 320 153 322 153 c 0
 327 152 331 150 331 143 c 0
 331 139 298 -11 204 -11 c 0
 202 -11 200 -11 198 -11 c 1
 165 -30 130 -73 130 -111 c 0
 130 -146 156 -173 187 -173 c 0
 233 -173 252 -123 267 -123 c 0
 272 -123 276 -128 276 -133 c 0
 276 -148 229 -216 165 -216 c 0
 121 -216 81 -184 81 -134 c 0
 81 -77 133 -29 169 -3 c 1
 141 11 128 40 128 69 c 0
 128 89 132 100 146 138 c 0
 158 171 170 204 183 237 c 1
 213 320 l 2
 220 339 231 368 231 392 c 0
 231 415 220 420 209 420 c 0
 151 420 125 327 116 294 c 0
 112 280 111 278 98 278 c 0
 97 278 95 278 93 278 c 0
 88 279 83 281 83 288 c 0
244 608 m 0
 244 636 271 656 292 656 c 0
 306 656 326 648 326 623 c 0
 326 594 298 575 278 575 c 0
 264 575 244 583 244 608 c 0
EndSplineSet
EndChar
StartChar: IJ
Encoding: 306 306 355
Width: 861
Flags: MW
LayerCount: 2
Fore
SplineSet
416 111 m 0
 427 155 463 169 486 169 c 0
 515 169 536 147 528 114 c 0
 521 85 493 58 457 58 c 0
 455 58 452 58 450 59 c 1
 474 5 526 1 544 1 c 0
 605 1 653 63 674 113 c 0
 680 129 685 146 689 162 c 2
 800 606 l 2
 810 646 795 652 697 652 c 2
 678 652 l 1
 686 683 l 1
 742 682 798 680 854 680 c 0
 892 680 931 681 983 683 c 1
 975 652 l 1
 970 652 l 2
 907 652 898 646 887 608 c 1
 775 161 l 1
 775 161 769 132 763 118 c 0
 728 37 632 -22 542 -22 c 0
 461 -22 396 31 416 111 c 0
28 0 m 1
 36 31 l 1
 51 31 l 2
 129 31 145 38 155 75 c 1
 289 610 l 1
 297 646 283 652 206 652 c 2
 191 652 l 1
 199 683 l 1
 247 681 295 680 345 680 c 0
 398 680 450 681 504 683 c 1
 496 652 l 1
 481 652 l 2
 403 652 388 646 378 610 c 1
 244 74 l 1
 236 37 248 31 326 31 c 2
 341 31 l 1
 333 0 l 1
 260 3 215 3 186 3 c 0
 133 3 80 2 28 0 c 1
EndSplineSet
EndChar
StartChar: ij
Encoding: 307 307 359
Width: 562
VWidth: 0
Flags: MW
LayerCount: 2
Fore
SplineSet
244 608 m 0
 244 636 271 656 292 656 c 0
 306 656 326 648 326 623 c 0
 326 594 298 575 278 575 c 0
 264 575 244 583 244 608 c 0
83 288 m 0
 83 293 117 442 211 442 c 0
 248 442 286 417 286 362 c 0
 286 343 284 335 274 306 c 2
 210 135 l 2
 197 98 184 65 184 39 c 0
 184 12 198 11 206 11 c 0
 230 11 250 28 264 50 c 0
 284 80 294 119 299 136 c 0
 303 151 303 153 316 153 c 0
 318 153 320 153 322 153 c 0
 327 152 331 150 331 143 c 0
 331 139 298 -11 204 -11 c 0
 152 -11 128 30 128 69 c 0
 128 89 132 100 146 138 c 0
 158 171 170 204 183 237 c 1
 213 320 l 2
 220 339 231 368 231 392 c 0
 231 415 220 420 209 420 c 0
 151 420 125 327 116 294 c 0
 112 280 111 278 98 278 c 0
 97 278 95 278 93 278 c 4
 88 279 83 281 83 288 c 0
221 -147 m 0
 221 -108 252 -94 270 -94 c 0
 296 -94 305 -113 305 -126 c 0
 305 -131 302 -163 267 -174 c 1
 269 -175 283 -183 301 -183 c 0
 363 -183 402 -105 415 -52 c 2
 510 329 l 2
 514 345 517 364 517 380 c 0
 517 398 515 420 490 420 c 0
 438 420 398 358 373 295 c 0
 367 279 367 278 354 278 c 0
 352 278 350 278 348 278 c 4
 344 279 339 281 339 288 c 0
 339 295 392 442 491 442 c 0
 547 442 577 399 577 352 c 0
 577 338 573 322 572 319 c 2
 479 -55 l 2
 473 -80 461 -104 446 -125 c 0
 410 -173 355 -205 302 -205 c 0
 258 -205 221 -184 221 -147 c 0
530 608 m 0
 530 632 554 656 579 656 c 0
 591 656 613 650 613 622 c 0
 613 597 588 575 564 575 c 0
 540 575 530 595 530 608 c 0
EndSplineSet
EndChar
StartChar: Jcircumflex
Encoding: 308 308 341
Width: 525
Flags: MW
LayerCount: 2
Fore
SplineSet
375 757 m 4
 375 760 376 762 386 772 c 4
 400 785 430 811 497 871 c 4
 521 893 528 900 536 900 c 4
 537 900 539 900 540 899 c 4
 549 895 557 879 564 869 c 5
 580 843 592 823 601 808 c 4
 628 763 629 761 629 756 c 4
 629 748 621 741 613 741 c 4
 606 741 589 761 571 786 c 4
 557 805 542 827 528 847 c 5
 464 799 403 741 390 741 c 4
 385 741 375 744 375 757 c 4
94 86 m 0
 94 163 153 163 156 163 c 0
 177 163 197 150 197 124 c 0
 197 99 175 65 137 65 c 0
 130 65 128 65 126 66 c 1
 134 25 169 0 210 0 c 0
 265 0 322 70 341 145 c 2
 457 611 l 2
 461 625 461 627 461 631 c 0
 461 646 453 647 431 650 c 0
 413 652 402 652 385 652 c 2
 373 652 l 2
 357 652 348 652 348 664 c 0
 348 683 360 683 369 683 c 0
 413 683 460 680 505 680 c 0
 510 680 514 680 519 680 c 0
 549 681 579 683 608 683 c 0
 616 683 622 680 622 671 c 0
 622 659 617 655 610 653 c 0
 606 652 601 652 596 652 c 0
 551 652 544 644 537 616 c 2
 420 144 l 2
 410 104 388 68 357 39 c 0
 317 2 265 -22 212 -22 c 0
 148 -22 94 18 94 86 c 0
EndSplineSet
EndChar
StartChar: jcircumflex
Encoding: 309 309 347
Width: 306
Flags: MW
LayerCount: 2
Fore
SplineSet
147 484 m 0
 147 493 157 501 164 507 c 0
 299 634 302 636 309 636 c 0
 320 636 328 618 337 603 c 0
 400 493 401 492 401 486 c 0
 401 477 393 470 385 470 c 0
 375 470 370 479 334 533 c 0
 323 549 311 566 301 583 c 9
 301 583 l 17
 249 541 202 496 177 478 c 0
 170 473 165 470 162 470 c 0
 154 470 147 477 147 484 c 0
-35 -147 m 4
 -35 -108 -4 -94 14 -94 c 4
 40 -94 49 -113 49 -126 c 4
 49 -131 46 -163 11 -174 c 5
 13 -175 27 -183 45 -183 c 4
 107 -183 146 -105 159 -52 c 6
 254 329 l 6
 258 345 261 364 261 380 c 4
 261 398 259 420 234 420 c 4
 182 420 142 358 117 295 c 4
 111 279 111 278 98 278 c 4
 96 278 94 278 92 278 c 4
 88 279 83 281 83 288 c 4
 83 295 136 442 235 442 c 4
 291 442 321 399 321 352 c 4
 321 338 317 322 316 319 c 6
 223 -55 l 6
 217 -80 205 -104 190 -125 c 4
 154 -173 99 -205 46 -205 c 4
 2 -205 -35 -184 -35 -147 c 4
EndSplineSet
EndChar
StartChar: kra
Encoding: 312 312 360
Width: 460
Flags: MW
LayerCount: 2
Fore
SplineSet
75 15 m 0
 75 17 76 26 77 28 c 2
 162 368 l 2
 162 369 165 382 165 385 c 0
 165 394 163 401 124 402 c 0
 121 402 118 402 115 402 c 0
 101 402 91 402 91 413 c 0
 91 432 102 433 114 434 c 2
 213 442 l 2
 216 443 226 444 229 444 c 0
 237 444 243 441 243 432 c 0
 243 430 241 422 240 419 c 2
 201 261 l 1
 236 278 252 294 309 360 c 0
 343 400 386 442 439 442 c 0
 484 442 502 408 502 382 c 0
 502 344 474 326 452 326 c 0
 426 326 417 345 417 358 c 0
 417 366 422 401 464 408 c 1
 463 409 456 420 437 420 c 0
 387 420 348 374 296 315 c 0
 271 287 253 268 225 249 c 9
 225 249 l 17
 288 240 358 213 358 145 c 0
 358 132 358 131 353 110 c 0
 352 105 345 77 345 54 c 0
 345 34 347 11 374 11 c 0
 418 11 437 79 450 130 c 0
 456 152 457 153 469 153 c 0
 476 153 484 153 484 143 c 0
 484 140 470 79 448 41 c 0
 437 22 415 -11 371 -11 c 0
 334 -11 287 14 287 86 c 0
 287 96 287 103 291 120 c 0
 294 134 294 138 294 145 c 0
 294 203 230 224 193 229 c 1
 142 26 l 2
 140 17 133 -11 103 -11 c 0
 84 -11 75 4 75 15 c 0
EndSplineSet
EndChar
StartChar: Lacute
Encoding: 313 313 313
Width: 627
Flags: MW
LayerCount: 2
Fore
SplineSet
408 765 m 0
 408 775 417 779 421 782 c 2
 564 861 l 2
 569 863 581 871 593 871 c 0
 609 871 620 857 620 843 c 0
 620 832 617 825 607 818 c 0
 589 806 550 794 470 766 c 0
 459 762 446 757 437 754 c 0
 429 752 424 750 422 750 c 0
 411 750 408 761 408 765 c 0
62 12 m 0
 62 31 73 31 89 31 c 0
 99 31 108 32 116 32 c 4
 159 34 164 44 171 73 c 2
 306 616 l 2
 310 630 310 632 310 635 c 0
 310 646 299 650 284 651 c 0
 275 652 264 652 252 652 c 0
 233 652 225 652 225 664 c 0
 225 683 238 683 244 683 c 0
 284 683 326 680 367 680 c 0
 413 680 460 683 505 683 c 0
 509 683 520 683 520 671 c 0
 520 652 509 652 492 652 c 2
 482 652 l 2
 401 652 395 642 386 607 c 2
 250 63 l 2
 249 57 246 47 246 41 c 0
 246 34 246 31 277 31 c 2
 358 31 l 2
 514 31 557 147 589 236 c 0
 596 255 597 258 609 258 c 0
 612 258 624 258 624 246 c 0
 624 245 620 234 620 233 c 2
 544 18 l 2
 538 1 537 0 515 0 c 2
 87 0 l 2
 71 0 62 0 62 12 c 0
EndSplineSet
EndChar
StartChar: lacute
Encoding: 314 314 326
Width: 255
Flags: MW
LayerCount: 2
Fore
SplineSet
270 765 m 0
 270 775 278 779 283 782 c 2
 309 796 l 1
 426 861 l 2
 430 863 439 868 448 870 c 0
 450 870 453 871 455 871 c 0
 472 871 482 857 482 843 c 0
 482 819 469 813 407 792 c 0
 387 785 363 777 332 766 c 0
 322 762 290 750 284 750 c 0
 282 750 281 750 279 751 c 4
 272 754 270 762 270 765 c 0
94 79 m 0
 94 94 99 114 100 118 c 2
 225 618 l 2
 225 619 228 632 228 635 c 0
 228 645 226 652 178 652 c 0
 164 652 154 652 154 663 c 0
 154 682 165 683 177 684 c 2
 276 692 l 2
 279 693 289 694 292 694 c 0
 300 694 306 691 306 682 c 0
 306 680 304 672 303 669 c 2
 160 98 l 2
 154 74 154 59 154 52 c 0
 154 38 154 11 180 11 c 0
 208 11 227 53 244 123 c 1
 251 148 l 1
 254 153 260 153 265 153 c 0
 272 153 280 153 280 143 c 0
 280 143 280 141 279 138 c 0
 276 122 263 71 249 41 c 0
 236 16 216 -11 178 -11 c 0
 130 -11 94 26 94 79 c 0
EndSplineSet
EndChar
StartChar: Lcommaaccent
Encoding: 315 315 373
Width: 627
Flags: MW
LayerCount: 2
Fore
SplineSet
245 -110 m 0
 250 -90 269 -73 291 -73 c 0
 314 -73 331 -93 318 -145 c 0
 301 -211 240 -281 220 -281 c 0
 217 -281 214 -277 215 -274 c 0
 215 -273 217 -271 220 -268 c 0
 235 -253 283 -216 301 -146 c 2
 304 -134 l 1
 302 -136 299 -138 297 -139 c 0
 289 -144 280 -147 273 -147 c 0
 254 -147 240 -131 245 -110 c 0
62 12 m 0
 62 31 73 31 89 31 c 0
 99 31 108 32 116 32 c 4
 159 34 164 44 171 73 c 2
 306 616 l 2
 310 630 310 632 310 635 c 0
 310 646 299 650 284 651 c 0
 275 652 264 652 252 652 c 0
 233 652 225 652 225 664 c 0
 225 683 238 683 244 683 c 0
 284 683 326 680 367 680 c 0
 413 680 460 683 505 683 c 0
 509 683 520 683 520 671 c 0
 520 652 509 652 492 652 c 2
 482 652 l 2
 401 652 395 642 386 607 c 2
 250 63 l 2
 249 57 246 47 246 41 c 0
 246 34 246 31 277 31 c 2
 358 31 l 2
 514 31 557 147 589 236 c 0
 596 255 597 258 609 258 c 0
 612 258 624 258 624 246 c 0
 624 245 620 234 620 233 c 2
 544 18 l 2
 538 1 537 0 515 0 c 2
 87 0 l 2
 71 0 62 0 62 12 c 0
EndSplineSet
EndChar
StartChar: lcommaaccent
Encoding: 316 316 391
Width: 255
Flags: MW
LayerCount: 2
Fore
SplineSet
59 -110 m 0
 64 -90 83 -73 105 -73 c 0
 128 -73 145 -93 132 -145 c 0
 115 -211 54 -281 34 -281 c 0
 31 -281 28 -277 29 -274 c 0
 29 -273 31 -271 34 -268 c 0
 49 -253 97 -216 115 -146 c 2
 118 -134 l 1
 116 -136 113 -138 111 -139 c 0
 103 -144 94 -147 87 -147 c 0
 68 -147 54 -131 59 -110 c 0
94 79 m 0
 94 94 99 114 100 118 c 2
 225 618 l 2
 225 619 228 632 228 635 c 0
 228 645 226 652 178 652 c 0
 164 652 154 652 154 663 c 0
 154 682 165 683 177 684 c 2
 276 692 l 2
 279 693 289 694 292 694 c 0
 300 694 306 691 306 682 c 0
 306 680 304 672 303 669 c 2
 160 98 l 2
 154 74 154 59 154 52 c 0
 154 38 154 11 180 11 c 0
 208 11 227 53 244 123 c 1
 251 148 l 1
 254 153 260 153 265 153 c 0
 272 153 280 153 280 143 c 0
 280 143 280 141 279 138 c 4
 276 122 263 71 249 41 c 0
 236 16 216 -11 178 -11 c 0
 130 -11 94 26 94 79 c 0
EndSplineSet
EndChar
StartChar: Lcaron
Encoding: 317 317 298
Width: 627
Flags: MW
LayerCount: 2
Fore
SplineSet
545 554 m 0
 545 571 623 592 655 690 c 1
 640 679 628 673 611 673 c 0
 585 673 567 689 567 714 c 0
 567 744 593 778 632 778 c 0
 662 778 682 754 682 719 c 0
 682 646 605 567 568 549 c 4
 563 546 558 545 555 545 c 0
 549 545 545 549 545 554 c 0
62 12 m 0
 62 31 73 31 89 31 c 0
 99 31 108 32 116 32 c 0
 159 34 164 44 171 73 c 2
 306 616 l 2
 310 630 310 632 310 635 c 0
 310 646 299 650 284 651 c 0
 275 652 264 652 252 652 c 0
 233 652 225 652 225 664 c 0
 225 683 238 683 244 683 c 0
 284 683 326 680 367 680 c 0
 413 680 460 683 505 683 c 0
 509 683 520 683 520 671 c 0
 520 652 509 652 492 652 c 2
 482 652 l 2
 401 652 395 642 386 607 c 2
 250 63 l 2
 249 57 246 47 246 41 c 0
 246 34 246 31 277 31 c 2
 358 31 l 2
 514 31 557 147 589 236 c 0
 596 255 597 258 609 258 c 0
 612 258 624 258 624 246 c 0
 624 245 620 234 620 233 c 2
 544 18 l 2
 538 1 537 0 515 0 c 2
 87 0 l 2
 71 0 62 0 62 12 c 0
EndSplineSet
EndChar
StartChar: lcaron
Encoding: 318 318 305
Width: 255
Flags: MW
LayerCount: 2
Fore
SplineSet
322 513 m 0
 322 529 400 550 432 648 c 1
 417 637 405 631 388 631 c 0
 362 631 344 647 344 672 c 0
 344 702 370 736 408 736 c 0
 439 736 459 712 459 677 c 0
 459 606 385 528 347 508 c 4
 341 505 336 503 332 503 c 0
 326 503 322 507 322 513 c 0
94 79 m 0
 94 94 99 114 100 118 c 2
 225 618 l 2
 225 619 228 632 228 635 c 0
 228 645 226 652 178 652 c 0
 164 652 154 652 154 663 c 0
 154 682 165 683 177 684 c 2
 276 692 l 2
 279 693 289 694 292 694 c 0
 300 694 306 691 306 682 c 0
 306 680 304 672 303 669 c 2
 160 98 l 2
 154 74 154 59 154 52 c 0
 154 38 154 11 180 11 c 0
 208 11 227 53 244 123 c 1
 251 148 l 1
 254 153 260 153 265 153 c 0
 272 153 280 153 280 143 c 0
 280 143 280 141 279 138 c 0
 276 122 263 71 249 41 c 0
 236 16 216 -11 178 -11 c 0
 130 -11 94 26 94 79 c 0
EndSplineSet
EndChar
StartChar: Ldot
Encoding: 319 319 356
Width: 625
Flags: MW
LayerCount: 2
Fore
SplineSet
33 0 m 1
 41 31 l 1
 65 31 l 2
 142 31 147 42 156 78 c 2
 287 605 l 2
 296 641 297 652 220 652 c 2
 196 652 l 1
 204 683 l 1
 238 680 316 680 355 680 c 0
 396 680 487 680 524 683 c 1
 516 652 l 1
 483 652 l 2
 388 652 385 638 376 604 c 2
 243 71 l 2
 235 38 235 31 282 31 c 2
 364 31 l 2
 540 31 585 156 622 258 c 1
 647 258 l 1
 554 0 l 1
 33 0 l 1
460 365 m 0
 467 392 495 417 526 417 c 0
 553 417 573 396 565 365 c 0
 557 334 526 312 500 312 c 0
 469 312 453 338 460 365 c 0
EndSplineSet
EndChar
StartChar: ldot
Encoding: 320 320 361
Width: 342
VWidth: 0
Flags: MW
LayerCount: 2
Fore
SplineSet
94 79 m 0
 94 94 99 114 100 118 c 2
 225 618 l 2
 225 619 228 632 228 635 c 0
 228 645 226 652 178 652 c 0
 164 652 154 652 154 663 c 0
 154 682 165 683 177 684 c 2
 276 692 l 2
 279 693 289 694 292 694 c 0
 300 694 306 691 306 682 c 0
 306 680 304 672 303 669 c 2
 160 98 l 2
 154 74 154 59 154 52 c 0
 154 38 154 11 180 11 c 0
 208 11 227 53 244 123 c 1
 251 148 l 1
 254 153 260 153 265 153 c 0
 272 153 280 153 280 143 c 0
 280 143 280 141 279 138 c 0
 276 122 263 71 249 41 c 0
 236 16 216 -11 178 -11 c 0
 130 -11 94 26 94 79 c 0
280 332 m 0
 280 362 310 395 344 395 c 0
 370 395 387 375 387 352 c 0
 387 322 357 289 323 289 c 0
 299 289 280 306 280 332 c 0
EndSplineSet
EndChar
StartChar: Lslash
Encoding: 321 321 132
Width: 627
Flags: MW
LayerCount: 2
Fore
SplineSet
61 14 m 0
 61 26 70 30 82 31 c 4
 87 32 92 32 98 32 c 2
 105 32 l 2
 126 32 148 32 160 49 c 0
 169 62 163 51 225 296 c 1
 164 251 155 243 147 243 c 0
 142 243 134 246 134 259 c 0
 134 269 137 268 237 341 c 1
 251 408 308 616 308 633 c 0
 308 653 279 652 256 652 c 0
 252 652 248 652 245 652 c 0
 238 652 232 653 229 656 c 0
 226 659 224 662 224 666 c 0
 224 670 225 673 227 676 c 0
 231 682 238 683 244 683 c 0
 247 683 252 683 258 683 c 0
 277 682 312 680 368 680 c 0
 445 680 484 683 497 683 c 0
 507 683 516 681 516 669 c 0
 516 652 504 652 481 652 c 2
 476 652 l 2
 399 652 393 641 383 603 c 0
 346 453 341 434 337 415 c 1
 480 521 l 2
 488 526 494 529 499 529 c 0
 506 529 510 523 511 517 c 0
 513 506 502 500 495 494 c 2
 343 383 l 2
 322 367 326 368 318 342 c 1
 250 71 l 2
 247 59 245 50 245 44 c 0
 245 33 252 31 270 31 c 2
 350 31 l 2
 546 31 567 197 592 244 c 0
 595 250 599 255 603 256 c 0
 606 257 610 257 613 256 c 0
 618 254 622 251 622 244 c 0
 622 237 543 19 543 19 c 2
 538 4 534 0 520 0 c 2
 84 0 l 2
 71 0 61 2 61 14 c 0
EndSplineSet
EndChar
StartChar: lslash
Encoding: 322 322 138
Width: 319
Flags: MW
LayerCount: 2
Fore
SplineSet
68 266 m 0
 68 272 72 277 84 286 c 0
 96 295 117 309 151 335 c 0
 171 351 170 352 175 373 c 0
 226 579 238 620 238 634 c 0
 238 667 166 636 166 667 c 0
 166 684 186 684 199 685 c 0
 227 688 277 693 294 694 c 0
 297 694 299 694 300 694 c 0
 311 694 316 688 316 680 c 0
 316 677 315 675 315 672 c 2
 249 407 l 1
 318 459 336 474 347 474 c 0
 349 474 350 474 352 473 c 0
 356 470 360 465 360 460 c 0
 360 449 347 443 340 438 c 0
 331 430 249 372 241 363 c 0
 235 356 233 346 231 337 c 0
 166 76 165 81 165 51 c 0
 165 18 181 12 191 12 c 0
 235 12 255 124 261 141 c 0
 264 150 271 153 277 153 c 0
 283 153 291 149 291 142 c 0
 291 140 291 137 290 134 c 4
 287 113 273 66 258 38 c 0
 240 4 217 -11 189 -11 c 0
 142 -11 105 25 105 79 c 0
 105 101 108 102 157 303 c 1
 94 257 92 252 81 252 c 0
 71 252 68 261 68 266 c 0
EndSplineSet
EndChar
StartChar: nacute
Encoding: 324 324 332
Width: 562
Flags: MW
LayerCount: 2
Fore
SplineSet
323 514 m 0
 323 524 335 532 343 538 c 0
 350 543 356 549 362 554 c 0
 481 651 480 651 494 651 c 0
 509 651 522 638 522 623 c 0
 522 601 496 588 492 586 c 0
 482 580 473 575 464 570 c 0
 344 499 342 499 337 499 c 0
 329 499 323 506 323 514 c 0
83 288 m 0
 83 290 96 349 115 389 c 1
 131 419 151 442 187 442 c 0
 230 442 264 412 271 363 c 1
 284 382 332 442 414 442 c 0
 463 442 518 420 518 338 c 0
 518 280 477 168 457 115 c 0
 449 91 439 65 439 40 c 0
 439 26 440 11 461 11 c 0
 519 11 546 109 554 136 c 0
 558 151 558 153 571 153 c 0
 578 153 586 153 586 143 c 0
 586 138 552 -11 459 -11 c 0
 411 -11 383 25 383 69 c 0
 383 90 386 99 399 133 c 1
 413 173 457 292 457 354 c 0
 457 375 455 420 411 420 c 0
 335 420 290 345 276 321 c 0
 259 292 259 291 246 240 c 0
 241 218 235 197 230 175 c 2
 190 15 l 1
 183 -4 166 -11 154 -11 c 0
 134 -11 126 4 126 15 c 0
 126 18 127 23 129 29 c 2
 204 329 l 2
 208 345 211 364 211 380 c 0
 211 391 211 420 185 420 c 0
 154 420 135 371 117 301 c 0
 112 279 111 278 98 278 c 0
 93 278 83 278 83 288 c 0
EndSplineSet
EndChar
StartChar: Ncommaaccent
Encoding: 325 325 374
Width: 743
Flags: MW
LayerCount: 2
Fore
SplineSet
353 -110 m 0
 358 -90 377 -73 399 -73 c 0
 422 -73 439 -93 426 -145 c 0
 409 -211 348 -281 328 -281 c 0
 325 -281 322 -277 323 -274 c 0
 323 -273 325 -271 328 -268 c 0
 343 -253 391 -216 409 -146 c 2
 412 -134 l 1
 410 -136 407 -138 405 -139 c 0
 397 -144 388 -147 381 -147 c 0
 362 -147 348 -131 353 -110 c 0
62 12 m 0
 62 30 73 31 81 31 c 0
 127 33 164 46 178 101 c 2
 310 631 l 2
 313 641 313 643 313 644 c 0
 313 652 259 652 252 652 c 0
 247 652 243 652 239 652 c 0
 229 653 225 655 225 664 c 0
 225 683 236 683 252 683 c 2
 377 683 l 2
 398 683 399 682 405 666 c 2
 592 146 l 1
 702 585 l 2
 704 593 706 600 706 609 c 0
 706 630 698 650 646 652 c 0
 637 652 628 653 628 664 c 0
 628 683 641 683 646 683 c 0
 677 683 711 680 743 680 c 0
 775 680 808 683 839 683 c 0
 848 683 852 678 852 670 c 0
 852 653 840 652 837 652 c 0
 808 651 752 648 736 584 c 2
 596 20 l 2
 591 1 587 0 576 0 c 0
 562 0 561 2 556 17 c 2
 341 614 l 1
 341 614 l 1
 212 99 l 2
 208 83 208 77 208 74 c 0
 208 59 210 33 267 31 c 0
 279 31 286 30 286 18 c 0
 286 0 274 0 268 0 c 0
 237 0 202 3 170 3 c 0
 139 3 105 0 75 0 c 0
 68 0 62 3 62 12 c 0
EndSplineSet
EndChar
StartChar: Ncaron
Encoding: 327 327 319
Width: 743
Flags: MW
LayerCount: 2
Fore
SplineSet
462 920 m 0
 462 925 465 930 472 930 c 0
 488 930 569 862 583 862 c 0
 603 862 714 930 732 930 c 0
 737 930 742 926 742 921 c 0
 742 913 735 909 727 902 c 1
 592 808 l 2
 589 806 582 800 575 800 c 0
 564 800 554 815 546 823 c 0
 464 910 462 913 462 920 c 0
62 12 m 0
 62 30 73 31 81 31 c 0
 127 33 164 46 178 101 c 2
 310 631 l 2
 313 641 313 643 313 644 c 0
 313 652 259 652 252 652 c 0
 247 652 243 652 239 652 c 0
 229 653 225 655 225 664 c 0
 225 683 236 683 252 683 c 2
 377 683 l 2
 398 683 399 682 405 666 c 2
 592 146 l 1
 702 585 l 2
 704 593 706 600 706 609 c 0
 706 630 698 650 646 652 c 0
 637 652 628 653 628 664 c 0
 628 683 641 683 646 683 c 0
 677 683 711 680 743 680 c 0
 775 680 808 683 839 683 c 0
 848 683 852 678 852 670 c 0
 852 653 840 652 837 652 c 0
 808 651 752 648 736 584 c 2
 596 20 l 2
 591 1 587 0 576 0 c 0
 562 0 561 2 556 17 c 2
 341 614 l 5
 341 614 l 1
 212 99 l 2
 208 83 208 77 208 74 c 0
 208 59 210 33 267 31 c 0
 279 31 286 30 286 18 c 0
 286 0 274 0 268 0 c 0
 237 0 202 3 170 3 c 0
 139 3 105 0 75 0 c 0
 68 0 62 3 62 12 c 0
EndSplineSet
EndChar
StartChar: napostrophe
Encoding: 329 329 362
Width: 639
Flags: MW
LayerCount: 2
Fore
SplineSet
160 288 m 0
 160 290 173 349 192 389 c 1
 208 419 228 442 264 442 c 0
 307 442 341 412 348 363 c 1
 361 382 409 442 491 442 c 0
 540 442 595 420 595 338 c 0
 595 280 554 168 534 115 c 0
 526 91 516 65 516 40 c 0
 516 26 517 11 538 11 c 0
 596 11 623 109 631 136 c 0
 635 151 635 153 648 153 c 0
 655 153 663 153 663 143 c 0
 663 138 629 -11 536 -11 c 0
 488 -11 460 25 460 69 c 0
 460 90 463 99 476 133 c 1
 490 173 534 292 534 354 c 0
 534 375 532 420 488 420 c 0
 412 420 367 345 353 321 c 0
 336 292 336 291 323 240 c 0
 318 218 312 197 307 175 c 2
 267 15 l 1
 260 -4 243 -11 231 -11 c 0
 211 -11 203 4 203 15 c 0
 203 18 204 23 206 29 c 2
 281 329 l 2
 285 345 288 364 288 380 c 0
 288 391 288 420 262 420 c 0
 231 420 212 371 194 301 c 0
 189 279 188 278 175 278 c 0
 170 278 160 278 160 288 c 0
155 466 m 0
 155 474 173 484 181 489 c 0
 210 508 254 537 266 606 c 1
 252 595 240 589 223 589 c 0
 196 589 179 605 179 630 c 0
 179 661 206 694 243 694 c 0
 263 694 292 683 292 631 c 0
 292 543 228 492 193 469 c 0
 182 462 170 456 165 456 c 0
 160 456 155 460 155 466 c 0
EndSplineSet
EndChar
StartChar: Eng
Encoding: 330 330 357
Width: 750
Flags: MW
LayerCount: 2
Fore
SplineSet
33 0 m 1
 41 31 l 1
 56 31 68 32 80 34 c 0
 103 37 118 44 130 52 c 0
 153 68 158 90 162 105 c 2
 293 627 l 2
 298 646 297 647 275 650 c 0
 260 651 240 652 225 652 c 2
 196 652 l 1
 204 683 l 1
 374 683 l 2
 393 683 394 682 400 670 c 2
 623 151 l 1
 730 578 l 2
 734 594 739 616 723 632 c 0
 716 640 703 646 683 649 c 0
 673 651 660 652 645 652 c 1
 653 683 l 1
 688 682 736 680 769 680 c 0
 802 680 852 682 887 683 c 1
 879 652 l 1
 863 652 850 651 838 649 c 0
 819 646 806 640 795 634 c 0
 769 618 762 594 758 578 c 2
 620 26 l 1
 609 -16 l 2
 601 -49 600 -52 597 -60 c 0
 567 -135 477 -205 375 -205 c 0
 286 -205 229 -145 248 -71 c 0
 259 -27 297 -13 319 -13 c 0
 347 -13 370 -33 361 -69 c 0
 354 -95 335 -125 283 -125 c 1
 304 -183 372 -183 378 -183 c 0
 431 -183 553 -127 576 -35 c 2
 587 9 l 2
 586 10 586 12 585 13 c 2
 327 613 l 2
 325 619 324 620 320 625 c 1
 190 105 l 2
 186 90 182 70 195 54 c 0
 203 45 215 37 239 33 c 0
 249 32 261 31 275 31 c 1
 267 0 l 1
 232 1 184 3 151 3 c 0
 118 3 68 1 33 0 c 1
EndSplineSet
EndChar
StartChar: Omacron
Encoding: 332 332 240
Width: 766
Flags: MW
LayerCount: 2
Fore
SplineSet
296 775 m 0
 296 783 300 795 325 795 c 2
 826 795 l 2
 851 795 855 783 855 775 c 0
 855 755 830 755 827 755 c 2
 325 755 l 2
 300 755 296 767 296 775 c 0
148 236 m 0
 148 468 355 705 560 705 c 0
 686 705 788 608 788 444 c 0
 788 291 704 145 591 58 c 4
 526 8 451 -22 378 -22 c 0
 242 -22 148 85 148 236 c 0
238 205 m 0
 238 86 294 4 385 4 c 0
 436 4 492 31 544 82 c 0
 569 107 593 138 614 174 c 0
 667 265 703 398 703 486 c 0
 703 620 631 680 553 680 c 0
 466 680 375 607 322 513 c 0
 252 391 238 251 238 205 c 0
EndSplineSet
EndChar
StartChar: omacron
Encoding: 333 333 235
Width: 511
Flags: MW
LayerCount: 2
Fore
SplineSet
225 545 m 0
 225 552 228 562 246 562 c 2
 533 562 l 2
 546 562 555 560 555 549 c 0
 555 542 552 531 533 531 c 2
 246 531 l 2
 236 531 225 533 225 545 c 0
110 154 m 0
 110 300 239 442 363 442 c 0
 450 442 509 373 509 278 c 0
 509 131 380 -11 256 -11 c 0
 173 -11 110 51 110 154 c 0
180 114 m 0
 180 42 217 11 256 11 c 0
 305 11 356 56 385 111 c 0
 417 171 439 274 439 317 c 0
 439 376 411 420 362 420 c 0
 323 420 275 390 238 329 c 0
 224 305 210 269 200 232 c 4
 188 187 180 141 180 114 c 0
EndSplineSet
EndChar
StartChar: Ohungarumlaut
Encoding: 336 336 320
Width: 766
Flags: MW
LayerCount: 2
Fore
SplineSet
448 765 m 0
 448 775 456 779 461 782 c 2
 604 861 l 2
 609 864 621 871 633 871 c 0
 650 871 660 857 660 843 c 0
 660 830 656 822 642 814 c 0
 623 803 584 792 510 766 c 0
 503 763 487 757 475 753 c 0
 469 751 464 750 462 750 c 0
 451 750 448 761 448 765 c 0
601 765 m 0
 601 771 601 774 614 782 c 4
 629 791 659 807 725 843 c 0
 766 865 774 871 786 871 c 0
 803 871 813 857 813 843 c 0
 813 831 810 823 798 816 c 0
 780 805 741 794 663 766 c 0
 655 763 638 757 626 753 c 0
 621 751 617 750 615 750 c 0
 606 750 601 758 601 765 c 0
148 236 m 0
 148 468 355 705 560 705 c 0
 686 705 788 608 788 444 c 0
 788 291 704 145 591 58 c 0
 526 8 451 -22 378 -22 c 0
 242 -22 148 85 148 236 c 0
238 205 m 0
 238 86 294 4 385 4 c 0
 436 4 492 31 544 82 c 0
 569 107 593 138 614 174 c 0
 667 265 703 398 703 486 c 0
 703 620 631 680 553 680 c 0
 466 680 375 607 322 513 c 0
 252 391 238 251 238 205 c 0
EndSplineSet
EndChar
StartChar: ohungarumlaut
Encoding: 337 337 334
Width: 511
Flags: MW
LayerCount: 2
Fore
SplineSet
422 514 m 0
 422 524 434 532 442 538 c 0
 580 651 578 651 593 651 c 0
 608 651 621 638 621 623 c 0
 621 601 595 588 591 586 c 0
 443 499 441 499 436 499 c 0
 428 499 422 506 422 514 c 0
269 514 m 0
 269 524 281 532 289 538 c 0
 427 651 425 651 440 651 c 0
 455 651 468 638 468 623 c 0
 468 601 442 588 438 586 c 0
 290 499 288 499 283 499 c 0
 275 499 269 506 269 514 c 0
110 154 m 0
 110 300 239 442 363 442 c 0
 450 442 509 373 509 278 c 0
 509 131 380 -11 256 -11 c 0
 173 -11 110 51 110 154 c 0
180 114 m 0
 180 42 217 11 256 11 c 0
 305 11 356 56 385 111 c 0
 417 171 439 274 439 317 c 0
 439 376 411 420 362 420 c 0
 323 420 275 390 238 329 c 0
 224 305 210 269 200 232 c 4
 188 187 180 141 180 114 c 0
EndSplineSet
EndChar
StartChar: OE
Encoding: 338 338 134
Width: 985
Flags: MW
LayerCount: 2
Fore
SplineSet
161 236 m 0
 161 471 371 705 570 705 c 0
 629 705 642 683 722 683 c 2
 1029 683 l 2
 1042 683 1049 680 1049 666 c 0
 1049 660 1034 546 1027 486 c 0
 1026 478 1023 458 1010 458 c 0
 1007 458 1005 458 1003 459 c 0
 997 461 995 466 995 474 c 0
 995 488 1001 512 1001 555 c 0
 1001 645 955 652 857 652 c 2
 777 652 l 2
 740 652 733 651 722 610 c 2
 662 370 l 1
 757 370 l 2
 797 370 824 375 842 387 c 0
 862 401 873 424 884 461 c 0
 886 471 889 486 903 486 c 0
 914 486 917 480 917 472 c 0
 917 466 915 459 913 453 c 0
 877 305 865 254 859 236 c 0
 855 226 853 225 849 224 c 0
 846 223 844 223 841 223 c 4
 835 224 829 228 829 237 c 0
 829 250 838 270 838 294 c 0
 838 338 798 339 745 339 c 2
 654 339 l 1
 654 339 582 53 582 44 c 0
 582 31 595 31 609 31 c 2
 697 31 l 2
 853 31 888 68 957 235 c 0
 962 245 966 257 979 257 c 0
 986 257 992 253 992 245 c 0
 992 244 991 242 990 238 c 0
 981 212 944 122 904 23 c 0
 894 1 890 0 874 0 c 2
 546 0 l 2
 478 0 445 -22 388 -22 c 0
 273 -22 161 66 161 236 c 0
252 218 m 0
 252 95 306 1 397 1 c 0
 477 1 504 42 538 162 c 0
 550 205 563 258 579 323 c 0
 593 381 609 438 621 489 c 0
 634 542 642 588 642 618 c 0
 642 656 626 683 567 683 c 0
 415 683 252 451 252 218 c 0
EndSplineSet
EndChar
StartChar: oe
Encoding: 339 339 140
Width: 715
Flags: MW
LayerCount: 2
Fore
SplineSet
107 143 m 0
 107 290 223 443 337 443 c 0
 380 443 421 420 444 354 c 1
 517 435 590 442 617 442 c 0
 674 442 717 408 717 357 c 0
 717 344 714 314 689 287 c 4
 672 269 646 252 604 242 c 0
 558 231 509 230 461 230 c 2
 447 230 l 1
 443 210 433 169 433 128 c 0
 433 56 465 11 513 11 c 0
 567 11 623 50 661 98 c 0
 667 105 674 118 683 118 c 0
 690 118 696 112 696 103 c 0
 696 81 611 -11 512 -11 c 0
 461 -11 412 14 386 88 c 1
 385 88 l 1
 354 44 296 -13 228 -13 c 0
 156 -13 107 53 107 143 c 0
175 98 m 0
 175 62 186 10 230 10 c 0
 242 10 254 13 265 19 c 0
 322 49 362 146 382 229 c 0
 391 266 396 301 396 325 c 0
 396 373 379 420 337 420 c 0
 302 420 270 388 250 358 c 0
 204 290 175 142 175 98 c 0
453 253 m 1
 532 253 680 257 680 358 c 0
 680 393 655 419 617 419 c 0
 553 419 482 360 453 253 c 1
EndSplineSet
EndChar
StartChar: Rcaron
Encoding: 344 344 321
Width: 729
Flags: MW
LayerCount: 2
Fore
SplineSet
455 920 m 0
 455 925 458 930 465 930 c 0
 481 930 562 862 576 862 c 0
 596 862 707 930 725 930 c 0
 730 930 735 926 735 921 c 0
 735 913 728 909 720 902 c 1
 585 808 l 2
 582 806 575 800 568 800 c 0
 557 800 547 815 539 823 c 0
 457 910 455 913 455 920 c 0
63 12 m 0
 63 23 67 28 73 30 c 0
 78 31 83 31 90 31 c 0
 158 31 164 39 172 73 c 2
 307 616 l 2
 311 630 311 632 311 635 c 0
 311 648 294 651 272 652 c 0
 266 652 260 652 253 652 c 0
 234 652 226 652 226 664 c 0
 226 683 237 683 253 683 c 2
 517 683 l 2
 625 683 697 631 714 566 c 0
 717 556 718 546 718 535 c 0
 718 462 650 375 508 339 c 1
 559 321 594 279 594 223 c 0
 594 202 589 158 586 135 c 0
 583 109 580 85 580 59 c 0
 580 27 583 0 613 0 c 0
 644 0 674 32 691 88 c 0
 694 100 695 105 708 105 c 0
 721 105 723 99 723 92 c 0
 723 84 693 -22 609 -22 c 0
 546 -22 485 10 485 84 c 0
 485 103 489 117 500 164 c 0
 514 220 517 229 517 243 c 0
 517 315 465 331 423 331 c 2
 315 331 l 1
 250 68 l 2
 246 54 246 52 246 48 c 0
 246 41 246 34 274 32 c 4
 282 31 291 31 304 31 c 0
 324 31 331 31 331 18 c 0
 331 0 319 0 312 0 c 0
 273 0 232 3 193 3 c 0
 155 3 115 0 77 0 c 0
 74 0 63 0 63 12 c 0
321 353 m 1
 422 353 l 2
 490 353 540 376 570 405 c 0
 604 439 618 489 624 522 c 0
 627 542 628 556 628 558 c 0
 628 652 530 652 466 652 c 0
 455 652 439 652 426 652 c 0
 418 652 411 651 408 650 c 0
 401 648 393 646 386 616 c 2
 321 353 l 1
EndSplineSet
EndChar
StartChar: rcaron
Encoding: 345 345 335
Width: 421
Flags: MW
LayerCount: 2
Fore
SplineSet
227 627 m 0
 227 632 230 637 236 637 c 0
 248 637 345 553 345 553 c 1
 488 634 489 637 497 637 c 0
 502 637 507 633 507 628 c 0
 507 619 496 612 490 607 c 0
 406 539 369 510 352 497 c 0
 341 489 338 488 335 488 c 0
 324 488 312 508 304 519 c 0
 233 613 227 618 227 627 c 0
83 288 m 0
 83 290 96 349 115 389 c 1
 126 410 139 427 158 436 c 0
 166 440 176 442 187 442 c 0
 220 442 259 423 270 370 c 1
 286 392 322 442 391 442 c 0
 424 442 489 431 489 379 c 0
 489 340 458 326 440 326 c 0
 414 326 405 345 405 358 c 0
 405 363 408 395 443 406 c 1
 423 420 395 420 390 420 c 0
 321 420 279 338 264 303 c 4
 260 294 258 289 258 288 c 2
 193 26 l 2
 191 18 184 -11 154 -11 c 0
 134 -11 126 4 126 15 c 0
 126 18 127 23 129 29 c 2
 204 329 l 2
 208 345 211 364 211 380 c 0
 211 391 211 420 185 420 c 0
 154 420 135 371 117 301 c 0
 115 291 113 285 111 282 c 0
 108 278 105 278 98 278 c 0
 97 278 95 278 94 278 c 0
 89 278 83 280 83 288 c 0
EndSplineSet
EndChar
StartChar: sacute
Encoding: 347 347 306
Width: 408
Flags: MW
LayerCount: 2
Fore
SplineSet
246 514 m 0
 246 524 258 532 266 538 c 0
 273 543 279 549 285 554 c 0
 404 651 403 651 417 651 c 0
 432 651 445 638 445 623 c 0
 445 601 419 588 415 586 c 0
 405 580 396 575 387 570 c 0
 267 499 265 499 260 499 c 0
 252 499 246 506 246 514 c 0
76 86 m 0
 76 131 104 148 127 148 c 0
 148 148 161 135 161 116 c 0
 161 114 161 72 110 67 c 1
 126 16 184 11 206 11 c 0
 309 11 336 91 336 123 c 0
 336 177 291 187 247 197 c 0
 235 200 216 204 198 214 c 4
 175 227 154 251 154 294 c 0
 154 346 195 442 312 442 c 0
 378 442 419 403 419 357 c 0
 419 314 393 302 376 302 c 0
 352 302 346 319 346 330 c 0
 346 340 354 367 386 371 c 1
 375 410 338 420 311 420 c 0
 231 420 210 352 210 328 c 0
 210 285 246 277 274 271 c 0
 289 268 310 263 330 254 c 0
 363 239 393 211 393 157 c 0
 393 111 355 -11 205 -11 c 0
 134 -11 76 25 76 86 c 0
EndSplineSet
EndChar
StartChar: Scircumflex
Encoding: 348 348 342
Width: 562
Flags: MW
LayerCount: 2
Fore
SplineSet
343 757 m 0
 343 760 344 762 354 772 c 0
 368 785 398 811 465 871 c 0
 489 893 496 900 504 900 c 0
 505 900 507 900 508 899 c 0
 517 895 525 879 532 869 c 1
 548 843 560 823 569 808 c 0
 596 763 597 761 597 756 c 0
 597 748 589 741 581 741 c 0
 574 741 557 761 539 786 c 0
 525 805 510 827 496 847 c 1
 432 799 371 741 358 741 c 0
 353 741 343 744 343 757 c 0
74 -12 m 0
 74 -9 75 -6 77 1 c 2
 129 210 l 2
 133 225 135 227 147 227 c 0
 153 227 162 227 162 216 c 0
 162 214 161 212 161 210 c 0
 158 199 153 172 153 149 c 0
 153 45 228 9 303 9 c 0
 392 9 470 109 470 200 c 0
 470 236 459 258 448 272 c 1
 431 290 423 293 371 308 c 2
 322 322 l 2
 307 326 285 332 279 335 c 0
 253 347 234 365 221 385 c 0
 205 410 199 438 199 467 c 0
 199 582 308 705 431 705 c 0
 451 705 522 704 561 637 c 1
 606 693 l 2
 615 704 616 705 621 705 c 0
 631 705 632 697 632 695 c 0
 632 691 631 685 630 681 c 2
 578 474 l 2
 574 457 571 456 560 456 c 0
 559 456 557 456 555 456 c 4
 550 457 545 459 545 466 c 2
 546 480 l 1
 550 502 551 509 551 535 c 0
 551 609 523 677 429 677 c 0
 344 677 267 588 267 506 c 0
 267 465 284 433 318 418 c 0
 323 416 354 407 373 402 c 0
 468 374 480 371 505 340 c 0
 531 308 538 267 538 238 c 0
 538 112 427 -22 301 -22 c 0
 249 -22 185 -7 148 47 c 1
 138 34 112 2 101 -10 c 0
 93 -20 92 -22 85 -22 c 0
 79 -22 74 -18 74 -12 c 0
EndSplineSet
EndChar
StartChar: scircumflex
Encoding: 349 349 348
Width: 408
Flags: MW
LayerCount: 2
Fore
SplineSet
198 484 m 0
 198 493 208 501 215 507 c 0
 350 634 353 636 360 636 c 0
 371 636 379 618 388 603 c 0
 451 493 452 492 452 486 c 0
 452 477 444 470 436 470 c 0
 426 470 421 479 385 533 c 0
 374 549 362 566 352 583 c 9
 352 583 l 17
 300 541 253 496 228 478 c 0
 221 473 216 470 213 470 c 0
 205 470 198 477 198 484 c 0
76 86 m 0
 76 131 104 148 127 148 c 0
 148 148 161 135 161 116 c 0
 161 114 161 72 110 67 c 1
 126 16 184 11 206 11 c 0
 309 11 336 91 336 123 c 0
 336 177 291 187 247 197 c 0
 235 200 216 204 198 214 c 4
 175 227 154 251 154 294 c 0
 154 346 195 442 312 442 c 0
 378 442 419 403 419 357 c 0
 419 314 393 302 376 302 c 0
 352 302 346 319 346 330 c 0
 346 340 354 367 386 371 c 1
 375 410 338 420 311 420 c 0
 231 420 210 352 210 328 c 0
 210 285 246 277 274 271 c 0
 289 268 310 263 330 254 c 0
 363 239 393 211 393 157 c 0
 393 111 355 -11 205 -11 c 0
 134 -11 76 25 76 86 c 0
EndSplineSet
EndChar
